<?xml version="1.0" encoding="utf-8"?>
<!-- Generator: Adobe Illustrator 16.0.0, SVG Export Plug-In . SVG Version: 6.00 Build 0)  -->
<!DOCTYPE svg PUBLIC "-//W3C//DTD SVG 1.1//EN" "http://www.w3.org/Graphics/SVG/1.1/DTD/svg11.dtd">
<svg version="1.1"
	 id="Layer_2" xmlns:rdf="http://www.w3.org/1999/02/22-rdf-syntax-ns#" xmlns:cc="http://creativecommons.org/ns#" xmlns:dc="http://purl.org/dc/elements/1.1/"
	 xmlns="http://www.w3.org/2000/svg" xmlns:xlink="http://www.w3.org/1999/xlink" x="0px" y="0px" width="1387.362px"
	 height="405.62px" viewBox="1.014 0.984 1387.362 405.62" enable-background="new 1.014 0.984 1387.362 405.62"
	 xml:space="preserve">
<g>
	<path d="M1376.283,406.531c-5.717,0-9.033-4.123-10.449-5.884c-7.486-9.301-14.981-18.588-22.481-27.88
		c-3.026-3.75-6.056-7.496-9.085-11.242c-7.429-9.188-15.11-18.688-22.607-28.091c-1.424-1.784-2.863-2.448-5.313-2.448
		c-7.817,0.043-16.218,0.063-26.508,0.063c-6.006,0-12.013-0.007-18.019-0.014l-10.002-0.01
		c-11.776-0.008-19.353-6.801-20.201-17.883c-7.589,0.048-15.013,0.072-22.163,0.072c-8.145,0-16.22-0.031-23.998-0.094
		c-3.977-0.032-7.406-0.691-10.196-1.959c-1.628-0.74-3.089-1.663-4.37-2.747c0.001,0.647,0.002,1.294,0.003,1.94
		c0.013,8.75-3.246,14.868-9.686,18.186c-2.898,1.493-6.427,2.348-9.936,2.404c-4.888,0.08-10.169,0.117-16.62,0.117
		c-3.872,0-7.743-0.013-11.615-0.026l-5.763-0.018c-8.285-0.02-14.672-3.934-17.767-10.344c-3.118,6.747-9.641,10.35-19.106,10.35
		H978.069c-9.853-0.002-16.586-4.178-19.399-11.731c-1.527,4.017-4.219,7.07-8.056,9.126c-2.978,1.592-6.527,2.513-9.742,2.525
		c-13.441,0.065-27.897,0.098-44.19,0.098c-11.789,0-23.573-0.017-35.362-0.039c-8.806-0.017-15.735-5.137-18.029-12.871
		c-2.509,8.005-9.388,12.887-18.866,12.889c-11.738,0.01-23.483,0.013-35.226,0.013l-42.989-0.001
		c-8.369,0.002-15.645-3.118-21.039-9.021c-16.2-17.731-32.02-35.226-50.79-56.039c-2.341-2.594-3.604-5.104-4.19-7.398
		c-0.003,4.092-0.007,8.166-0.01,12.22c-0.011,13.122-0.022,26.243-0.023,39.365c-0.002,13.258-7.57,20.865-20.761,20.872
		l-19.084,0.009c-4.833,0-9.666-0.004-14.5-0.017c-7.89-0.02-14.049-3.55-17.263-9.386c-3.207,5.712-9.3,9.34-16.763,9.377
		c-5.517,0.028-11.036,0.04-16.554,0.04c-5.796,0-11.591-0.013-17.387-0.034c-5.721-0.021-10.798-2.021-14.296-5.63
		c-3.099-3.198-4.831-7.406-5.06-12.251c-6.173,0.05-12.825,0.072-21.305,0.072c-3.954,0-7.908-0.004-11.861-0.009
		c-3.949-0.005-7.897-0.01-11.846-0.01h-1.449c-5.955,0.001-10.676-1.542-14.115-4.599c0,0.496,0,0.991,0,1.487
		c0.001,3.249,0.004,13.135-9.436,18.261c-2.985,1.618-6.523,2.566-9.71,2.602c-7.512,0.088-15.269,0.13-23.708,0.13
		c-6.354,0-13.023-0.024-20.387-0.074c-8.959-0.063-16.421-4.328-21.013-12.01c-21.129-35.337-38.297-64.191-54.028-90.808
		c-0.797-1.348-1.425-2.715-1.884-4.082c0.002,11.314,0.007,68.468,0.012,85.841c0.001,3.252,0.004,13.146-9.267,18.306
		c-3.031,1.688-6.589,2.672-9.759,2.696c-10.499,0.082-21.299,0.124-32.1,0.124c-8.621,0-17.474-0.026-26.314-0.079
		c-8.051-0.046-15.136-3.463-20.486-9.882c-11.273-13.535-22.518-27.089-33.762-40.642c-7.543-9.093-15.086-18.185-22.637-27.271
		c-5.022-6.04-3.941-11.299-2.149-14.646c2.131-3.975,5.854-6.346,9.961-6.346c1.053,0,2.115,0.156,3.158,0.464
		c2.915,0.863,5.794,2.795,7.902,5.303c10.358,12.333,20.802,24.929,30.902,37.109l9.325,11.242c1.525,1.838,3.057,3.669,4.589,5.5
		c3.44,4.112,6.997,8.365,10.426,12.639c1.357,1.69,2.67,2.29,5.018,2.29h0.109c7.024-0.044,14.482-0.063,24.182-0.063
		c4.347,0,26.6,0.016,26.6,0.016l0.001-37.331c0.003-45.934,0.007-91.868-0.033-137.801c-0.006-8.511,3.193-14.526,9.508-17.878
		c3.041-1.61,6.49-2.506,9.716-2.524c13.441-0.066,27.987-0.098,44.474-0.098c11.262,0,22.521,0.015,33.784,0.034
		c11.384,0.02,19.37,7.979,19.422,19.355c0.127,27.523,0.126,53.125-0.004,78.268c-0.064,11.331-8.222,19.26-19.837,19.282
		c-7.307,0.014-14.613,0.018-21.962,0.018l-20.79-0.005c0,0,11.109,18.68,15.809,26.577c2.671,4.487,5.346,8.974,8.021,13.46
		c7.194,12.064,14.632,24.54,21.882,36.857c0.945,1.606,1.542,1.85,3.101,1.85l0.112-0.001c6.098-0.073,12.45-0.11,18.881-0.11
		c5.833,0,11.927,0.03,18.141,0.091c-0.067-23.919-0.071-48.194-0.076-71.69c-0.003-15.645-0.006-31.288-0.026-46.932
		c-0.01-8.458,3.263-14.449,9.729-17.808c2.947-1.529,6.483-2.417,9.703-2.435c9.945-0.055,20.312-0.082,31.694-0.082
		c11.165,0,23.375,0.026,38.427,0.082c5.988,0.022,11.25,2.304,14.816,6.427c3.995,4.619,5.622,11.198,4.583,18.526
		c-1.548,10.88-8.852,17.14-20.04,17.176c-7.921,0.027-15.843,0.051-23.764,0.051c-8.501,0-16.063-0.028-23.045-0.087
		c0.14,5.325,0.144,11.006,0.013,17.247c5.476-0.036,11.281-0.053,17.724-0.053c8.133,0,16.265,0.026,24.398,0.054l4.792,0.016
		c9.332,0.027,17.053,5.47,19.212,13.541c3.083,11.535-0.49,21.856-9.101,26.297c-3.811,1.966-8.07,2.412-10.973,2.441
		c-7.625,0.078-15.436,0.116-23.876,0.116c-6.957,0-14.236-0.026-22.186-0.08c0.131,6.575,0.13,13.085-0.003,19.414
		c4.914-0.03,9.786-0.041,14.658-0.041c5.586,0,11.171,0.014,16.757,0.027c4.835,0.013,9.67,0.024,14.505,0.027
		c12.483,0.007,19.808,6.28,20.881,17.749c4.271-0.04,8.447-0.06,12.444-0.06c4.006,0,7.963,0.02,11.801,0.061
		c-0.06-56.416-0.056-106.693,0.013-153.524c-9.175,0.036-18.321,0.05-27.465,0.05c-8.67,0-17.336-0.012-26.006-0.03
		c-9.944-0.024-17.44-5.483-19.1-13.908c-0.924-4.697-3.738-18.989,8.873-25.683c3.034-1.609,6.705-2.535,10.073-2.542
		c18.082-0.036,36.171-0.048,54.253-0.048c18.385,0,36.767,0.012,55.15,0.025c14.159,0.01,28.318,0.02,42.478,0.023
		c12.031,0.002,19.682,7.659,19.968,19.982c0.092,3.968,0.336,14.51-9.634,19.639c-3.826,1.972-8.061,2.419-10.939,2.446
		c-9.318,0.077-18.82,0.115-28.251,0.115c-8.53,0-17.225-0.032-25.873-0.094c0.091,51.885,0.09,103.532-0.005,153.568
		c4.97-0.094,9.403-0.14,13.505-0.14c4.303,0,8.295,0.049,12.143,0.149c-0.058-24.847-0.037-50.071-0.017-74.482
		c0.012-14.533,0.024-29.066,0.021-43.601c-0.001-3.262-0.005-13.189,9.579-18.212c3.21-1.683,6.759-2.622,9.995-2.644
		c8.398-0.053,17.445-0.079,27.659-0.079c11.09,0,22.178,0.03,33.267,0.06l7.24,0.019c11.332,0.031,19.313,7.811,19.409,18.919
		c0.176,20.054,0.176,40.043,0.002,59.41c-0.102,11.273-8.025,18.888-19.719,18.948c-5.056,0.026-10.111,0.033-15.166,0.033
		l-11.823-0.008c1.026,1.139,2.048,2.269,3.07,3.397l9.939,10.971c7.557,8.339,15.113,16.676,22.646,25.038
		c1.431,1.589,2.804,2.208,4.897,2.208c11.755-0.026,23.483-0.042,35.207-0.042c13.459,0,25.911,0.021,37.978,0.063
		c-0.032-1.303-0.033-2.641-0.005-4.028c-2.745,0.022-5.703,0.033-9.123,0.033c-0.032,0-0.065,0-0.098,0
		c-2.675,0-5.349-0.007-8.022-0.013l-5.12-0.011c-13.932-0.02-21.296-7.438-21.297-21.449c-0.006-30.743-0.008-61.485,0-92.231
		c0.006-13.708,7.524-21.256,21.171-21.256h92.556c13.425,0,21.125,7.646,21.125,20.977l0.001,9.808
		c0.002,27.799,0.004,55.6-0.001,83.4c-0.002,12.942-7.74,20.699-20.698,20.749l-4.746,0.023c-3.107,0.017-6.215,0.033-9.321,0.033
		c-3.767,0-7.001-0.024-10-0.077c0.046,1.358,0.037,2.698,0.008,4.019c11.995-0.02,23.945-0.029,35.892-0.029
		c11.128,0,22.252,0.008,33.38,0.023v-174.47c0-13.651,7.533-21.17,21.214-21.172l74.959,0.001c12.995,0,20.757,7.715,20.761,20.639
		c0.007,25.204,0.007,50.407,0,75.612c-0.004,12.946-7.755,20.678-20.733,20.68c0,0-20.806,0.014-25.421,0.014
		c-9.994,0-17.887-0.017-25.156-0.053c0.072,26.252,0.071,52.725-0.002,78.775c15.477-0.033,30.941-0.051,46.403-0.051
		c16.886,0,33.521,0.021,49.484,0.065c-0.076-37.712-0.068-76.003-0.062-113.055l0.004-18.927c0-13.713,7.445-21.266,20.965-21.266
		l0.572,0.004c3.949,0.059,8.125,0.25,11.946,1.851c5.063,2.122,11.098,7.1,11.088,18.766c-0.023,34.51-0.021,69.024-0.02,103.538
		l0.001,29.029c2.503,0,5.007-0.011,7.511-0.021c2.542-0.011,5.084-0.021,7.626-0.021c3.696,0,6.848,0.023,9.732,0.072
		c-0.047-23.455-0.051-47.256-0.054-70.293c-0.002-15.763-0.005-31.524-0.02-47.288c-0.004-3.413-0.017-13.802,9.829-18.823
		c3.148-1.605,6.69-2.5,9.974-2.519c8.066-0.047,16.825-0.07,26.777-0.07c9.736,0,19.474,0.021,29.211,0.043l13.467,0.027
		c11.641,0.018,19.421,7.644,19.822,19.428c0.152,4.475,0.51,14.954-9.418,20.113c-3.118,1.617-7.11,2.533-11.246,2.58
		c-7.425,0.084-15.225,0.125-23.843,0.125c-6.612,0-13.731-0.023-22.249-0.075c0.113,5.503,0.115,11.195,0.007,17.271
		c6.721-0.036,14.026-0.054,22.761-0.054c5.521,0,11.04,0.007,16.559,0.014l7.234,0.008c7.879,0.012,13.767,3.097,17.502,9.171
		c3.048,4.959,3.834,11.763,2.104,18.199c-1.519,5.651-4.703,10.03-8.966,12.329c-3.022,1.629-6.94,2.547-11.035,2.588
		c-7.478,0.082-15.328,0.121-23.994,0.121c-6.628,0-13.729-0.022-22.18-0.071c0.104,5.953,0.106,12.342,0.007,19.391
		c7.586-0.032,15.139-0.041,22.688-0.041c5.432,0,10.861,0.005,16.293,0.01l7.063,0.006c12.158,0.007,19.527,6.464,20.524,17.822
		c4.802-0.021,9.57-0.026,14.339-0.026l15.983,0.007c5.856,0,12.811-0.007,19.976-0.058l0.296-0.001
		c10.324,0,18.427,3.865,24.77,11.817c18,22.545,36.227,45.121,54.171,67.099c3.165,3.878,4.167,8.737,2.679,12.999
		c-1.357,3.889-4.652,6.751-8.814,7.656C1378.012,406.434,1377.136,406.531,1376.283,406.531z M810.834,278.432
		c3.525,0,7.051,0.018,10.576,0.036l3.014,0.016c9.622,0.047,16.412,4.801,18.88,12.793c2.296-7.683,8.999-12.656,17.771-12.769
		c4.598-0.062,9.18-0.094,13.613-0.094c4.135,0,8.256,0.027,12.284,0.082c-0.088-30.583-0.084-58.896,0.012-86.385
		c-14.478,0.043-28.962,0.065-43.144,0.065c-14.459,0-29.003-0.023-43.265-0.067c0.095,28.812,0.095,57.855,0,86.39
		C803.671,278.453,806.986,278.432,810.834,278.432z M670.161,192.107c0.048,19.888,0.046,40.002,0.033,59.797
		c0.261-1.022,0.611-1.911,0.957-2.635c1.846-3.875,5.915-8.499,14.799-8.499l5.295,0.003l18.524-0.012
		c5.313,0,12.17,0.008,19.215,0.063c-0.108-15.669-0.11-31.648-0.006-48.706c-10.387,0.049-20.051,0.073-29.521,0.073
		C689.402,192.192,679.557,192.163,670.161,192.107z M1170.852,249.964c0.651-0.573,1.347-1.1,2.081-1.576
		c-0.736-0.478-1.431-1.004-2.082-1.578C1170.851,247.862,1170.851,248.912,1170.852,249.964z M467.907,249.797
		c0.557-0.47,1.147-0.905,1.77-1.305c-0.623-0.393-1.213-0.821-1.771-1.283C467.906,248.073,467.907,248.935,467.907,249.797z
		 M327.689,135.368c0.034,25.95,0.048,52.149,0.054,78.104c0.255-0.673,0.563-1.329,0.924-1.965
		c2.806-4.944,8.307-7.798,15.093-7.827c8.397-0.037,16.795-0.061,25.192-0.061c9.674,0,18.582,0.03,27.154,0.093
		c-0.096-22.687-0.096-45.656,0-68.34c-11.461,0.057-22.901,0.086-34.074,0.086C350.529,135.459,338.986,135.429,327.689,135.368z
		 M960.133,135.362c0.008,25.663,0.011,51.32,0.013,76.981c3.354-5.625,9.464-8.688,17.838-8.691c0,0,19.355-0.014,24.724-0.014
		c8.576,0,17.149,0.01,25.727,0.044c-0.09-20.292-0.095-42.143-0.015-68.297c-12.884,0.044-23.841,0.065-34.295,0.065
		C981.98,135.45,970.827,135.421,960.133,135.362z M596.345,135.434c0.775,0.942,1.463,1.986,2.063,3.134
		c0.6-1.138,1.311-2.184,2.125-3.134C599.137,135.434,597.741,135.434,596.345,135.434z M1098.633,143.997
		c-5.148-0.001-10.026-2.128-14.107-6.151c-6.567-6.47-12.538-12.441-18.251-18.253c-8.065-8.202-8.158-19.667-0.225-27.883
		c6.339-6.567,12.662-12.889,18.792-18.79c3.98-3.833,8.746-5.858,13.781-5.858c4.982,0,9.897,2.095,13.842,5.899l0.537,0.519
		c6.114,5.905,12.436,12.012,18.291,18.474c3.182,3.513,5.644,9.305,5.726,13.473c0.095,4.632-2.478,10.636-6.116,14.273
		c-1.764,1.766-3.525,3.538-5.288,5.31c-4.222,4.245-8.587,8.634-12.951,12.907c-4.066,3.979-8.917,6.081-14.028,6.081
		C1098.634,143.997,1098.633,143.997,1098.633,143.997z M1088.393,105.521c3.676,3.637,6.971,6.918,10.236,10.245
		c3.445-3.512,6.902-6.952,10.242-10.247c-2.931-2.885-5.827-5.793-8.649-8.628c-0.529-0.532-1.06-1.064-1.589-1.596
		c-0.685,0.686-1.374,1.377-2.063,2.068C1093.897,100.046,1091.155,102.796,1088.393,105.521z"/>
	<path fill="#FDE209" d="M1088.505,133.809c6.081,5.995,14.08,6.037,20.192,0.057c6.126-5.998,12.139-12.111,18.197-18.175
		c2.797-2.796,4.513-7.381,4.456-10.151c-0.053-2.666-1.93-7.207-4.259-9.778c-5.895-6.506-12.243-12.614-18.563-18.719
		c-5.939-5.729-13.818-5.753-19.756-0.037c-6.331,6.094-12.542,12.321-18.646,18.644c-5.795,6-5.667,14.015,0.189,19.97
		C1076.33,121.735,1082.395,127.789,1088.505,133.809z M1081.778,104.07c5.284-5.153,10.461-10.412,15.688-15.625
		c0.37-0.367,0.813-0.658,1.254-1.012c0.499,0.469,0.9,0.827,1.279,1.207c5.144,5.14,10.241,10.326,15.458,15.39
		c1.291,1.251,1.035,1.945-0.086,3.045c-5.028,4.944-10.042,9.91-14.951,14.977c-1.438,1.49-2.305,1.313-3.652-0.077
		c-4.838-4.982-9.776-9.87-14.716-14.75C1080.99,106.181,1080.393,105.422,1081.778,104.07z M1377.68,400.704
		c-3.385,0.736-5.514-1.229-7.43-3.611c-7.488-9.304-14.985-18.593-22.487-27.887c-10.565-13.096-21.182-26.15-31.671-39.307
		c-2.599-3.258-5.722-4.605-9.847-4.583c-18.141,0.101-36.283,0.054-54.424,0.04c-9.342-0.007-14.617-5.039-14.615-14.341
		c0-3.017-1.078-3.573-3.8-3.555c-15.966,0.11-31.94,0.119-47.906-0.009c-2.652-0.021-5.525-0.374-7.896-1.451
		c-4.846-2.203-7.272-6.421-7.331-11.731c-0.108-9.996-0.108-19.991-0.007-29.983c0.081-7.854,5.514-13.264,13.392-13.3
		c16.84-0.076,33.678-0.064,50.516,0.021c2.285,0.012,3.06-0.675,3.001-2.948c-0.063-2.313-1.419-2.221-3.037-2.217
		c-10.321,0.028-20.643,0.015-30.961,0.015c-6.41,0-12.82,0.044-19.23-0.014c-8.231-0.07-13.632-5.448-13.688-13.685
		c-0.063-8.69-0.023-17.383-0.017-26.072c0.017-9.256,5.201-14.555,14.457-14.584c16.404-0.052,32.809-0.013,49.208-0.019
		c1.498,0,3.075,0.327,3.259-2.057c0.198-2.588-0.941-2.99-3.236-2.983c-21.729,0.083-43.456,0.107-65.183-0.019
		c-2.938-0.018-3.618,0.888-3.614,3.684c0.08,40.088,0.023,80.173,0.091,120.257c0.008,5.613-1.391,10.445-6.613,13.137
		c-2.209,1.138-4.931,1.734-7.432,1.775c-11.297,0.184-22.592,0.101-33.891,0.072c-8.797-0.021-14.162-5.389-14.167-14.224
		c-0.016-44.866-0.009-89.731-0.009-134.596c0-4.091-2.37-5.76-6.213-4.291c-0.433,0.165-0.816,0.878-0.914,1.392
		c-0.15,0.843-0.048,1.733-0.048,2.601c0,44.539,0.002,89.079,0,133.618c0,10.508-5.007,15.505-15.537,15.505
		c-34.111,0.002-68.22,0.002-102.331,0c-10.18-0.002-15.203-4.975-15.21-15.084c-0.009-28.572-0.009-57.14,0-85.71
		c0.003-10.128,5.08-15.236,15.128-15.241c17.603-0.009,35.194-0.039,52.795,0.041c2.34,0.012,3.348-0.317,3.334-3.078
		c-0.118-24.551-0.098-49.102-0.019-73.653c0.005-2.212-0.474-2.936-2.828-2.926c-24.663,0.09-49.32,0.122-73.979-0.029
		c-3.173-0.021-2.828,1.554-2.827,3.576c0.02,58.986,0.006,117.972,0.033,176.96c0.002,5.554-1.385,10.438-6.56,13.209
		c-2.106,1.127-4.708,1.845-7.089,1.854c-26.507,0.129-53.014,0.108-79.519,0.059c-7.26-0.014-12.579-4.573-13.138-11.732
		c-0.454-5.822-0.475-11.735-0.027-17.558c0.561-7.307,5.649-11.773,12.983-11.867c9.343-0.126,18.685-0.129,28.027,0.021
		c2.735,0.043,3.479-0.813,3.474-3.514c-0.091-30.308-0.098-60.614,0.014-90.924c0.009-2.799-0.818-3.337-3.448-3.325
		c-30.202,0.095-60.402,0.097-90.599-0.002c-2.812-0.01-3.725,0.656-3.716,3.586c0.104,30.199,0.105,60.398,0,90.599
		c-0.013,2.976,0.985,3.635,3.755,3.584c8.575-0.163,17.16-0.091,25.742-0.05c9.002,0.044,14.147,5.123,14.262,14.056
		c0.059,4.346,0.063,8.693,0,13.036c-0.121,8.908-5.357,14.105-14.236,14.107c-26.072,0.021-52.143,0.006-78.215,0.012
		c-6.642,0.001-12.402-2.307-16.853-7.177c-16.995-18.602-33.889-37.298-50.766-56.012c-2.683-2.973-4.201-6.527-2.323-10.463
		c1.889-3.965,5.478-5.275,9.697-5.272c14.991,0.021,29.981-0.065,44.974,0.071c2.777,0.023,3.754-0.573,3.73-3.547
		c-0.134-17.706-0.124-35.412-0.006-53.12c0.018-2.771-0.869-3.421-3.527-3.406c-20.964,0.106-41.931,0.122-62.894-0.013
		c-3.012-0.018-3.762,0.771-3.753,3.803c0.103,39.976,0.001,79.951,0,119.93c-0.002,10.214-4.954,15.197-15.095,15.203
		c-11.187,0.003-22.376,0.021-33.566-0.008c-8.688-0.021-14.063-5.253-14.068-13.92c-0.038-54.209-0.036-108.414-0.003-162.622
		c0.005-9.025,5.257-14.076,14.572-14.096c18.903-0.047,37.805-0.007,56.707-0.037c1.383-0.002,3.159,0.58,3.277-1.949
		c0.101-2.104-0.274-3.025-2.741-3.022c-49.537,0.076-99.073,0.064-148.61,0.029c-1.853,0-3.09,0.11-3.066,2.515
		c0.025,2.478,1.46,2.459,3.215,2.458c18.466-0.018,36.935,0.013,55.402-0.028c5.451-0.011,10.215,1.418,12.881,6.527
		c1.105,2.123,1.883,4.703,1.887,7.073c0.103,54.533,0.1,109.066,0.059,163.602c-0.005,7.979-5.561,13.421-13.58,13.461
		c-11.297,0.058-22.595,0.047-33.892,0.006c-8.428-0.031-13.96-5.406-13.726-13.852c0.098-3.511-1.083-4.07-4.206-4.042
		c-15.967,0.143-31.938,0.062-47.907,0.066c-5.554,0.002-10.466-1.547-13.057-6.816c-1.195-2.427-1.753-5.375-1.82-8.104
		c-0.221-8.904-0.102-17.815-0.077-26.723c0.025-9.697,5.205-14.907,14.83-14.915c16.295-0.015,32.59,0.002,48.885-0.015
		c1.447-0.003,3.163,0.466,3.277-1.985c0.098-2.103-0.363-3.427-2.825-3.119c-0.641,0.082-1.303,0.014-1.954,0.014
		c-16.079,0-32.154,0.025-48.233-0.012c-7.675-0.02-13.08-4.017-13.559-11.565c-0.656-10.371-0.636-20.844-0.002-31.219
		c0.447-7.313,5.577-11.214,12.921-11.558c0.975-0.045,1.956-0.014,2.933-0.014c15.643-0.001,31.288,0.016,46.93-0.024
		c1.661-0.003,3.794,0.796,3.834-2.403c0.038-3.071-1.867-2.567-3.675-2.567c-21.618-0.002-43.238,0.05-64.853-0.066
		c-2.72-0.017-3.412,0.684-3.406,3.395c0.09,40.085,0.055,80.171,0.069,120.256c0.002,5.513-1.297,10.467-6.472,13.276
		c-2.098,1.138-4.689,1.889-7.068,1.915c-14.662,0.171-29.329,0.155-43.994,0.056c-7.04-0.05-12.586-3.229-16.185-9.25
		c-18.07-30.221-36.098-60.471-54.014-90.783c-4.929-8.335-0.455-15.904,9.275-15.947c18.142-0.08,36.283-0.096,54.426,0.049
		c2.958,0.021,3.587-0.867,3.574-3.676c-0.108-24.118-0.108-48.234,0-72.351c0.014-2.789-0.573-3.694-3.551-3.679
		c-24.224,0.128-48.45,0.132-72.675-0.006c-2.963-0.016-3.546,0.834-3.542,3.619c0.08,58.878,0.053,117.757,0.071,176.636
		c0.001,5.501-1.21,10.486-6.355,13.35c-2.086,1.162-4.678,1.963-7.047,1.981c-19.444,0.152-38.889,0.16-58.336,0.045
		c-6.527-0.037-12.004-2.851-16.166-7.843c-18.832-22.61-37.587-45.278-56.393-67.906c-2.109-2.536-3.173-5.241-1.511-8.348
		c1.367-2.55,3.771-3.93,6.515-3.119c1.917,0.567,3.865,1.963,5.169,3.514c13.477,16.047,26.821,32.202,40.205,48.324
		c4.992,6.017,10.064,11.97,14.954,18.065c2.522,3.143,5.566,4.443,9.585,4.411c17.381-0.107,34.762-0.043,52.143-0.048
		c4.269,0,4.273,0,4.273-4.171c0-58.876,0.021-117.757-0.032-176.635c-0.004-5.498,1.442-10.183,6.497-12.865
		c2.114-1.12,4.71-1.85,7.091-1.863c26.07-0.128,52.142-0.109,78.215-0.064c8.11,0.014,13.725,5.447,13.762,13.711
		c0.121,26.071,0.131,52.142-0.004,78.213c-0.047,8.346-5.774,13.626-14.179,13.643c-17.375,0.031-34.751,0.01-52.71,0.01
		c7.188,12.086,14.043,23.618,20.906,35.148c9.974,16.756,19.997,33.487,29.889,50.294c1.919,3.261,4.341,4.688,8.168,4.642
		c12.925-0.155,25.856-0.138,38.779,0c2.886,0.032,3.855-0.612,3.848-3.735c-0.118-40.196-0.055-80.39-0.107-120.583
		c-0.007-5.524,1.617-10.143,6.673-12.77c2.125-1.103,4.731-1.783,7.121-1.796c23.358-0.13,46.712-0.087,70.069,0
		c9.742,0.035,15.343,7.653,13.806,18.487c-1.148,8.075-5.989,12.276-14.445,12.303c-16.188,0.055-32.375,0.098-48.559-0.052
		c-3.152-0.03-4.053,0.888-3.953,4.007c0.23,7.053,0.193,14.123,0.01,21.18c-0.067,2.682,0.654,3.457,3.408,3.431
		c16.404-0.125,32.807-0.052,49.211,0c6.863,0.021,12.264,3.769,13.753,9.337c2.336,8.74,0.11,16.528-6.222,19.793
		c-2.477,1.277-5.595,1.783-8.431,1.812c-16.074,0.165-32.154,0.138-48.232,0.021c-2.638-0.018-3.563,0.592-3.495,3.399
		c0.196,7.924,0.206,15.86-0.001,23.785c-0.076,2.981,0.962,3.613,3.73,3.597c15.966-0.116,31.937-0.01,47.906,0
		c10.232,0.006,15.287,4.787,15.352,14.931c0.014,2.36,0.761,2.874,2.97,2.846c9.883-0.11,19.772-0.124,29.657,0.008
		c2.367,0.033,2.826-0.752,2.823-2.954c-0.058-52.904-0.067-105.809,0.014-158.711c0.003-2.726-0.958-3.25-3.407-3.241
		c-18.576,0.081-37.152,0.067-55.725,0.029c-7.073-0.018-12.378-3.388-13.549-9.334c-1.856-9.43-0.625-16.08,5.968-19.58
		c2.192-1.162,4.935-1.875,7.426-1.88c50.624-0.102,101.247-0.014,151.869,0c8.986,0.001,14.091,5.347,14.302,14.444
		c0.139,5.982-0.771,11.489-6.56,14.466c-2.47,1.273-5.577,1.792-8.4,1.819c-18.574,0.152-37.152,0.151-55.728,0.008
		c-3.13-0.022-4.021,0.829-4.014,3.992c0.094,52.36,0.096,104.72-0.005,157.082c-0.005,3.215,0.96,3.941,4.023,3.879
		c9.664-0.199,19.344-0.271,29,0.026c3.533,0.106,3.977-1.129,3.97-4.2c-0.098-39.869,0.01-79.733,0-119.604
		c-0.002-5.53,1.33-10.458,6.542-13.189c2.213-1.16,4.917-1.979,7.401-1.996c22.705-0.144,45.41-0.058,68.113,0
		c8.153,0.022,13.685,5.184,13.755,13.299c0.173,19.768,0.18,39.543,0.002,59.31c-0.074,8.24-5.64,13.286-14.079,13.33
		c-12.493,0.063-24.986,0.015-37.476,0.021c-0.518,0-1.037,0.049-2.133,0.103c4.045,4.49,7.771,8.639,11.517,12.774
		c10.861,11.998,21.743,23.973,32.576,35.998c2.481,2.755,5.407,4.093,9.154,4.082c25.2-0.056,50.404-0.064,75.604,0.029
		c2.609,0.013,3.457-0.771,3.307-3.316c-0.18-3.03-0.156-6.084-0.007-9.123c0.113-2.309-0.794-2.991-3.032-2.963
		c-8.36,0.099-16.729,0.049-25.093,0.037c-10.726-0.016-15.635-4.967-15.636-15.781c-0.006-30.742-0.008-61.483,0-92.229
		c0.005-10.539,5.033-15.588,15.502-15.588c30.851-0.003,61.702-0.004,92.555,0c10.296,0,15.457,5.109,15.457,15.307
		c0.002,31.067,0.005,62.138,0,93.207c-0.002,9.777-5.239,15.043-15.052,15.081c-8.69,0.034-17.384,0.135-26.07-0.063
		c-3.078-0.07-4.011,0.923-3.757,3.895c0.247,2.91,0.124,5.865,0.027,8.795c-0.062,1.894,0.511,2.723,2.574,2.716
		c25.314-0.048,50.624-0.046,75.935-0.007c1.656,0.003,2.451-0.452,2.21-2.207c-0.092-0.639-0.016-1.299-0.016-1.952
		c0-58.661,0-117.322,0-175.985c0-10.498,5.017-15.501,15.546-15.503c24.984-0.001,49.971-0.003,74.957,0.002
		c9.888,0,15.09,5.163,15.093,14.971c0.007,25.203,0.007,50.405,0,75.608c-0.003,9.817-5.217,15.011-15.065,15.013
		c-17.705,0.004-35.412,0.049-53.12-0.054c-2.406-0.017-3.143,0.567-3.133,3.038c0.082,28.012,0.082,56.023-0.002,84.035
		c-0.008,2.488,0.763,3.065,3.152,3.061c33.568-0.075,67.135-0.081,100.701,0.016c2.703,0.006,3.391-0.664,3.385-3.387
		c-0.094-44.758-0.068-89.512-0.063-134.27c0-10.636,5.063-15.755,15.783-15.594c3.305,0.049,6.877,0.17,9.84,1.412
		c5.747,2.408,7.615,7.524,7.61,13.533c-0.03,44.211-0.019,88.427-0.019,132.641c0,5.6,0,5.6,5.602,5.6
		c9.014,0,18.034-0.133,27.044,0.074c2.989,0.069,3.572-0.93,3.565-3.696c-0.084-39.868-0.038-79.735-0.077-119.603
		c-0.007-5.764,1.198-10.943,6.736-13.767c2.221-1.133,4.933-1.886,7.43-1.9c23.136-0.136,46.272-0.04,69.413,0
		c8.658,0.013,13.871,5.282,14.166,13.951c0.205,6.012-0.405,11.792-6.366,14.89c-2.559,1.327-5.77,1.908-8.696,1.941
		c-16.077,0.183-32.154,0.139-48.229,0.036c-2.619-0.017-3.6,0.603-3.522,3.419c0.198,7.381,0.177,14.773,0.007,22.156
		c-0.059,2.457,0.643,3.081,3.064,3.064c16.401-0.105,32.809-0.064,49.208-0.049c5.303,0.008,9.758,1.723,12.679,6.472
		c4.265,6.939,1.968,18.96-4.724,22.569c-2.449,1.319-5.574,1.88-8.4,1.908c-16.186,0.177-32.374,0.135-48.561,0.034
		c-2.481-0.018-3.339,0.549-3.277,3.199c0.188,8.146,0.158,16.295,0.018,24.441c-0.045,2.491,0.826,3.13,3.187,3.115
		c16.187-0.079,32.375-0.049,48.563-0.037c9.899,0.006,14.877,4.756,14.974,14.608c0.021,2.658,0.952,3.238,3.426,3.225
		c17.484-0.093,34.98,0.037,52.468-0.088c8.502-0.062,15.217,2.943,20.592,9.683c17.947,22.479,36.017,44.864,54.212,67.149
		C1384.433,393.832,1382.759,399.599,1377.68,400.704z"/>
</g>
<g id="Layer_5_1_" transform="matrix(0.4161329,0,0,0.4161329,197.98398,622.57578)">
	<path id="path136_1_" fill="#010101" d="M212.46-840.574c-0.035,0.028-0.069,0.068-0.106,0.103
		c-0.095,0.096-0.175,0.176-0.188,0.19c0.095-0.096,0.191-0.195,0.298-0.3 M212.475-840.59l-0.007,0.016l0.013-0.016H212.475z
		 M212.487-840.599c-0.007,0-0.011,0.005-0.015,0.009l0.009-0.009H212.487z M212.538-840.653c-0.043,0.042-0.122,0.129-0.23,0.228
		l0.049-0.045c0.063-0.063,0.129-0.129,0.181-0.178 M212.572-840.693c-0.013,0.016-0.022,0.023-0.035,0.04
		c0.008-0.012,0.02-0.021,0.027-0.026v-0.021 M212.574-840.71l-0.021,0.026c-0.027,0.021-0.052,0.049-0.079,0.073
		c0.075-0.052,0.096-0.094,0.096-0.094 M-439.958-844.044c18.789,50.293,69.66,186.471,76.328,204.337
		c30.145,80.691,139.298,120.71,248.836,120.71c110.442,0,221.256-40.648,251.945-121.276
		c7.153-18.793,58.838-154.557,77.526-203.642c-0.467,1.216-652.492,5.728-654.684-0.124 M-440.027-844.08
		c0.006,0.012,0.007,0.019,0.013,0.035c0,0,0-0.023-0.008-0.033"/>
	<path id="path136_2_" fill="#991A37" d="M195.151-823.604l-27.188,71.414l-41.125,108.007
		c-13.332,35.035-44.551,64.341-90.277,84.753c-42.547,18.999-96.319,29.452-151.41,29.452c-54.688,0-107.856-10.347-149.696-29.133
		c-45.053-20.227-75.78-49.427-88.861-84.443c-5.771-15.451-44.641-119.518-67.177-179.851c4,0.566,609.848,0.53,615.741-0.195"/>
	<path id="path138_1_" fill="#010101" d="M-139.744-1062.736c-10.6,0-20.183,4.069-30.576,4.745
		c-10.13,0.657-20.242-1.077-30.388-0.298c-12.941,0.995-23.943,8.014-37.093,8.014c-12.106,0-24.695-0.216-35.776,5.545
		c-18.096,9.408-44.886,3.478-59.845,18.948c-12.083,12.499-34.875,6.207-48.681,19.274c-3.573,3.384-4.121,9.03-8.663,10.584
		c-5.098,1.765-10.418,2.844-15.533,4.569c-10.038,3.375-20.748,9.195-24.646,19.732c-2.505,6.761,0.874,7.655-5.958,10.464
		c-4.718,1.943-9.318,4.227-13.368,7.369c-7.418,5.754-9.399,13.67-10.471,23.085c-0.08,0.704,0.101,12.769,0.115,12.757
		c-3.572,2.898-6.719,6.393-9.002,10.408c-5.4,9.521-4.35,19.659-0.345,29.555c4.351,10.732,8.026,14.785,8.465,25.831
		c-0.466,5.294,2.086,10.805,4.018,15.538c8.223,20.191,12.904,35.605,37.425,36.126c4.956,0.106,7.288,19.572,9.131,24.47
		c4.55,12.102,15.448,20.429,27.726,23.716c16.608,4.454,42.806-5.386,50.226,13.991c8.414,21.973,34.528,30.097,56.083,28.337
		c17.414-1.424,43-12.452,57.222,3.717c16.441,18.685,44.371,23.402,67.637,17.277c21.331-5.611,36.981-18.558,60.038-9.685
		c25.448,9.802,48.984,18.455,75.241,4.175C1.709-704.546,8.56-718.54,32.587-714.48c21.195,3.605,41.45,8.08,61.041-4.222
		c14.294-8.965,14.677-29.661,31.794-31.684c15.066-1.776,29.711,1.793,43.998-5.649c17.269-8.986,21.289-28.518,25.127-45.996
		c15.202-2.255,28.366-6.381,33.927-22.616c3.479-7.681,7.038-15.958,8.174-24.39c0.507-3.356,0.354-6.787-0.39-10.098
		c2.498-3.241,5.01-6.127,6.789-9.868c8.57-18.07,6.583-39.16-10.875-50.756c4.616-16.547-0.569-28.248-15.648-36.98
		c-7.62-4.414-11.81-3.694-14.096-12.011c-2.151-7.716-5.68-13.761-12.457-17.734c-8.73-5.121-18.623-6.073-27.804-9.868
		c-3.774-9.821-13.374-15.636-22.93-18.788c-7.905-2.607-16.16-2.952-24.145-5.083c-8.208-2.204-12.845-9.859-21.265-12.921
		c-9.123-3.314-18.809-3.614-28.355-4.623c-10.278-1.079-17.421-7.319-27.15-9.842c-10.275-2.701-20.366-2.004-30.78-2.635
		c-10.47-0.627-19.329-6.102-29.65-7.418c-8.188-1.044-16.39-0.352-24.593-0.021c-11.214,0.439-21.324-3.098-32.32-4.466
		c-10.365-1.293-20.498,0.65-30.788,1.657c-10.205,1.063-19.739-2.234-29.922-2.234"/>
	<path id="path140_1_" fill="#991A37" d="M-171.719-700.094c-13.711,0-28.194-4.536-37.622-15.47
		c-7.382-8.563-18.562-12.163-29.243-13.287c-15.323-1.622-29.142,5.01-44.26,5.01c-13.393,0-28.975-4.564-36.108-17.533
		c-2.714-4.97-2.693-10.83-6.876-14.881c-5.488-5.374-13.409-7.796-20.697-8.706c-14.367-1.776-28.484,2.774-41.797-5.665
		c-5.314-3.363-9.368-8.671-10.732-15.139c-0.912-3.377-6.529-22.796-7.309-26.92c-1.151-6.069-19.632-1.929-25.84-5.473
		c-5.637-3.22-8.46-11.778-10.267-15.78c-1.807-3.997-7.351-16.446-7.71-20.351c0.923-1.859,21.204-6.05,21.204-6.05
		s-3.545-0.997-9.744-3.131c-6.201-2.133-13.446-8.326-15.254-11.809c-1.814-3.48-10.383-18.443-7.728-26.035
		c3.924-4.909,23.735-4.395,28.106-8.052c-1.016-1.239-12.068-9.446-13.313-11.147c-4.264-5.82-3.276-18.69,1.137-23.949
		c4.644-5.531,24.898-2.748,32.039-6.949c2.765-1.626-9.922-0.85-7.431-2.959c3.21-2.715,1.936-11.767,2.419-15.651
		c1.988-15.927,594.714-15.561,601.309-9.812c4.675,4.074,8.446,4.175,9.392,11.093c0.426,3.133,1.569,18.065,3.981,17.784
		c6.228,2.793,17.975,0.347,23.613,7.113c2.472,2.971,4.46,5.583,3.121,10.652c-1.341,5.069-5.916,20.698-4.688,21.642
		c5.895,4.501,15.222,3.06,17.831,9.57c2.795,6.998-1.044,22.714-5.169,27.337c-1.231,1.375-7.735,9.765-7.936,11.377
		c3.06,4.201,2.916,5.196,2.775,8.176c-0.143,2.992-2.315,11.173-7.513,22.771c-4.84,15.69-23.311,12.459-35.079,16.547
		c-1.138,6.259-6.675,32.925-11.527,39.184c-9.628,12.412-25.718,11.464-39.345,11.02c-6.911-0.221-14.014,0.789-20.424,3.579
		c-2.96,1.288-5.819,2.987-8.174,5.278c-3.14,3.039-3.666,6.294-4.898,10.342c-4.37,14.301-19.112,20.797-32.277,22.029
		c-11.018,1.021-20.668-2.305-31.349-4.149c-10.382-1.8-21.397-1.166-31.401,2.361c-4.722,1.671-9.374,4.048-13.086,7.585
		c-3.485,3.325-6.245,7.026-10.26,9.765c-8.776,6.008-19.439,8.566-29.831,8.566c-10.627,0-21.332-2.687-30.622-8.148
		c-9.143-5.348-19.969-7.39-30.34-7.39c-10.37,0.009-21.224,2.03-30.347,7.423c-9.3,5.449-20.047,8.162-30.706,8.162"/>
	<path id="path142_1_" fill="#CB2027" d="M-173.091-734.399c-14.031,0-28.851-4.126-38.496-14.045
		c-7.559-7.77-18.996-11.042-29.921-12.06c-15.685-1.469-29.823,4.548-45.296,4.548c-13.698,0-29.644-4.142-36.946-15.918
		c-2.779-4.51-2.755-9.835-7.04-13.51c-5.61-4.879-13.719-7.078-21.175-7.894c-14.7-1.624-29.143,2.516-42.76-5.156
		c-5.443-3.051-9.744-7.841-10.984-13.74c-0.589-2.851-0.447-5.775,0.296-8.584c0.744-2.774,2.334-5.29,1.037-8.155
		c-2.354-5.21-9.8-7.381-15.226-8.23c-6.95-1.101-13.675-1.209-20.026-4.431c-5.767-2.922-10.221-8.026-10.509-14.325
		c-0.323-7.092,4.219-11.792,8.723-16.88c4.563-5.146,1.541-8.704-4.644-10.215c-6.56-1.598-13.251-5.142-15.302-11.579
		c-2.154-6.719,1.922-13.158,7.162-17.507c4.52-3.743,11.514-5.909,14.469-11.098c1.008-1.772-4.975-4.412-6.251-5.954
		c-4.364-5.287-3.024-12.093,1.491-16.859c4.75-5.024,11.328-7.514,17.766-10.065c2.996-1.183,5.948-2.628,8.498-4.543
		c3.278-2.464,0.886-2.875,0.23-6.374c-2.895-15.359,21.317-18.614,31.759-22.289c3.119-1.094,6.309-2.419,8.922-4.374
		c1.592-1.187,1.447-5.391,2.831-7.336c3.642-5.104,10.536-7.676,16.599-9.319c6.77-1.828,13.855-2.161,20.603-4.093
		c3.24-0.927,6.726-2.035,9.455-3.957c2.261-1.561,3.343-4.6,5.969-6.257c13.108-8.293,30.047-4.71,44.363-9.6
		c5.104-1.741,8.59-5.508,13.859-7.186c7.148-2.265,15.008-2.983,22.518-2.628c6.668,0.331,13.597-0.338,20.045-1.988
		c5.753-1.46,10.562-4.506,16.555-5.55c13.298-2.302,26.491,1.258,39.828-0.793c5.833-0.896,11.149-3.196,17.062-3.858
		c6.984-0.777,14.308-0.596,21.131,1.023c13.833,3.328,26.681-1.504,40.416-1.361c10.247,0.106,19.148,4.06,29.188,4.909
		c12.286,1.035,24.264-1.915,36.499,0.634c5.582,1.166,10.177,4.13,15.656,5.442c6.831,1.626,13.754,1.927,20.761,1.774
		c6.302-0.129,12.725,0.484,18.794,2.112c6.647,1.758,11.078,6.322,17.484,8.268c14.267,4.318,32.172,0.831,44.449,10.293
		c2.383,1.831,3.268,4.607,5.91,6.022c2.741,1.483,5.808,2.499,8.84,3.335c5.287,1.436,10.753,1.852,16.096,3.002
		c6.123,1.317,12.631,3.316,17.441,7.233c2.55,2.075,4.523,4.832,4.906,8.024c0.337,2.896,3.555,4.02,6.287,5.231
		c8.729,3.842,18.436,4.51,26.712,9.46c5.258,3.147,10.01,8.345,8.664,14.573c-0.547,2.516-2.641,3.407-0.381,5.287
		c2.722,2.269,6.078,3.898,9.426,5.226c9.949,3.94,28.52,12.684,20.265,25.655c-1.528,2.398-3.873,4.234-6.503,5.531
		c-1.866,0.922,0.31,2.631,1.353,3.68c4.675,4.71,11.436,6.885,15.952,11.853c4.349,4.738,6.395,11.316,3.118,17.096
		c-3.687,6.503-10.495,7.202-16.952,9.971c-7.04,3.027-2.319,7.956,1.196,11.607c4.832,5.02,8.033,11.872,5.685,18.61
		c-4.954,14.252-22.21,11.905-34.245,15.615c-5.653,1.744-12.431,5.9-9.677,12.306c2.896,6.733,2.08,14.275-2.881,19.954
		c-9.846,11.271-26.318,10.406-40.26,10.004c-7.072-0.197-14.342,0.716-20.899,3.25c-3.025,1.169-5.948,2.711-8.36,4.785
		c-3.213,2.762-3.744,5.714-5.01,9.389c-4.467,12.98-19.559,18.882-33.032,20.001c-11.274,0.929-21.144-2.093-32.071-3.771
		c-10.63-1.629-21.9-1.065-32.139,2.14c-4.831,1.514-9.592,3.68-13.389,6.885c-3.568,3.018-6.393,6.378-10.497,8.871
		c-8.981,5.449-19.897,7.777-30.523,7.777c-10.871,0-21.827-2.445-31.334-7.409c-9.354-4.846-20.43-6.702-31.045-6.702
		c-10.616,0.007-21.718,1.838-31.05,6.747c-9.543,4.999-20.54,7.46-31.456,7.46"/>
	<path fill="#FFCD05" d="M37.175-875.033c0.022-9.995-6.782-18.875-19.168-25.038c-1.252-0.73-2.492-1.23-3.392-1.549
		c-10.089-4.295-21.914-6.564-34.223-6.564c-12.222,0-24.01,2.234-34.09,6.463c-13.311,5.595-21.263,14.16-22.383,24.118
		c-0.392,3.466,2.146,34.101,2.146,34.101c0.216,4.372,0.505,5.463,2.226,8.336c0.296,0.495,0.663,1.117,1.123,1.943
		c4.163,7.554,12.041,13.738,22.787,17.882c8.803,3.391,18.708,5.184,28.654,5.184l-0.007,0.007c12.884,0,25.04-2.938,35.151-8.512
		c6.605-3.635,17.793-11.71,18.468-24.901C34.572-845.558,37.172-872.558,37.175-875.033z"/>
	<path d="M42.664-875.031c0.032-12.135-7.797-22.731-22.051-29.867c-1.476-0.85-2.916-1.448-4.004-1.835
		c-10.724-4.539-23.236-6.93-36.21-6.93l-0.005-0.007c-12.945,0-25.468,2.384-36.215,6.899
		c-15.225,6.395-24.358,16.538-25.711,28.567c-0.158,1.413-0.181,2.809-0.115,4.191l-0.022,0.101l0.042,0.547
		c0.007,0.124,0.014,0.256,0.028,0.383l2.182,29.743c0.245,4.963,0.669,6.993,2.996,10.889c0.275,0.453,0.612,1.016,1.037,1.793
		c4.786,8.685,13.644,15.721,25.601,20.337c9.434,3.633,20.021,5.552,30.629,5.552c13.808,0,26.877-3.175,37.793-9.19
		c13.136-7.226,20.7-17.685,21.303-29.438c0.094-1.737,0.169-2.297,0.27-3.004c0.163-1.19,0.312-2.37,0.447-4.825l1.658-19.748
		C42.53-872.236,42.663-873.623,42.664-875.031z M-70.625-876.974c0.886-7.899,7.668-14.897,19.056-19.67
		c9.432-3.952,20.488-6.036,31.966-6.036v-0.012c11.661,0,22.779,2.138,32.254,6.198c0.888,0.305,1.882,0.737,2.741,1.258
		c6.684,3.29,16.332,9.831,16.306,20.201c-0.007,4.201-1.726,8.23-4.936,11.851l-4.263,3.177c-2.638,2.302-5.68,4.288-9.024,5.935
		c-0.31,0.138-0.607,0.279-0.922,0.413c-9.433,3.952-20.493,6.041-31.993,6.041c-11.993,0-23.397-2.262-33.012-6.555
		c-0.266-0.134-0.541-0.246-0.804-0.38c-3.141-1.619-5.964-3.513-8.386-5.632l-5.46-4.773
		C-69.855-868.678-71.103-872.755-70.625-876.974z M28.99-843.861c-0.476,9.256-8.028,16.209-15.64,20.398
		c-9.63,5.299-21.08,7.826-32.499,7.826c-9.239,0-18.463-1.657-26.681-4.825c-7.808-3.009-15.8-7.873-19.953-15.411
		c-2.349-4.238-2.45-3.248-2.673-7.901c-0.123-2.49-0.248-4.987-0.367-7.479c3.239,2.577,7.031,4.898,11.35,6.862
		c0.209,0.094,0.432,0.176,0.642,0.27c11.012,5.365,23.878,8.228,37.39,8.228c13.278,0,26.085-2.76,37.045-7.967
		c0.283-0.136,0.541-0.289,0.819-0.425c4.265-1.929,8.032-4.166,11.239-6.677C29.432-847.475,29.211-847.985,28.99-843.861z"/>
	<path fill="#669A40" d="M147.251-931.208c0.02-9.992-6.783-18.88-19.178-25.038c-1.26-0.734-2.49-1.237-3.379-1.549
		c-10.103-4.292-21.934-6.559-34.229-6.559c-12.214,0-23.994,2.232-34.084,6.468c-13.311,5.585-21.265,14.151-22.389,24.122
		c-0.38,3.398,2.151,34.101,2.151,34.101c0.218,4.363,0.509,5.459,2.227,8.331c0.296,0.497,0.663,1.112,1.123,1.941
		c4.168,7.554,12.045,13.731,22.782,17.873c8.807,3.4,18.713,5.191,28.655,5.191l0.008,0.021c12.885,0,25.039-2.936,35.145-8.519
		c6.605-3.647,17.788-11.727,18.455-24.904C144.646-901.709,147.247-928.333,147.251-931.208z"/>
	<path d="M152.737-931.203c0.022-12.137-7.806-22.742-22.068-29.877c-1.482-0.847-2.909-1.441-3.98-1.828
		c-10.74-4.48-23.254-6.928-36.22-6.928l-0.005-0.007c-12.934,0-25.452,2.384-36.208,6.892
		c-15.226,6.395-24.358,16.533-25.717,28.567c-0.115,1.009-0.151,2.011-0.151,3.004l-0.014,0.049c0,0,0.011,0.129,0.031,0.345
		c0.019,1.131,0.107,2.255,0.265,3.363c0.807,9.814,3.099,35.943,4.983,39.106c0.275,0.453,0.61,1.014,1.036,1.786
		c4.79,8.683,13.649,15.721,25.609,20.337c9.427,3.635,20.019,5.55,30.629,5.55c13.806,0,26.876-3.175,37.793-9.18
		c13.136-7.244,20.696-17.699,21.296-29.454c0.093-1.706,0.171-2.267,0.266-2.98c0.171-1.237,0.317-2.377,0.446-4.853l1.658-19.741
		C152.603-928.415,152.736-929.797,152.737-931.203z M39.449-933.141c0.892-7.909,7.667-14.902,19.057-19.682
		c9.434-3.959,20.488-6.043,31.97-6.043l-0.008,0.007c11.662,0,22.78,2.138,32.256,6.2c0.893,0.303,1.88,0.734,2.736,1.253
		c6.682,3.288,16.329,9.828,16.306,20.198c-0.005,4.205-1.732,8.247-4.955,11.872l-4.246,3.166c-2.624,2.283-5.638,4.257-8.951,5.9
		c-0.332,0.15-0.656,0.303-0.995,0.444c-9.436,3.954-20.502,6.036-31.998,6.036c-11.958,0-23.319-2.246-32.916-6.51
		c-0.29-0.143-0.596-0.27-0.882-0.418c-3.143-1.615-5.97-3.511-8.404-5.632l-5.399-4.703
		C40.235-924.801,38.971-928.908,39.449-933.141z M139.061-900.038c-0.469,9.256-8.025,16.204-15.627,20.403
		c-9.637,5.299-21.087,7.817-32.507,7.817c-9.239,0-18.464-1.65-26.684-4.82c-7.805-3.006-15.802-7.878-19.953-15.404
		c-2.341-4.236-2.441-3.248-2.673-7.902c-0.128-2.495-0.25-4.989-0.373-7.484c3.239,2.581,7.03,4.898,11.35,6.867
		c0.23,0.11,0.473,0.195,0.704,0.296c10.995,5.346,23.85,8.195,37.335,8.195c13.278,0,26.084-2.755,37.045-7.965
		c0.265-0.124,0.512-0.263,0.771-0.394c4.285-1.931,8.066-4.18,11.28-6.698C139.507-903.647,139.284-904.159,139.061-900.038z"/>
	<path d="M-115.806-1493.734c-80.542,0-145.831,65.291-145.831,145.823c0,58.289,34.216,108.57,83.652,131.916
		c3.86,45.989,13.74,164.749,17.778,223.404c-27.272,6.949-45.722,20.229-45.722,35.483c0,22.433,39.912,40.62,89.146,40.62
		c49.231,0,89.143-18.19,89.143-40.62l-0.006-0.023c0-14.864-17.573-27.87-43.769-34.948
		c4.737-57.571,14.091-177.926,17.651-223.859c49.494-23.315,83.77-73.632,83.77-131.97v-0.042
		C30.008-1428.401-35.293-1493.734-115.806-1493.734z"/>
	<path id="path168_1_" fill="#CB2027" d="M-19.587-1260.659c-51.929,51.938-135.632,52.443-186.943,1.141
		c-51.31-51.319-50.807-135.023,1.124-186.95c51.933-51.936,135.639-52.441,186.95-1.124
		c51.305,51.288,50.797,135.035-1.138,186.961"/>
	<path fill="#FFFFFF" d="M-88.628-962.964c-0.591,3.396-3.988,7.167-8.872,9.859c-4.79,2.628-11.646,4.135-18.815,4.135
		c-1.101,0-26.976-0.188-27.612-16.587c-1.295-32.779-13.72-182.768-18.867-244.311c14.747,5.02,30.542,7.782,46.988,7.782
		c16.419,0,32.182-2.755,46.907-7.758C-76.885-1106.785-87.522-971.499-88.628-962.964z M-36.268-1439.104
		c21.067,23.296,23.997,51.072,13.489,56.749c-10.591,5.883-30.094-5.9-48.191-21.492c-17.784-15.78-29.297-35.07-21.771-48.463
		c7.33-13.304,35.374-10.22,56.475,13.191"/>
</g>
</svg>
