<?xml version="1.0" encoding="utf-8"?>
<!-- Generator: Adobe Illustrator 16.0.0, SVG Export Plug-In . SVG Version: 6.00 Build 0)  -->
<!DOCTYPE svg PUBLIC "-//W3C//DTD SVG 1.1//EN" "http://www.w3.org/Graphics/SVG/1.1/DTD/svg11.dtd">
<svg version="1.1"
	 id="Layer_2" xmlns:rdf="http://www.w3.org/1999/02/22-rdf-syntax-ns#" xmlns:cc="http://creativecommons.org/ns#" xmlns:dc="http://purl.org/dc/elements/1.1/"
	 xmlns="http://www.w3.org/2000/svg" xmlns:xlink="http://www.w3.org/1999/xlink" x="0px" y="0px" width="1389.724px"
	 height="456.5px" viewBox="0 0 1389.724 456.5" enable-background="new 0 0 1389.724 456.5" xml:space="preserve">
<g>
	<path d="M1378.244,406.846c-5.424,0-8.595-3.943-9.95-5.628c-7.322-9.097-14.659-18.188-21.996-27.28l-8.927-11.048
		c-7.382-9.128-14.764-18.259-22.085-27.437c-1.469-1.843-2.954-2.531-5.473-2.531c-8.597,0.048-17.121,0.061-25.646,0.061
		l-27.713-0.021c-11.43-0.009-18.742-6.663-19.438-17.498c-7.39,0.047-14.7,0.071-22.009,0.071c-7.831,0-15.66-0.029-23.488-0.093
		c-3.841-0.028-7.149-0.664-9.836-1.885c-1.815-0.828-3.415-1.891-4.78-3.159c0.002,0.898,0.002,1.797,0.005,2.694
		c0.005,3.138,0.02,12.684-9.283,17.478c-2.791,1.438-6.188,2.26-9.569,2.315c-5.433,0.087-10.868,0.114-16.301,0.114
		c-0.024,0-0.047,0-0.07,0c-3.735,0-7.471-0.014-11.204-0.024l-5.686-0.018c-8.393-0.021-14.634-3.978-17.426-10.576
		c-2.88,6.894-9.26,10.582-18.654,10.582H988.582c-9.839-0.002-16.441-4.327-18.949-12.126c-1.123,3.427-3.411,7.115-8.081,9.616
		c-2.858,1.53-6.271,2.416-9.363,2.432c-14.526,0.072-29.057,0.096-43.585,0.096c-11.421,0-22.838-0.015-34.26-0.037
		c-8.924-0.016-15.841-5.494-17.63-13.618c-2.065,8.426-8.882,13.627-18.47,13.632c-11.077,0.009-64.393,0.009-64.393,0.009h-12.144
		c-8.096,0-15.12-3.014-20.326-8.715c-16.874-18.467-33.858-37.268-49.699-54.832c-6.095-6.757-4.562-12.896-3.106-15.952
		c1.766-3.705,5.655-8.118,14.157-8.118l23.251-0.007c6.408,0,12.814,0.011,19.222,0.063c-0.108-15.423-0.11-31.284-0.005-48.371
		c-9.799,0.047-19.556,0.073-29.311,0.073c-9.674,0-19.345-0.026-29.019-0.084c0.078,31.734,0.071,63.468,0.064,95.202
		l-0.003,20.669c-0.001,12.938-7.091,20.065-19.963,20.07l-18.512,0.009c-4.783,0-9.564-0.004-14.348-0.015
		c-7.837-0.021-13.896-3.646-16.889-9.595c-2.985,5.816-8.992,9.548-16.407,9.585c-5.344,0.027-10.69,0.038-16.034,0.038
		c-5.727,0-11.452-0.014-17.178-0.033c-5.503-0.02-10.38-1.939-13.736-5.401c-3.042-3.142-4.71-7.302-4.865-12.097
		c-7.23,0.057-14.332,0.07-21.431,0.07l-24.371-0.015c-6.08,0-10.821-1.668-14.166-4.964v2.27
		c0.001,3.128,0.005,12.644-9.047,17.561c-2.869,1.553-6.271,2.466-9.335,2.502c-7.713,0.09-15.429,0.127-23.144,0.127
		c-6.668,0-13.335-0.025-20.003-0.072c-8.639-0.063-15.833-4.175-20.26-11.581c-20.803-34.791-37.603-63.026-52.869-88.854
		c-1.306-2.211-2.142-4.476-2.5-6.697c0.002,12.242,0.011,86.876,0.011,86.876c0.001,3.13,0.006,12.655-8.885,17.604
		c-2.917,1.624-6.334,2.568-9.378,2.594c-10.471,0.083-20.939,0.121-31.406,0.121c-8.584,0-17.167-0.024-25.75-0.075
		c-7.774-0.047-14.613-3.347-19.779-9.545c-11.132-13.364-22.236-26.75-33.34-40.136c-7.28-8.774-14.558-17.55-21.846-26.318
		c-4.79-5.762-3.765-10.762-2.063-13.94c2.023-3.771,5.549-6.021,9.435-6.021c0.997,0,2.003,0.149,2.992,0.439
		c2.747,0.813,5.573,2.712,7.563,5.079c10.204,12.149,20.329,24.363,30.454,36.573l8.906,10.737
		c1.487,1.792,2.981,3.579,4.476,5.366c3.37,4.026,6.854,8.193,10.212,12.379c1.389,1.73,2.801,2.375,5.206,2.375
		c7.952-0.051,15.815-0.064,23.679-0.064l26.453,0.018l0.001-35.968c0.003-45.254,0.006-90.505-0.032-135.758
		c-0.007-8.189,3.061-13.969,9.119-17.181c2.879-1.527,6.284-2.411,9.341-2.429c14.535-0.072,29.068-0.096,43.598-0.096
		c10.994,0,21.983,0.013,32.977,0.033c10.933,0.018,18.603,7.662,18.651,18.585c0.125,27.102,0.123,52.152-0.005,76.585
		c-0.058,10.882-7.895,18.496-19.058,18.517c-6.988,0.013-13.978,0.018-21.003,0.018l-21.45-0.007l15.787,26.541l8.053,13.517
		c7.092,11.893,14.184,23.786,21.207,35.72c0.998,1.696,1.708,1.981,3.335,1.981c6.267-0.072,12.416-0.107,18.565-0.107
		c6.043,0,12.085,0.032,18.128,0.093c-0.065-23.284-0.069-46.564-0.074-69.846c-0.002-15.53-0.005-31.058-0.025-46.586
		c-0.01-8.133,3.129-13.889,9.33-17.112c2.841-1.471,6.241-2.324,9.333-2.342c12.959-0.071,25.918-0.105,38.876-0.105
		c9.913,0,19.823,0.018,29.736,0.056c5.743,0.021,10.792,2.21,14.214,6.167c3.854,4.456,5.424,10.81,4.418,17.895
		c-1.484,10.455-8.505,16.47-19.26,16.503c-7.748,0.027-15.5,0.049-23.248,0.049c-7.64,0-15.277-0.022-22.917-0.087
		c0.149,5.451,0.153,11.249,0.014,17.632c7.8-0.053,15.547-0.074,23.293-0.074c7.658,0,15.315,0.019,22.973,0.043
		c8.972,0.027,16.392,5.248,18.46,12.989c2.973,11.12-0.453,21.06-8.726,25.326c-3.661,1.89-7.771,2.321-10.574,2.351
		c-7.819,0.08-15.637,0.114-23.454,0.114c-7.327,0-14.654-0.029-21.979-0.079c0.138,6.676,0.137,13.287-0.003,19.706
		c7.391-0.048,14.724-0.062,22.058-0.062l23.237,0.02c12.117,0.005,19.181,6.167,20.108,17.426
		c4.209-0.041,8.368-0.063,12.525-0.063c3.959,0,7.917,0.021,11.875,0.063c-0.059-55.326-0.055-104.744,0.014-150.938
		c-9.194,0.036-18.359,0.049-27.523,0.049c-8.387,0-16.77-0.011-25.156-0.029c-9.555-0.021-16.754-5.252-18.343-13.322
		c-0.893-4.532-3.609-18.325,8.501-24.753c2.84-1.505,6.371-2.369,9.692-2.375c31.277-0.065,62.562-0.08,93.838-0.08l54.779,0.011
		c11.562,0.002,18.913,7.363,19.187,19.208c0.087,3.825,0.32,13.978-9.232,18.896c-3.696,1.902-7.78,2.329-10.555,2.354
		c-9.209,0.076-18.42,0.114-27.628,0.114c-8.561,0-17.12-0.033-25.681-0.097c0.091,51.038,0.089,101.819-0.004,150.984
		c4.974-0.096,9.407-0.141,13.516-0.141c4.357,0,8.393,0.05,12.286,0.154c-0.066-28.15-0.065-56.303-0.063-84.454l-0.002-31.454
		c-0.003-8.399,3.109-14.292,9.252-17.51c3.02-1.582,6.436-2.463,9.62-2.482c12.293-0.079,24.589-0.105,36.881-0.105
		c9.941,0,19.876,0.018,29.816,0.042c10.882,0.03,18.546,7.498,18.639,18.164c0.173,19.49,0.173,39.046,0.003,58.128
		c-0.098,10.821-7.711,18.132-18.943,18.189c-4.994,0.027-9.99,0.034-14.982,0.034l-12.217-0.009
		c1.184,1.313,13.744,15.184,13.744,15.184c7.232,7.98,14.465,15.962,21.674,23.965c1.457,1.617,2.92,2.278,5.058,2.278
		c11.598-0.025,23.169-0.041,34.74-0.041c12.411,0,24.82,0.018,37.23,0.061c-0.043-1.491-0.045-3.035-0.005-4.65
		c-3.075,0.024-6.151,0.033-9.226,0.033l-13.017-0.022c-13.401-0.018-20.486-7.152-20.488-20.637
		c-0.004-30.081-0.007-60.164,0.001-90.25c0.004-13.184,7.236-20.444,20.364-20.444h90.567c12.913,0,20.319,7.352,20.319,20.171
		v91.205c-0.001,12.442-7.441,19.901-19.9,19.949l-4.655,0.023c-3.044,0.018-6.088,0.033-9.133,0.033
		c-3.377,0-6.753-0.021-10.128-0.083c0.065,1.575,0.051,3.125,0.014,4.648c11.828-0.021,23.596-0.029,35.364-0.029
		c11.045,0,22.091,0.007,33.134,0.022V138.811c0-13.13,7.247-20.362,20.404-20.364l73.35,0.002c12.495,0,19.957,7.418,19.96,19.841
		c0.006,24.664,0.006,49.324,0,73.988c-0.003,12.448-7.456,19.881-19.933,19.883l-24.88,0.014c-8.324,0-16.645-0.012-24.968-0.054
		c0.071,25.94,0.071,52.085-0.002,77.792c15.396-0.033,30.782-0.052,46.165-0.052c16.125,0,32.247,0.021,48.369,0.063
		c-0.071-36.125-0.066-72.25-0.062-108.375l0.001-21.125c0-13.193,7.163-20.458,20.168-20.458l0.553,0.004
		c3.829,0.058,7.875,0.244,11.555,1.785c4.857,2.034,10.644,6.813,10.635,18.038c-0.022,32.859-0.021,65.718-0.019,98.579
		c0,0,0.003,31.398,0.003,31.495c0.096,0,12.642-0.041,15.123-0.041c3.306,0,6.614,0.019,9.918,0.079
		c-0.047-23.122-0.049-46.238-0.054-69.357c0-15.354-0.003-30.708-0.018-46.062c-0.003-3.288-0.011-13.291,9.424-18.102
		c2.955-1.506,6.366-2.345,9.602-2.363c12.486-0.073,24.978-0.098,37.468-0.098c10.164,0,20.328,0.016,30.494,0.034
		c11.186,0.018,18.66,7.346,19.046,18.67c0.146,4.311,0.491,14.408-9.028,19.355c-3.002,1.557-6.854,2.438-10.849,2.483
		c-7.789,0.09-15.582,0.123-23.377,0.123c-7.359,0-14.719-0.031-22.078-0.076c0.121,5.626,0.123,11.423,0.005,17.611
		c7.606-0.043,15.174-0.057,22.741-0.057l23.177,0.023c7.578,0.008,13.239,2.973,16.822,8.806c2.933,4.771,3.687,11.322,2.02,17.53
		c-1.46,5.436-4.516,9.643-8.602,11.846c-3.913,2.109-8.34,2.465-10.628,2.49c-7.838,0.085-15.679,0.118-23.518,0.118
		c-7.343,0-14.684-0.029-22.021-0.072c0.108,6.078,0.111,12.559,0.004,19.683c7.554-0.032,15.073-0.041,22.593-0.041l22.817,0.014
		c11.984,0.009,18.939,6.181,19.765,17.442c4.831-0.021,9.625-0.025,14.418-0.025l15.796,0.006c6.446,0,12.888-0.011,19.332-0.056
		l0.286-0.002c9.984,0,17.82,3.74,23.959,11.427c17.669,22.132,35.505,44.223,53.01,65.663c3.022,3.701,3.984,8.332,2.568,12.387
		c-1.287,3.689-4.416,6.405-8.368,7.266C1379.886,406.754,1379.053,406.846,1378.244,406.846z M825,282.2
		c3.467,0,6.934,0.018,10.401,0.036l2.838,0.016c9.735,0.049,16.455,5.113,18.483,13.542c1.819-8.08,8.494-13.397,17.385-13.515
		c4.44-0.062,8.883-0.093,13.325-0.093c4.123,0,8.245,0.027,12.369,0.086c-0.087-30.457-0.084-58.384,0.009-85.244
		c-14.199,0.042-28.358,0.065-42.516,0.065c-14.249,0-28.497-0.022-42.744-0.069c0.094,28.6,0.094,57.26,0,85.248
		C818.105,282.218,821.552,282.2,825,282.2z M1176.871,254.809c0.926-0.893,1.95-1.685,3.067-2.357
		c-1.119-0.674-2.146-1.466-3.067-2.36C1176.871,251.663,1176.871,253.235,1176.871,254.809z M489.026,254.634
		c0.84-0.785,1.767-1.479,2.778-2.08c-1.011-0.591-1.939-1.272-2.779-2.042C489.025,251.885,489.026,253.261,489.026,254.634z
		 M351.819,141.499c0.036,26.476,0.05,52.948,0.055,79.424c0.263-1.54,0.783-3.013,1.563-4.389c2.681-4.724,7.953-7.451,14.463-7.48
		c8.239-0.036,16.479-0.06,24.719-0.06c8.953,0,17.904,0.026,26.856,0.093c-0.097-22.431-0.097-45.15,0-67.581
		c-11.254,0.056-22.471,0.085-33.684,0.087C374.467,141.593,363.145,141.562,351.819,141.499z M970.691,218.599
		c3.044-6.176,9.175-9.561,17.808-9.565l24.097-0.014c8.543,0,17.083,0.011,25.626,0.045c-0.092-19.832-0.097-40.862-0.019-67.542
		c-11.329,0.039-22.639,0.065-33.946,0.065c-11.192,0-22.384-0.024-33.576-0.087C970.68,141.501,970.691,217.596,970.691,218.599z
		 M614.285,141.569c0.955,1.051,1.786,2.252,2.49,3.601c0.105,0.204,0.209,0.409,0.309,0.615c0.755-1.582,1.722-2.993,2.886-4.216
		C618.074,141.569,616.18,141.569,614.285,141.569z M1106.558,149.95c-4.94,0-9.63-2.046-13.56-5.917
		c-6.527-6.433-12.365-12.275-17.852-17.856c-7.752-7.881-7.843-18.899-0.221-26.791c6.222-6.444,12.406-12.626,18.383-18.377
		c3.827-3.687,8.406-5.635,13.239-5.635c4.853,0,9.451,1.962,13.297,5.675l0.479,0.461c5.994,5.789,12.194,11.777,17.93,18.107
		c2.107,2.324,3.364,5.08,4.474,7.511c0.419,0.919,0.835,1.837,1.301,2.711l2.599,4.885l-3.205,1.454
		c-0.723,3.753-2.578,7.14-5.536,10.1l-5.243,5.266c-4.184,4.203-8.366,8.408-12.603,12.557c-3.91,3.828-8.571,5.849-13.479,5.849
		C1106.558,149.95,1106.558,149.95,1106.558,149.95z M1096.032,112.655c3.673,3.632,7.11,7.053,10.52,10.528
		c3.547-3.621,7.103-7.158,10.527-10.532c-2.917-2.868-5.791-5.753-8.663-8.639l-1.859-1.861l-2.228,2.23
		C1101.57,107.148,1098.815,109.915,1096.032,112.655z"/>
	<path fill="#FDE209" d="M1096.645,140.334c5.954,5.865,13.78,5.907,19.759,0.056c5.995-5.869,11.878-11.851,17.808-17.785
		c2.736-2.736,4.313-5.99,4.36-9.934c0.29-0.13,0.58-0.26,0.87-0.392c-1.645-3.089-2.758-6.661-5.037-9.176
		c-5.767-6.365-11.979-12.343-18.165-18.317c-5.81-5.605-13.518-5.63-19.329-0.036c-6.196,5.963-12.273,12.056-18.247,18.243
		c-5.672,5.872-5.544,13.714,0.187,19.541C1084.731,128.519,1090.669,134.444,1096.645,140.334z M1090.064,111.235
		c5.169-5.042,10.236-10.189,15.35-15.289c0.362-0.36,0.796-0.644,1.228-0.991c0.487,0.459,0.881,0.81,1.252,1.181
		c5.033,5.029,10.021,10.104,15.126,15.059c1.262,1.223,1.011,1.903-0.083,2.979c-4.923,4.838-9.828,9.697-14.629,14.656
		c-1.408,1.457-2.257,1.284-3.576-0.076c-4.735-4.875-9.567-9.657-14.402-14.433
		C1089.294,113.299,1088.708,112.557,1090.064,111.235z M1379.611,401.497c-3.311,0.721-5.394-1.203-7.268-3.533
		c-7.328-9.103-14.664-18.194-22.004-27.288c-10.338-12.814-20.727-25.589-30.991-38.462c-2.543-3.188-5.597-4.508-9.637-4.485
		c-17.749,0.097-35.502,0.05-53.254,0.038c-9.14-0.006-14.302-4.93-14.301-14.033c0-2.952-1.053-3.497-3.717-3.477
		c-15.624,0.107-31.254,0.116-46.878-0.009c-2.595-0.021-5.406-0.365-7.726-1.42c-4.742-2.156-7.118-6.283-7.174-11.479
		c-0.105-9.78-0.105-19.562-0.006-29.339c0.077-7.686,5.397-12.98,13.104-13.014c16.476-0.074,32.954-0.064,49.429,0.02
		c2.236,0.012,2.995-0.661,2.937-2.885c-0.061-2.264-1.389-2.174-2.972-2.17c-10.1,0.029-20.2,0.016-30.297,0.016
		c-6.271,0-12.544,0.043-18.816-0.013c-8.055-0.069-13.34-5.333-13.396-13.393c-0.061-8.502-0.024-17.007-0.014-25.511
		c0.014-9.057,5.089-14.242,14.144-14.271c16.052-0.051,32.103-0.011,48.154-0.018c1.464,0,3.006,0.32,3.186-2.013
		c0.194-2.532-0.922-2.926-3.169-2.919c-21.26,0.081-42.521,0.105-63.78-0.018c-2.875-0.018-3.542,0.868-3.538,3.605
		c0.079,39.226,0.024,78.45,0.088,117.673c0.009,5.492-1.361,10.221-6.47,12.853c-2.163,1.114-4.827,1.698-7.273,1.739
		c-11.053,0.179-22.109,0.098-33.163,0.07c-8.61-0.02-13.859-5.273-13.864-13.917c-0.014-43.902-0.007-87.804-0.007-131.705
		c0-4.003-2.32-5.637-6.08-4.198c-0.423,0.161-0.8,0.859-0.892,1.362c-0.149,0.825-0.047,1.695-0.047,2.545
		c0,43.582,0.001,87.165,0,130.747c0,10.283-4.902,15.173-15.204,15.173c-33.379,0.002-66.756,0.002-100.134,0
		c-9.961-0.003-14.878-4.867-14.883-14.759c-0.009-27.958-0.009-55.914,0-83.87c0.003-9.909,4.971-14.909,14.802-14.913
		c17.222-0.009,34.44-0.038,51.662,0.04c2.29,0.011,3.276-0.311,3.263-3.013c-0.118-24.023-0.096-48.047-0.021-72.071
		c0.006-2.165-0.463-2.872-2.765-2.863c-24.132,0.087-48.26,0.119-72.389-0.029c-3.105-0.02-2.767,1.521-2.765,3.499
		c0.018,57.72,0.004,115.44,0.031,173.16c0.002,5.434-1.355,10.213-6.418,12.925c-2.06,1.103-4.607,1.804-6.936,1.816
		c-25.937,0.125-51.875,0.106-77.811,0.057c-7.102-0.012-12.307-4.473-12.853-11.482c-0.445-5.697-0.465-11.484-0.029-17.18
		c0.548-7.15,5.529-11.518,12.705-11.613c9.14-0.123,18.284-0.126,27.424,0.021c2.677,0.042,3.407-0.794,3.4-3.438
		c-0.087-29.656-0.096-59.313,0.011-88.972c0.011-2.738-0.798-3.264-3.373-3.254c-29.551,0.093-59.102,0.096-88.653-0.002
		c-2.751-0.009-3.644,0.642-3.635,3.51c0.101,29.551,0.103,59.101,0,88.652c-0.011,2.913,0.962,3.558,3.673,3.508
		c8.392-0.159,16.793-0.09,25.191-0.049c8.807,0.044,13.842,5.013,13.956,13.754c0.056,4.252,0.061,8.507,0,12.757
		c-0.119,8.717-5.241,13.802-13.929,13.805c-25.514,0.019-51.024,0.005-76.536,0.01c-6.5,0.002-12.137-2.257-16.49-7.023
		c-16.631-18.203-33.162-36.497-49.676-54.808c-2.625-2.909-4.11-6.386-2.274-10.239c1.849-3.879,5.362-5.163,9.489-5.159
		c14.669,0.021,29.338-0.063,44.008,0.069c2.717,0.025,3.673-0.559,3.651-3.469c-0.132-17.326-0.121-34.653-0.007-51.979
		c0.017-2.711-0.849-3.347-3.45-3.333c-20.515,0.104-41.031,0.119-61.545-0.011c-2.947-0.018-3.746,0.754-3.738,3.72
		c0.1,39.117,0.068,78.235,0.065,117.354c-0.001,9.994-4.847,14.872-14.771,14.877c-10.948,0.004-21.897,0.02-32.845-0.008
		c-8.502-0.021-13.761-5.139-13.767-13.621c-0.036-53.045-0.035-106.086-0.004-159.129c0.006-8.831,5.145-13.774,14.261-13.794
		c18.497-0.045,36.993-0.007,55.488-0.036c1.354-0.002,3.09,0.568,3.208-1.906c0.098-2.06-0.267-2.961-2.682-2.957
		c-48.474,0.074-96.946,0.063-145.418,0.029c-1.813,0-3.025,0.107-3,2.46c0.026,2.425,1.428,2.407,3.145,2.405
		c18.071-0.018,36.142,0.013,54.213-0.027c5.334-0.011,9.995,1.387,12.604,6.386c1.082,2.078,1.843,4.602,1.846,6.921
		c0.102,53.362,0.097,106.724,0.058,160.088c-0.005,7.807-5.441,13.133-13.288,13.172c-11.054,0.056-22.11,0.045-33.165,0.006
		c-8.245-0.032-13.66-5.291-13.43-13.554c0.096-3.434-1.058-3.983-4.116-3.957c-15.625,0.139-31.252,0.061-46.878,0.067
		c-5.434,0.002-10.242-1.513-12.777-6.67c-1.169-2.374-1.716-5.26-1.782-7.93c-0.216-8.713-0.1-17.433-0.076-26.149
		c0.026-9.49,5.092-14.586,14.512-14.595c15.945-0.014,31.891,0.002,47.834-0.014c1.416-0.003,3.095,0.456,3.207-1.943
		c0.096-2.058-0.355-3.354-2.765-3.051c-0.627,0.08-1.274,0.013-1.911,0.013c-15.733,0-31.464,0.024-47.198-0.012
		c-7.51-0.018-12.799-3.93-13.267-11.317c-0.641-10.149-0.622-20.398-0.002-30.549c0.438-7.156,5.458-10.974,12.643-11.31
		c0.954-0.045,1.913-0.013,2.87-0.013c15.307-0.002,30.615,0.015,45.921-0.025c1.625-0.004,3.714,0.779,3.752-2.351
		c0.037-3.006-1.826-2.512-3.596-2.512c-21.154-0.002-42.308,0.049-63.46-0.065c-2.661-0.016-3.337,0.669-3.332,3.322
		c0.087,39.223,0.053,78.448,0.069,117.673c0.002,5.395-1.271,10.242-6.333,12.992c-2.053,1.113-4.589,1.847-6.916,1.874
		c-14.348,0.168-28.7,0.151-43.05,0.053c-6.889-0.048-12.317-3.16-15.837-9.05c-17.683-29.573-35.323-59.171-52.855-88.833
		c-4.823-8.158-0.445-15.564,9.077-15.606c17.752-0.079,35.504-0.094,53.256,0.047c2.894,0.022,3.51-0.848,3.498-3.597
		c-0.107-23.599-0.107-47.198,0-70.796c0.012-2.729-0.561-3.615-3.475-3.6c-23.704,0.125-47.41,0.13-71.114-0.006
		c-2.901-0.016-3.47,0.816-3.466,3.541c0.078,57.614,0.052,115.229,0.069,172.843c0.002,5.382-1.183,10.26-6.217,13.063
		c-2.042,1.137-4.578,1.92-6.897,1.939c-19.026,0.149-38.054,0.157-57.082,0.045c-6.387-0.037-11.746-2.789-15.819-7.677
		c-18.428-22.122-36.78-44.305-55.182-66.447c-2.063-2.482-3.105-5.129-1.478-8.167c1.338-2.496,3.69-3.847,6.375-3.053
		c1.876,0.555,3.782,1.919,5.058,3.438c13.187,15.703,26.245,31.511,39.341,47.287c4.885,5.888,9.848,11.712,14.633,17.677
		c2.468,3.076,5.446,4.347,9.379,4.319c17.008-0.108,34.016-0.044,51.023-0.047c4.178,0,4.181-0.001,4.181-4.082
		c0-57.613,0.019-115.228-0.032-172.842c-0.004-5.38,1.413-9.965,6.359-12.589c2.068-1.096,4.608-1.81,6.938-1.823
		c25.511-0.125,51.023-0.107,76.536-0.063c7.936,0.014,13.429,5.33,13.466,13.417c0.118,25.511,0.129,51.022-0.005,76.533
		c-0.044,8.167-5.649,13.333-13.874,13.35c-17.002,0.031-34.004,0.009-51.578,0.009c7.034,11.827,13.742,23.111,20.457,34.394
		c9.759,16.397,19.569,32.768,29.247,49.214c1.877,3.19,4.247,4.588,7.993,4.541c12.648-0.152,25.3-0.134,37.947,0
		c2.823,0.032,3.772-0.599,3.763-3.655c-0.114-39.332-0.051-78.662-0.104-117.992c-0.007-5.406,1.583-9.925,6.531-12.495
		c2.08-1.079,4.629-1.745,6.968-1.758c22.855-0.127,45.709-0.134,68.563-0.049c9.533,0.034,15.013,7.538,13.509,18.139
		c-1.122,7.901-5.86,12.012-14.135,12.039c-15.839,0.054-31.678,0.096-47.515-0.051c-3.085-0.029-3.966,0.868-3.868,3.921
		c0.224,6.901,0.189,13.819,0.01,20.725c-0.067,2.624,0.639,3.425,3.335,3.402c16.051-0.123,32.102-0.095,48.154-0.045
		c6.716,0.021,12.001,3.688,13.458,9.137c2.286,8.552,0.108,16.173-6.088,19.367c-2.423,1.25-5.475,1.745-8.249,1.773
		c-15.73,0.161-31.464,0.135-47.196,0.022c-2.583-0.018-3.488,0.577-3.421,3.324c0.192,7.755,0.202,15.521-0.001,23.276
		c-0.076,2.917,0.941,3.536,3.65,3.519c15.624-0.114,31.251-0.063,46.878-0.054c10.013,0.005,14.958,4.739,15.021,14.664
		c0.014,2.31,0.745,2.811,2.907,2.785c9.672-0.109,19.347-0.122,29.019,0.007c2.318,0.032,2.766-0.737,2.763-2.89
		c-0.058-51.768-0.065-103.536,0.014-155.303c0.003-2.667-0.939-3.181-3.335-3.172c-18.176,0.079-36.354,0.067-54.53,0.029
		c-6.921-0.016-12.112-3.315-13.258-9.132c-1.817-9.228-0.612-15.736,5.84-19.162c2.145-1.136,4.829-1.764,7.268-1.769
		c49.536-0.1,99.071-0.083,148.606-0.069c8.793,0.002,13.789,5.232,13.995,14.134c0.134,5.854-0.756,11.243-6.417,14.157
		c-2.418,1.245-5.458,1.754-8.223,1.779c-18.175,0.149-36.354,0.148-54.53,0.009c-3.063-0.022-3.935,0.81-3.929,3.906
		c0.093,51.234,0.095,102.471-0.005,153.708c-0.005,3.146,0.94,3.856,3.937,3.794c9.456-0.194,18.926-0.263,28.378,0.027
		c3.457,0.105,3.889-1.104,3.882-4.11c-0.094-39.012-0.057-78.022-0.068-117.035c-0.002-5.411,1.369-10.233,6.47-12.907
		c2.166-1.134,4.811-1.874,7.242-1.89c22.216-0.141,44.434-0.119,66.65-0.063c7.979,0.022,13.39,5.073,13.459,13.014
		c0.17,19.344,0.176,38.693,0.002,58.037c-0.073,8.062-5.516,13-13.775,13.043c-12.225,0.063-24.449,0.016-36.673,0.02
		c-0.506,0-1.014,0.047-2.086,0.1c3.959,4.393,7.607,8.452,11.271,12.499c10.626,11.741,21.275,23.459,31.875,35.226
		c2.426,2.695,5.29,4.004,8.956,3.995c24.661-0.055,49.322-0.065,73.983,0.028c2.552,0.012,3.382-0.753,3.234-3.245
		c-0.176-2.966-0.152-5.954-0.006-8.926c0.111-2.259-0.777-2.928-2.966-2.9c-8.183,0.097-16.37,0.047-24.554,0.036
		c-10.496-0.014-15.299-4.861-15.301-15.443c-0.005-30.081-0.007-60.164,0-90.247c0.004-10.314,4.926-15.253,15.17-15.253
		c30.188-0.003,60.376-0.004,90.567,0c10.077,0,15.125,4.999,15.125,14.978c0.002,30.401,0.004,60.804,0,91.205
		c-0.002,9.568-5.125,14.719-14.728,14.756c-8.504,0.033-17.011,0.132-25.511-0.061c-3.011-0.069-3.923,0.904-3.675,3.812
		c0.242,2.848,0.121,5.738,0.027,8.605c-0.061,1.853,0.501,2.664,2.519,2.659c24.769-0.048,49.537-0.045,74.303-0.009
		c1.62,0.005,2.4-0.44,2.161-2.158c-0.087-0.625-0.014-1.272-0.014-1.91c0-57.402,0-114.803,0-172.205
		c0-10.273,4.91-15.168,15.213-15.17c24.448-0.002,48.897-0.004,73.346,0.002c9.675,0,14.766,5.051,14.769,14.649
		c0.006,24.661,0.006,49.322,0,73.983c-0.003,9.607-5.105,14.689-14.741,14.691c-17.326,0.005-34.653,0.049-51.979-0.053
		c-2.355-0.016-3.076,0.557-3.067,2.975c0.081,27.41,0.081,54.819-0.002,82.228c-0.007,2.435,0.747,3,3.085,2.996
		c32.845-0.074,65.693-0.08,98.538,0.014c2.643,0.006,3.317-0.649,3.312-3.315c-0.092-43.795-0.067-87.59-0.064-131.385
		c0-10.408,4.956-15.417,15.447-15.26c3.234,0.049,6.727,0.167,9.627,1.382c5.624,2.356,7.451,7.362,7.447,13.242
		c-0.03,43.263-0.017,86.527-0.017,129.792c0,5.48,0,5.48,5.48,5.48c8.822,0,17.648-0.13,26.466,0.074
		c2.924,0.067,3.494-0.91,3.487-3.618c-0.082-39.012-0.037-78.024-0.076-117.034c-0.005-5.639,1.173-10.708,6.591-13.471
		c2.176-1.109,4.828-1.783,7.271-1.796c22.639-0.133,45.282-0.103,67.923-0.064c8.472,0.013,13.573,5.169,13.862,13.653
		c0.201,5.881-0.398,11.538-6.231,14.569c-2.504,1.299-5.646,1.868-8.51,1.899c-15.729,0.179-31.463,0.136-47.194,0.036
		c-2.563-0.016-3.521,0.588-3.445,3.344c0.193,7.223,0.172,14.457,0.005,21.681c-0.057,2.404,0.629,3.014,3,2.998
		c16.048-0.104,32.103-0.064,48.151-0.047c5.19,0.006,9.549,1.684,12.406,6.332c4.173,6.791,1.926,18.553-4.624,22.084
		c-2.394,1.291-5.453,1.839-8.218,1.868c-15.837,0.173-31.676,0.132-47.515,0.033c-2.428-0.016-3.267,0.537-3.208,3.13
		c0.182,7.97,0.154,15.946,0.014,23.916c-0.043,2.44,0.81,3.063,3.12,3.049c15.839-0.078,31.678-0.047,47.518-0.038
		c9.689,0.007,14.56,4.655,14.653,14.296c0.024,2.601,0.933,3.17,3.354,3.156c17.11-0.092,34.228,0.036,51.341-0.086
		c8.319-0.061,14.889,2.881,20.149,9.474c17.563,21.997,35.243,43.902,53.047,65.707
		C1386.222,394.773,1384.581,400.415,1379.611,401.497z"/>
</g>
<g id="Layer_5_1_" transform="matrix(0.4161329,0,0,0.4161329,197.98398,622.57578)">
	<path id="path136_1_" fill="#010101" d="M171.155-879.915c-0.034,0.028-0.066,0.066-0.1,0.099
		c-0.089,0.089-0.164,0.164-0.176,0.178c0.09-0.092,0.181-0.183,0.28-0.282 M171.169-879.929l-0.007,0.014l0.011-0.014H171.169z
		 M171.179-879.939c-0.006,0-0.009,0.005-0.014,0.009l0.009-0.009H171.179z M171.229-879.99c-0.041,0.04-0.116,0.122-0.215,0.216
		l0.046-0.042c0.06-0.061,0.121-0.122,0.17-0.169 M171.26-880.028c-0.012,0.016-0.021,0.023-0.033,0.038
		c0.007-0.009,0.019-0.019,0.025-0.023v-0.019 M171.261-880.042l-0.019,0.023c-0.027,0.021-0.049,0.047-0.073,0.07
		c0.07-0.049,0.09-0.089,0.09-0.089 M-441.968-883.177c17.657,47.266,65.463,175.242,71.731,192.03
		c28.327,75.831,130.908,113.44,233.848,113.44c103.79,0,207.93-38.201,236.77-113.97c6.722-17.662,55.294-145.25,72.859-191.378
		c-0.439,1.143-613.192,5.383-615.254-0.117 M-442.034-883.21c0.005,0.012,0.007,0.019,0.012,0.033c0,0,0-0.021-0.008-0.031"/>
	<path id="path136_2_" fill="#991A37" d="M154.888-863.967l-25.55,67.112L90.69-695.352c-12.529,32.925-41.867,60.466-84.84,79.649
		c-39.984,17.854-90.518,27.678-142.291,27.678c-51.394,0-101.36-9.725-140.68-27.377c-42.34-19.009-71.217-46.452-83.509-79.358
		c-5.423-14.522-41.953-112.32-63.132-169.018c3.761,0.53,573.117,0.495,578.655-0.185"/>
	<path id="path138_1_" fill="#010101" d="M-159.835-1088.697c-9.962,0-18.968,3.825-28.734,4.46
		c-9.52,0.617-19.023-1.013-28.559-0.28c-12.162,0.934-22.501,7.532-34.859,7.532c-11.376,0-23.208-0.203-33.622,5.211
		c-17.006,8.84-42.183,3.269-56.24,17.807c-11.356,11.743-32.775,5.832-45.748,18.109c-3.358,3.18-3.873,8.486-8.141,9.949
		c-4.792,1.657-9.791,2.674-14.599,4.292c-9.433,3.173-19.497,8.64-23.161,18.544c-2.354,6.353,0.823,7.193-5.599,9.833
		c-4.434,1.826-8.757,3.973-12.563,6.925c-6.971,5.409-8.832,12.847-9.84,21.696c-0.077,0.662,0.094,11.999,0.106,11.987
		c-3.357,2.725-6.313,6.008-8.458,9.781c-5.076,8.948-4.088,18.476-0.324,27.776c4.087,10.084,7.542,13.895,7.953,24.277
		c-0.438,4.973,1.962,10.15,3.776,14.599c7.728,18.976,12.127,33.46,35.171,33.951c4.657,0.099,6.849,18.391,8.581,22.998
		c4.277,11.37,14.517,19.194,26.056,22.285c15.607,4.187,40.228-5.062,47.201,13.151c7.907,20.647,32.447,28.281,52.705,26.629
		c16.365-1.34,40.41-11.703,53.776,3.492c15.451,17.561,41.698,21.994,63.563,16.237c20.046-5.273,34.754-17.441,56.422-9.103
		c23.917,9.213,46.034,17.345,70.708,3.924c17.361-9.448,23.795-22.599,46.377-18.783c19.917,3.389,38.953,7.594,57.364-3.966
		c13.434-8.425,13.795-27.875,29.879-29.776c14.16-1.671,27.922,1.685,41.349-5.308c16.229-8.446,20.006-26.8,23.613-43.227
		c14.287-2.119,26.658-5.996,31.884-21.252c3.269-7.219,6.613-15,7.681-22.923c0.476-3.154,0.333-6.378-0.366-9.49
		c2.349-3.046,4.71-5.759,6.381-9.274c8.054-16.981,6.186-36.802-10.221-47.698c4.34-15.55-0.535-26.544-14.705-34.753
		c-7.16-4.149-11.099-3.471-13.245-11.289c-2.022-7.248-5.34-12.932-11.707-16.667c-8.204-4.811-17.501-5.706-26.13-9.272
		c-3.546-9.23-12.568-14.694-21.549-17.657c-7.43-2.45-15.186-2.774-22.69-4.777c-7.714-2.069-12.072-9.266-19.985-12.142
		c-8.574-3.115-17.676-3.399-26.646-4.345c-9.659-1.015-16.372-6.877-25.515-9.249c-9.656-2.538-19.139-1.883-28.926-2.475
		c-9.839-0.59-18.166-5.734-27.864-6.973c-7.696-0.983-15.402-0.33-23.112-0.022c-10.538,0.414-20.038-2.909-30.372-4.197
		c-9.741-1.212-19.262,0.61-28.933,1.559c-9.59,1-18.55-2.1-28.12-2.1"/>
	<path id="path140_1_" fill="#991A37" d="M-189.886-747.896c-12.885,0-26.496-4.264-35.356-14.538
		c-6.937-8.047-17.443-11.431-27.48-12.487c-14.401-1.523-27.387,4.708-41.594,4.708c-12.587,0-27.231-4.288-33.934-16.477
		c-2.552-4.67-2.533-10.178-6.465-13.984c-5.155-5.05-12.601-7.327-19.449-8.181c-13.502-1.671-26.768,2.607-39.28-5.325
		c-4.993-3.161-8.803-8.148-10.083-14.226c-0.857-3.175-6.136-21.424-6.87-25.298c-1.083-5.705-18.449-1.814-24.282-5.144
		c-5.298-3.025-7.953-11.07-9.65-14.829c-1.698-3.755-6.909-15.456-7.246-19.126c0.867-1.746,19.926-5.684,19.926-5.684
		s-3.331-0.939-9.156-2.943c-5.827-2.004-12.635-7.824-14.334-11.095c-1.704-3.271-9.76-17.336-7.263-24.467
		c3.688-4.614,22.306-4.13,26.413-7.566c-0.956-1.164-11.342-8.88-12.512-10.478c-4.007-5.469-3.078-17.564,1.069-22.504
		c4.365-5.2,23.397-2.584,30.111-6.532c2.597-1.53-9.324-0.8-6.985-2.781c3.017-2.55,1.82-11.06,2.274-14.706
		c1.87-14.972,558.895-14.627,565.095-9.226c4.392,3.83,7.937,3.925,8.824,10.428c0.401,2.942,1.474,16.975,3.742,16.71
		c5.853,2.628,16.892,0.327,22.193,6.687c2.323,2.789,4.19,5.246,2.932,10.009c-1.261,4.763-5.561,19.452-4.405,20.339
		c5.54,4.232,14.306,2.876,16.757,8.996c2.626,6.576-0.982,21.346-4.858,25.692c-1.157,1.291-7.269,9.176-7.457,10.692
		c2.875,3.947,2.74,4.879,2.608,7.683c-0.135,2.811-2.175,10.499-7.061,21.398c-4.549,14.747-21.908,11.708-32.966,15.55
		c-1.069,5.881-6.274,30.94-10.833,36.825c-9.048,11.663-24.17,10.772-36.975,10.354c-6.495-0.209-13.17,0.739-19.194,3.361
		c-2.782,1.211-5.467,2.811-7.681,4.961c-2.95,2.858-3.443,5.914-4.602,9.72c-4.106,13.438-17.961,19.544-30.333,20.703
		c-10.355,0.962-19.423-2.164-29.461-3.9c-9.758-1.69-20.108-1.094-29.509,2.22c-4.438,1.568-8.81,3.806-12.298,7.125
		c-3.275,3.126-5.869,6.604-9.642,9.181c-8.248,5.644-18.268,8.049-28.034,8.049c-9.987,0-20.048-2.525-28.776-7.66
		c-8.593-5.027-18.766-6.942-28.515-6.942c-9.746,0.009-19.944,1.906-28.517,6.975c-8.741,5.121-18.84,7.669-28.86,7.669"/>
	<path id="path142_1_" fill="#CB2027" d="M-191.175-780.136c-13.185,0-27.115-3.877-36.178-13.198
		c-7.104-7.303-17.852-10.377-28.119-11.337c-14.74-1.378-28.026,4.278-42.568,4.278c-12.873,0-27.858-3.896-34.72-14.963
		c-2.612-4.238-2.591-9.242-6.618-12.696c-5.272-4.586-12.893-6.651-19.898-7.418c-13.815-1.528-27.389,2.363-40.186-4.846
		c-5.116-2.868-9.156-7.369-10.322-12.912c-0.554-2.68-0.42-5.428,0.278-8.068c0.699-2.607,2.193-4.97,0.974-7.664
		c-2.212-4.895-9.21-6.935-14.307-7.735c-6.532-1.033-12.851-1.136-18.82-4.163c-5.42-2.746-9.606-7.542-9.876-13.461
		c-0.303-6.665,3.966-11.084,8.197-15.864c4.289-4.837,1.448-8.181-4.365-9.601c-6.165-1.502-12.453-4.832-14.381-10.882
		c-2.022-6.313,1.808-12.365,6.733-16.45c4.248-3.518,10.821-5.555,13.597-10.43c0.947-1.666-4.676-4.147-5.874-5.596
		c-4.101-4.968-2.842-11.363,1.401-15.843c4.465-4.723,10.646-7.061,16.697-9.46c2.817-1.11,5.59-2.468,7.985-4.268
		c3.083-2.317,0.834-2.701,0.216-5.99c-2.719-14.435,20.034-17.493,29.847-20.946c2.929-1.028,5.928-2.274,8.385-4.112
		c1.495-1.118,1.359-5.067,2.661-6.895c3.423-4.797,9.902-7.215,15.598-8.759c6.362-1.718,13.022-2.029,19.362-3.845
		c3.045-0.872,6.321-1.914,8.887-3.717c2.125-1.467,3.141-4.323,5.609-5.881c12.319-7.795,28.236-4.428,41.69-9.023
		c4.798-1.637,8.075-5.177,13.025-6.752c6.719-2.13,14.104-2.803,21.163-2.471c6.267,0.311,12.778-0.317,18.836-1.866
		c5.408-1.374,9.926-4.238,15.558-5.218c12.499-2.164,24.897,1.18,37.431-0.745c5.481-0.844,10.478-3.004,16.034-3.627
		c6.563-0.729,13.447-0.56,19.858,0.962c13,3.127,25.075-1.413,37.982-1.279c9.632,0.1,17.995,3.816,27.432,4.615
		c11.546,0.973,22.802-1.801,34.3,0.596c5.246,1.094,9.563,3.88,14.713,5.112c6.42,1.529,12.927,1.811,19.511,1.67
		c5.922-0.124,11.959,0.453,17.662,1.982c6.247,1.653,10.408,5.941,16.432,7.77c13.406,4.059,30.233,0.78,41.769,9.673
		c2.24,1.72,3.071,4.328,5.555,5.659c2.576,1.394,5.459,2.349,8.309,3.133c4.968,1.352,10.104,1.741,15.127,2.821
		c5.753,1.238,11.87,3.116,16.39,6.798c2.396,1.948,4.251,4.541,4.61,7.541c0.316,2.72,3.342,3.777,5.909,4.913
		c8.203,3.612,17.325,4.24,25.103,8.891c4.941,2.959,9.407,7.842,8.142,13.697c-0.513,2.363-2.481,3.201-0.358,4.968
		c2.56,2.132,5.711,3.663,8.86,4.912c9.348,3.702,26.802,11.919,19.043,24.108c-1.436,2.254-3.641,3.98-6.111,5.198
		c-1.754,0.868,0.292,2.474,1.271,3.461c4.392,4.424,10.747,6.47,14.991,11.14c4.087,4.454,6.011,10.631,2.93,16.066
		c-3.465,6.111-9.862,6.768-15.931,9.371c-6.617,2.842-2.177,7.477,1.126,10.908c4.541,4.715,7.547,11.154,5.341,17.488
		c-4.655,13.395-20.871,11.187-32.182,14.674c-5.314,1.638-11.682,5.543-9.094,11.565c2.721,6.327,1.956,13.414-2.707,18.755
		c-9.252,10.591-24.732,9.777-37.834,9.401c-6.646-0.185-13.479,0.671-19.641,3.051c-2.844,1.101-5.59,2.551-7.858,4.501
		c-3.017,2.598-3.519,5.372-4.709,8.824c-4.199,12.198-18.379,17.746-31.041,18.797c-10.594,0.873-19.871-1.967-30.138-3.544
		c-9.991-1.53-20.581-1.002-30.204,2.011c-4.54,1.422-9.014,3.459-12.582,6.472c-3.355,2.835-6.008,5.994-9.866,8.336
		c-8.44,5.121-18.698,7.308-28.684,7.308c-10.218,0-20.514-2.297-29.447-6.96c-8.792-4.555-19.201-6.299-29.175-6.299
		c-9.977,0.007-20.411,1.727-29.181,6.341c-8.969,4.698-19.302,7.012-29.561,7.012"/>
	<path fill="#FFCD05" d="M6.426-912.298c0.023-9.394-6.373-17.739-18.014-23.531c-1.176-0.685-2.341-1.155-3.187-1.455
		c-9.482-4.036-20.596-6.167-32.162-6.167c-11.486,0-22.564,2.098-32.038,6.073c-12.509,5.257-19.981,13.306-21.035,22.665
		c-0.368,3.257,2.018,32.047,2.018,32.047c0.202,4.107,0.473,5.132,2.09,7.833c0.279,0.467,0.624,1.047,1.057,1.826
		c3.912,7.099,11.315,12.91,21.413,16.805c8.273,3.189,17.582,4.874,26.928,4.874l-0.006,0.005c12.108,0,23.531-2.76,33.034-7.998
		c6.208-3.419,16.721-11.006,17.355-23.404C3.981-884.599,6.424-909.972,6.426-912.298z"/>
	<path d="M11.585-912.296c0.029-11.405-7.327-21.362-20.723-28.07c-1.388-0.798-2.74-1.359-3.762-1.725
		c-10.078-4.262-21.837-6.51-34.029-6.51l-0.005-0.007c-12.166,0-23.935,2.241-34.034,6.482
		c-14.308,6.01-22.891,15.543-24.163,26.849c-0.149,1.326-0.169,2.638-0.108,3.938l-0.021,0.094l0.039,0.516
		c0.008,0.117,0.015,0.239,0.027,0.359l2.051,27.95c0.229,4.663,0.628,6.573,2.815,10.234c0.257,0.427,0.575,0.953,0.974,1.683
		c4.498,8.162,12.823,14.773,24.061,19.112c8.864,3.415,18.815,5.219,28.784,5.219c12.976,0,25.258-2.985,35.517-8.634
		c12.343-6.792,19.452-16.62,20.019-27.668c0.088-1.631,0.158-2.159,0.252-2.821c0.154-1.119,0.293-2.229,0.421-4.534l1.557-18.558
		C11.459-909.67,11.583-910.972,11.585-912.296z M-94.88-914.122c0.832-7.425,7.206-14.001,17.907-18.488
		c8.864-3.713,19.255-5.672,30.042-5.672v-0.009c10.958,0,21.406,2.009,30.311,5.825c0.834,0.286,1.768,0.69,2.576,1.178
		c6.281,3.095,15.349,9.239,15.324,18.985c-0.005,3.947-1.622,7.737-4.638,11.14l-4.007,2.985c-2.478,2.164-5.338,4.029-8.481,5.578
		c-0.291,0.129-0.571,0.263-0.868,0.387c-8.863,3.715-19.259,5.677-30.067,5.677c-11.271,0-21.987-2.126-31.022-6.16
		c-0.25-0.124-0.509-0.23-0.755-0.357c-2.953-1.521-5.606-3.3-7.882-5.29l-5.129-4.487C-94.157-906.326-95.33-910.158-94.88-914.122
		z M-1.265-883.004c-0.447,8.697-7.545,15.233-14.697,19.168c-9.051,4.98-19.81,7.355-30.543,7.355
		c-8.682,0-17.351-1.554-25.074-4.534c-7.337-2.828-14.848-7.399-18.752-14.482c-2.205-3.982-2.301-3.053-2.512-7.425
		c-0.115-2.342-0.232-4.686-0.346-7.029c3.044,2.422,6.607,4.6,10.667,6.449c0.196,0.089,0.405,0.164,0.603,0.253
		c10.348,5.041,22.443,7.73,35.137,7.73c12.479,0,24.514-2.591,34.814-7.486c0.265-0.127,0.508-0.27,0.77-0.399
		c4.008-1.812,7.548-3.914,10.562-6.275C-0.85-886.399-1.057-886.878-1.265-883.004z"/>
	<path fill="#669A40" d="M109.873-965.087c0.02-9.394-6.376-17.745-18.022-23.532c-1.184-0.69-2.34-1.162-3.175-1.455
		c-9.495-4.035-20.614-6.166-32.167-6.166c-11.478,0-22.552,2.099-32.032,6.078c-12.51,5.25-19.984,13.3-21.043,22.671
		c-0.358,3.192,2.021,32.047,2.021,32.047c0.205,4.1,0.478,5.13,2.093,7.829c0.278,0.467,0.623,1.047,1.055,1.823
		c3.917,7.099,11.32,12.905,21.412,16.798c8.277,3.194,17.585,4.877,26.929,4.877l0.007,0.021c12.109,0,23.531-2.76,33.028-8.007
		c6.207-3.426,16.717-11.02,17.344-23.402C107.425-937.369,109.869-962.386,109.873-965.087z"/>
	<path d="M115.028-965.086c0.022-11.405-7.336-21.372-20.737-28.077c-1.393-0.794-2.734-1.354-3.742-1.717
		c-10.091-4.21-21.853-6.511-34.037-6.511l-0.004-0.007c-12.154,0-23.919,2.241-34.028,6.478
		C8.172-988.91-0.41-979.38-1.686-968.071c-0.108,0.948-0.143,1.887-0.142,2.821l-0.014,0.047c0,0,0.009,0.124,0.026,0.327
		c0.018,1.063,0.101,2.118,0.252,3.16c0.757,9.223,2.912,33.777,4.682,36.748c0.258,0.425,0.576,0.957,0.974,1.68
		c4.502,8.162,12.825,14.775,24.066,19.112c8.859,3.415,18.815,5.217,28.784,5.217c12.974,0,25.257-2.983,35.518-8.629
		c12.346-6.81,19.45-16.634,20.011-27.68c0.088-1.603,0.162-2.133,0.252-2.8c0.161-1.164,0.296-2.234,0.42-4.562l1.557-18.551
		C114.903-962.464,115.027-963.764,115.028-965.086z M8.563-966.907c0.839-7.432,7.206-14.002,17.909-18.496
		c8.867-3.72,19.255-5.679,30.043-5.679l-0.005,0.004c10.959,0,21.406,2.008,30.313,5.827c0.837,0.284,1.765,0.69,2.572,1.178
		c6.279,3.091,15.344,9.238,15.324,18.983c-0.004,3.953-1.627,7.749-4.656,11.158l-3.991,2.975c-2.466,2.146-5.3,4-8.412,5.541
		c-0.312,0.141-0.616,0.284-0.935,0.418c-8.867,3.715-19.267,5.674-30.07,5.674c-11.237,0-21.914-2.112-30.934-6.12
		c-0.272-0.136-0.559-0.253-0.828-0.392c-2.954-1.517-5.611-3.3-7.898-5.293l-5.074-4.42C9.302-959.069,8.115-962.926,8.563-966.907
		z M102.176-935.796c-0.441,8.697-7.54,15.228-14.686,19.173c-9.055,4.98-19.815,7.345-30.548,7.345
		c-8.683,0-17.352-1.549-25.076-4.529c-7.337-2.826-14.85-7.404-18.753-14.477c-2.2-3.98-2.294-3.053-2.512-7.425
		c-0.12-2.344-0.235-4.689-0.351-7.033c3.044,2.427,6.606,4.604,10.667,6.454c0.216,0.101,0.444,0.183,0.662,0.277
		c10.332,5.022,22.413,7.702,35.085,7.702c12.48,0,24.513-2.591,34.813-7.486c0.251-0.117,0.48-0.251,0.726-0.373
		c4.025-1.816,7.579-3.928,10.6-6.294C102.595-939.19,102.386-939.671,102.176-935.796z"/>
	<path d="M-137.339-1493.735c-75.691,0-137.048,61.358-137.048,137.039c0,54.777,32.155,102.032,78.613,123.97
		c3.629,43.22,12.914,154.826,16.708,209.947c-25.629,6.53-42.968,19.012-42.968,33.344c0,21.084,37.51,38.177,83.777,38.177
		c46.266,0,83.773-17.093,83.773-38.177l-0.004-0.021c0-13.97-16.514-26.192-41.133-32.842
		c4.452-54.103,13.243-167.209,16.588-210.375c46.513-21.913,78.724-69.199,78.724-124.021v-0.04
		C-0.309-1432.337-61.676-1493.735-137.339-1493.735z"/>
	<path id="path168_1_" fill="#CB2027" d="M-46.917-1274.697c-48.802,48.809-127.462,49.283-175.682,1.071
		c-48.221-48.228-47.747-126.89,1.057-175.69c48.804-48.807,127.47-49.281,175.69-1.057c48.212,48.2,47.735,126.9-1.073,175.7"/>
	<path fill="#FFFFFF" d="M-111.798-994.931c-0.558,3.189-3.75,6.735-8.339,9.264c-4.5,2.469-10.944,3.884-17.681,3.884
		c-1.035,0-25.351-0.176-25.949-15.588c-1.217-30.805-12.893-171.76-17.73-229.597c13.86,4.717,28.702,7.314,44.158,7.314
		c15.429,0,30.244-2.589,44.081-7.291C-100.763-1130.091-110.76-1002.952-111.798-994.931z M-62.593-1442.395
		c19.798,21.892,22.551,47.994,12.677,53.33c-9.954,5.529-28.282-5.543-45.289-20.196c-16.711-14.828-27.532-32.958-20.457-45.546
		c6.89-12.501,33.241-9.602,53.072,12.398"/>
</g>
</svg>
