<?xml version="1.0" encoding="utf-8"?>
<!-- Generator: Adobe Illustrator 19.1.0, SVG Export Plug-In . SVG Version: 6.00 Build 0)  -->
<svg version="1.1" id="TEXT" xmlns="http://www.w3.org/2000/svg" xmlns:xlink="http://www.w3.org/1999/xlink" x="0px" y="0px"
	 viewBox="251 -47 566.6 158" style="enable-background:new 251 -47 566.6 158;" xml:space="preserve">
<linearGradient id="mameGrad" gradientUnits="userSpaceOnUse" x1="817.6116" y1="31.9965" x2="252.835" y2="31.9965">
	<stop  offset="0" style="stop-color:#013A67"/>
	<stop  offset="1" style="stop-color:#6CD1FF"/>
</linearGradient>
<path fill="url(#mameGrad)" d="M728.4-46.7l-77.3,79.3v-79.3L599.5,4.7v-51.4L506,46v-92.7l-83.4,82.5c0,0,0-82.5,0-82.5L371.1,4.4v0v-51.1
	L252.8,72.7H300h0l47.9-48.8l0.1,0c0,0,0,48.1,0,49c0,1.1,0.8,1.1,0.8,1.1l0,0c0,0,0.9,0.1,1.2-0.3c0.4-0.4,41.9-41.9,41.9-41.9v0v0
	v35L348,111h47.8c0,0,79.1-78.9,79.1-78.9v38.5c0,1.3,0.8,1.8,0.8,1.8v0c0,0,0.5,0.3,0.8,0.3h51.5l48.4-48.2v48.7
	c0,0.6,0.6,0.7,0.6,0.7l0,0c0,0,0.5,0.1,1-0.4l42.1-42.1V64l-7,8.7h122.5l28.8-29.5c0.6-0.8,0.2-1.2,0.2-1.2l0,0
	c0,0-0.1-0.4-0.7-0.4h-77.7L699.9,28h24.7L754-2H731l12.7-13.5H790l27.6-31.3C818.2-47.3,728.4-46.7,728.4-46.7z"/>
<path d="M251,95.3v-9.5h2.9l1.7,6.5l1.7-6.5h2.9v9.5h-1.8v-7.5l-1.9,7.5h-1.9l-1.9-7.5v7.5H251z M268.2,85.8h1.9v5.2
	c0,0.8,0,1.4,0.1,1.6c0.1,0.4,0.3,0.7,0.6,0.9s0.7,0.4,1.3,0.4c0.5,0,1-0.1,1.2-0.3c0.3-0.2,0.4-0.5,0.5-0.8
	c0.1-0.3,0.1-0.9,0.1-1.6v-5.3h1.9v5c0,1.1-0.1,1.9-0.2,2.4c-0.1,0.5-0.3,0.9-0.6,1.2c-0.3,0.3-0.7,0.6-1.1,0.8
	c-0.5,0.2-1.1,0.3-1.8,0.3c-0.9,0-1.6-0.1-2.1-0.3c-0.5-0.2-0.8-0.5-1.1-0.8c-0.3-0.3-0.5-0.7-0.5-1.1c-0.1-0.5-0.2-1.4-0.2-2.4
	C268.2,90.8,268.2,85.8,268.2,85.8z M284,95.3v-9.4h1.9v7.8h4.8v1.6L284,95.3L284,95.3z M299.4,95.3v-7.9h-2.8v-1.6h7.6v1.6h-2.8
	v7.9H299.4z M311.4,95.3v-9.5h1.9v9.5H311.4z M321.3,95.3v-9.5h3.1c1.2,0,1.9,0,2.3,0.1c0.5,0.1,1,0.5,1.4,0.9
	c0.4,0.5,0.6,1.1,0.6,1.9c0,0.6-0.1,1.1-0.3,1.5c-0.2,0.4-0.5,0.7-0.8,0.9c-0.3,0.2-0.7,0.4-1,0.5c-0.5,0.1-1.1,0.1-2,0.1h-1.3v3.6
	L321.3,95.3L321.3,95.3z M323.2,87.4v2.7h1.1c0.8,0,1.3-0.1,1.5-0.1c0.3-0.1,0.5-0.3,0.6-0.5c0.1-0.2,0.2-0.5,0.2-0.7
	c0-0.3-0.1-0.6-0.3-0.9c-0.2-0.2-0.5-0.4-0.8-0.4c-0.2,0-0.7-0.1-1.4-0.1L323.2,87.4L323.2,87.4z M336.4,95.3v-9.4h1.9v7.8h4.8v1.6
	L336.4,95.3L336.4,95.3z M350.6,95.3v-9.5h7.1v1.6h-5.1v2.1h4.8v1.6h-4.8v2.6h5.3v1.6L350.6,95.3L350.6,95.3z M441,95.3h-2.1
	l-0.8-2.2h-3.8l-0.8,2.2h-2l3.7-9.5h2L441,95.3z M437.4,91.5l-1.3-3.5l-1.3,3.5H437.4z M448.1,95.3v-9.5h4c1,0,1.8,0.1,2.2,0.3
	c0.5,0.2,0.8,0.5,1.1,0.9c0.3,0.4,0.4,0.9,0.4,1.5c0,0.7-0.2,1.3-0.6,1.8c-0.4,0.5-1,0.8-1.9,0.9c0.4,0.2,0.8,0.5,1,0.8
	c0.3,0.3,0.6,0.8,1.1,1.5l1.2,1.9h-2.3l-1.4-2.1c-0.5-0.7-0.8-1.2-1-1.4c-0.2-0.2-0.4-0.3-0.6-0.4c-0.2-0.1-0.5-0.1-1-0.1H450v4
	L448.1,95.3L448.1,95.3z M450,89.8h1.4c0.9,0,1.5,0,1.7-0.1c0.2-0.1,0.4-0.2,0.5-0.4c0.1-0.2,0.2-0.4,0.2-0.7c0-0.3-0.1-0.6-0.3-0.8
	c-0.2-0.2-0.4-0.3-0.7-0.4c-0.2,0-0.6,0-1.4,0H450V89.8L450,89.8z M469.9,91.8l1.9,0.6c-0.3,1-0.8,1.8-1.4,2.3
	c-0.7,0.5-1.5,0.8-2.5,0.8c-1.3,0-2.3-0.4-3.1-1.3c-0.8-0.9-1.2-2-1.2-3.5c0-1.6,0.4-2.8,1.2-3.7c0.8-0.9,1.9-1.3,3.2-1.3
	c1.2,0,2.1,0.3,2.8,1c0.4,0.4,0.8,1,1,1.8l-1.9,0.5c-0.1-0.5-0.3-0.9-0.7-1.2c-0.4-0.3-0.8-0.4-1.3-0.4c-0.7,0-1.3,0.3-1.7,0.8
	c-0.4,0.5-0.7,1.3-0.7,2.5c0,1.2,0.2,2.1,0.7,2.6c0.4,0.5,1,0.8,1.7,0.8c0.5,0,1-0.2,1.3-0.5C469.5,93,469.8,92.5,469.9,91.8z
	 M488.2,95.3h-2.1l-0.8-2.2h-3.8l-0.8,2.2h-2l3.7-9.5h2L488.2,95.3z M484.6,91.5l-1.3-3.5l-1.3,3.5H484.6z M495.3,85.8h3.5
	c0.8,0,1.4,0.1,1.8,0.2c0.6,0.2,1,0.5,1.4,0.9c0.4,0.4,0.7,0.9,0.9,1.5c0.2,0.6,0.3,1.4,0.3,2.3c0,0.8-0.1,1.5-0.3,2
	c-0.2,0.7-0.6,1.3-1,1.7c-0.3,0.3-0.8,0.6-1.4,0.8c-0.4,0.1-1,0.2-1.7,0.2h-3.6L495.3,85.8L495.3,85.8L495.3,85.8z M497.2,87.4v6.3
	h1.4c0.5,0,0.9,0,1.2-0.1c0.3-0.1,0.6-0.2,0.8-0.4c0.2-0.2,0.4-0.5,0.5-0.9c0.1-0.4,0.2-1,0.2-1.7c0-0.7-0.1-1.3-0.2-1.7
	c-0.1-0.4-0.3-0.7-0.5-0.9c-0.2-0.2-0.5-0.4-0.9-0.4c-0.3-0.1-0.8-0.1-1.6-0.1L497.2,87.4L497.2,87.4z M511.1,95.3v-9.5h7.1v1.6H513
	v2.1h4.8v1.6H513v2.6h5.3v1.6L511.1,95.3L511.1,95.3z M534.2,95.3v-9.5h2.9l1.7,6.5l1.7-6.5h2.9v9.5h-1.8v-7.5l-1.9,7.5h-1.9
	l-1.9-7.5v7.5H534.2z M560,95.3h-2.1l-0.8-2.2h-3.8l-0.8,2.2h-2l3.7-9.5h2L560,95.3z M556.5,91.5l-1.3-3.5l-1.3,3.5H556.5z
	 M573.2,91.8l1.9,0.6c-0.3,1-0.8,1.8-1.4,2.3c-0.7,0.5-1.5,0.8-2.5,0.8c-1.3,0-2.3-0.4-3.1-1.3c-0.8-0.9-1.2-2-1.2-3.5
	c0-1.6,0.4-2.8,1.2-3.7c0.8-0.9,1.9-1.3,3.2-1.3c1.2,0,2.1,0.3,2.8,1c0.4,0.4,0.8,1,1,1.8l-1.9,0.5c-0.1-0.5-0.3-0.9-0.7-1.2
	c-0.4-0.3-0.8-0.4-1.3-0.4c-0.7,0-1.3,0.3-1.7,0.8c-0.4,0.5-0.7,1.3-0.7,2.5c0,1.2,0.2,2.1,0.6,2.6c0.4,0.5,1,0.8,1.7,0.8
	c0.5,0,0.9-0.2,1.3-0.5C572.8,93,573.1,92.5,573.2,91.8z M582.9,95.3v-9.5h1.9v3.7h3.8v-3.7h1.9v9.5h-1.9v-4.2h-3.8v4.2H582.9z
	 M598.6,95.3v-9.5h1.9v9.5H598.6z M608.5,95.3v-9.5h1.9l3.9,6.4v-6.4h1.8v9.5h-1.9l-3.8-6.2v6.2H608.5z M624.2,95.3v-9.5h7.1v1.6
	h-5.1v2.1h4.8v1.6h-4.8v2.6h5.3v1.6L624.2,95.3L624.2,95.3z M648.1,95.3v-9.5h7.1v1.6H650v2.1h4.8v1.6H650v2.6h5.3v1.6L648.1,95.3
	L648.1,95.3z M663.1,95.3v-9.5h2.9l1.7,6.5l1.7-6.5h2.9v9.5h-1.8v-7.5l-1.9,7.5h-1.9l-1.9-7.5v7.5H663.1z M680.3,85.8h1.9v5.2
	c0,0.8,0,1.4,0.1,1.6c0.1,0.4,0.3,0.7,0.6,0.9c0.3,0.2,0.7,0.4,1.3,0.4c0.5,0,1-0.1,1.2-0.3c0.3-0.2,0.4-0.5,0.5-0.8
	c0.1-0.3,0.1-0.9,0.1-1.6v-5.3h1.9v5c0,1.1-0.1,1.9-0.2,2.4c-0.1,0.5-0.3,0.9-0.6,1.2c-0.3,0.3-0.7,0.6-1.1,0.8
	c-0.5,0.2-1.1,0.3-1.8,0.3c-0.9,0-1.6-0.1-2.1-0.3c-0.5-0.2-0.8-0.5-1.1-0.8c-0.3-0.3-0.5-0.7-0.5-1.1c-0.1-0.5-0.2-1.4-0.2-2.4
	L680.3,85.8L680.3,85.8L680.3,85.8z M696.1,95.3v-9.4h1.9v7.8h4.8v1.6L696.1,95.3L696.1,95.3z M718.9,95.3h-2.1l-0.8-2.2h-3.8
	l-0.8,2.2h-2l3.7-9.5h2L718.9,95.3z M715.3,91.5L714,88l-1.3,3.5H715.3z M727.2,95.3v-7.9h-2.8v-1.6h7.6v1.6h-2.8v7.9H727.2z
	 M738.7,90.6c0-1,0.1-1.8,0.4-2.4c0.2-0.5,0.5-0.9,0.9-1.3c0.4-0.4,0.8-0.7,1.2-0.9c0.6-0.3,1.3-0.4,2.1-0.4c1.4,0,2.5,0.4,3.4,1.3
	c0.8,0.9,1.3,2.1,1.3,3.6c0,1.5-0.4,2.7-1.3,3.6c-0.8,0.9-2,1.3-3.4,1.3c-1.4,0-2.5-0.4-3.4-1.3C739.1,93.3,738.7,92.1,738.7,90.6z
	 M740.7,90.5c0,1.1,0.2,1.9,0.7,2.4c0.5,0.6,1.1,0.8,1.9,0.8c0.8,0,1.4-0.3,1.9-0.8c0.5-0.6,0.7-1.4,0.7-2.5c0-1.1-0.2-1.9-0.7-2.4
	c-0.5-0.5-1.1-0.8-1.9-0.8s-1.4,0.3-1.9,0.8C740.9,88.6,740.7,89.4,740.7,90.5z M755.5,95.3v-9.5h4c1,0,1.8,0.1,2.2,0.3
	c0.5,0.2,0.8,0.5,1.1,0.9c0.3,0.4,0.4,0.9,0.4,1.5c0,0.7-0.2,1.3-0.6,1.8c-0.4,0.5-1,0.8-1.9,0.9c0.4,0.2,0.8,0.5,1,0.8
	c0.3,0.3,0.6,0.8,1.1,1.5l1.2,1.9h-2.3l-1.4-2.1c-0.5-0.7-0.8-1.2-1-1.4c-0.2-0.2-0.4-0.3-0.6-0.4c-0.2-0.1-0.5-0.1-1-0.1h-0.4v4
	L755.5,95.3L755.5,95.3L755.5,95.3L755.5,95.3L755.5,95.3L755.5,95.3z M757.5,89.8h1.4c0.9,0,1.5,0,1.7-0.1c0.2-0.1,0.4-0.2,0.5-0.4
	c0.1-0.2,0.2-0.4,0.2-0.7c0-0.3-0.1-0.6-0.3-0.8c-0.2-0.2-0.4-0.3-0.7-0.4c-0.2,0-0.6,0-1.4,0h-1.5L757.5,89.8L757.5,89.8z"/>
</svg>
