<?xml version="1.0" encoding="utf-8"?>
<!-- Generator: Adobe Illustrator 19.1.0, SVG Export Plug-In . SVG Version: 6.00 Build 0)  -->
<svg version="1.1" id="Layer_1" xmlns:svg="http://www.w3.org/2000/svg"
	 xmlns="http://www.w3.org/2000/svg" xmlns:xlink="http://www.w3.org/1999/xlink" x="0px" y="0px" viewBox="251 -13.28 566.8 90.28"
	 enable-background="new 251 -13.28 566.8 90.28" xml:space="preserve">
<path id="path6288-1-5" d="M742.4,76.82c8.3-0.2,16.4-0.4,24.6-1.5c7.4-1,15.1-2,22.3-4c5.4-1.5,10.1-3.4,15.9-6.6
	c6.8-3.7,12.6-10.1,12.6-16.2c0-7.5-6.7-11.4-13.1-15c-5-2.6-10.6-4.5-16-6.1c-7.2-2-14.4-3.1-21.8-4.1c-8.2-1.1-16.2-1.4-24.4-1.5
	c-7.9-0.2-16.1,0.2-23.9,0.3c-6.1,0.1-12,0.4-18,0.3c-9-0.1-18-0.5-26.9-1.1c-5.4-0.4-10.8-0.9-16.1-1.5c-6.1-0.7-13-1.8-18.1-2.8
	s-8.5-2-12.7-3.2c-4.1-1.2-8.3-2.5-12.3-4.1c-2.5-1-4.8-2.1-7.2-3.5c-1.8-1-3.7-2.2-5.5-3.3c-1.7-1-3.3-2-5-2.9
	c-4-2-8.1-3.9-12.3-5.5c-5.6-2.1-11.3-3.7-17.1-4.9c-5.9-1.2-12-1.8-18.1-2.4c-3.1-0.3-14.9-0.5-14.9-0.5s-11.8,0.2-14.9,0.5
	c-6,0.5-12.1,1.1-18.1,2.4c-5.8,1.2-11.5,2.8-17.1,4.9c-4.2,1.6-8.3,3.5-12.3,5.5c-1.8,0.9-3.3,1.9-5,2.9c-1.8,1-3.6,2.3-5.5,3.3
	c-2.4,1.3-4.7,2.4-7.2,3.5c-4,1.6-8.2,2.9-12.3,4.1c-4.2,1.2-7.5,2.3-12.7,3.2c-5.1,1-12,2.1-18.1,2.8c-5.3,0.6-10.8,1.1-16.1,1.5
	c-8.9,0.6-18,1-26.9,1.1c-6.1,0.1-12-0.2-18-0.3c-7.9-0.2-16.1-0.5-23.9-0.3c-8.3,0.2-16.2,0.4-24.4,1.5c-7.4,1-14.6,2-21.8,4.1
	c-5.4,1.5-11,3.5-16,6.1c-6.4,3.6-13.1,7.5-13.1,15c0,6.1,5.8,12.6,12.6,16.2c5.8,3.1,10.5,5,15.9,6.6c7.2,2,14.9,3,22.3,4
	c8.2,1.1,16.4,1.3,24.6,1.5C326.2,76.82,671.5,77.22,742.4,76.82L742.4,76.82z"/>
<linearGradient id="shape_1_" gradientUnits="userSpaceOnUse" x1="535.0001" y1="14.5332" x2="535.0002" y2="74.2329" gradientTransform="matrix(1 0 0 1 0 -1.8)">
	<stop  offset="0.0907" style="stop-color:#FFFFFF"/>
	<stop  offset="0.2178" style="stop-color:#80A6E2"/>
	<stop  offset="0.2752" style="stop-color:#3C76D2"/>
	<stop  offset="0.3269" style="stop-color:#AAC3EC"/>
	<stop  offset="0.3888" style="stop-color:#FFFFFF"/>
	<stop  offset="0.5869" style="stop-color:#F1F3F2"/>
	<stop  offset="0.6098" style="stop-color:#312500"/>
	<stop  offset="0.7512" style="stop-color:#A78C42"/>
	<stop  offset="0.7632" style="stop-color:#534417"/>
	<stop  offset="0.7868" style="stop-color:#F3DA75"/>
	<stop  offset="1" style="stop-color:#FFFFFF"/>
</linearGradient>
<path id="shape" fill="url(#shape_1_)" d="M791.6,36.02c-5.9-2.8-10.7-4-16.2-5.3c-7.2-1.7-14.6-2.4-22-3c-8-0.6-16.1-0.5-24.2-0.6
	c-8.5-0.1-16.9,0.1-25.4,0.1c-6.2-0.1-12.5-0.1-18.7-0.4c-7.4-0.3-14.8-0.8-22.2-1.5c-6.3-0.7-12.7-1.5-18.9-2.7
	c-6.3-1.2-12.6-2.6-18.8-4.4c-4.8-1.4-9.5-3.3-14.2-5.1c-0.8-0.3-1.7-0.7-2.3-0.6c-0.5,0.1-1.7,0.9-2.5,1.5c-3.5,2.4-7,4.7-10.8,6.4
	c-3.3,1.5-6.8,2.5-10.2,3.5c-1.8,0.5-3.7,0.9-5.6,1.3c-2.9,0.6-5.8,1.2-8.7,1.7c-5.6,0.8-11.3,1.4-17,1.7c-14.1,0.4-16.6,0.3-20,0.3
	c-9.5,0-12,0.1-18.1-0.3c-5.7-0.4-11.4-0.9-17-1.7c-2.9-0.4-5.8-1.1-8.7-1.7c-1.9-0.4-3.7-0.7-5.6-1.3c-3.5-1-6.9-2-10.2-3.5
	c-3.8-1.7-9.4-5.4-10.8-6.4s-2-1.7-2.6-1.7c-0.8,0-1.4,0.4-2.2,0.7c-4.7,1.8-9.4,3.7-14.2,5.1c-6.2,1.8-12.5,3.2-18.8,4.4
	c-6.3,1.2-12.6,2-18.9,2.7c-7.4,0.8-14.8,1.2-22.2,1.5c-6.2,0.3-12.5,0.4-18.7,0.4c-8.5,0.1-16.9-0.2-25.4-0.1
	c-8.1,0.1-16.1,0-24.2,0.6c-7.4,0.6-14.8,1.4-22,3c-5.6,1.3-10.3,2.5-16.3,5.3c-5.5,2.6-12.7,7.3-12.7,13.5
	c0,6.1,7.1,10.5,12.5,13.5c2.8,1.6,11.5,4.3,17.5,5.7c6.9,1.6,13.9,2.4,21,3.1c8.4,0.7,16.9,0.6,25.3,0.8h386.8
	c8.4-0.1,16.9,0,25.3-0.8c7-0.6,14.1-1.4,21-3.1c6-1.4,14.6-4.1,17.5-5.7c5.3-3,12.5-7.4,12.5-13.5
	C804.3,43.32,797,38.62,791.6,36.02z M785.2,58.22c-4.5,3.4-10.2,4.7-15.7,6.1c-5.3,1.4-10.8,1.8-16.3,2.3
	c-8.4,0.7-26.4,0.7-26.4,0.7H341.6c-8.4-0.1-17.6,0-26.3-0.7c-5.5-0.5-11-0.9-16.3-2.3c-5.4-1.4-11.2-2.7-15.7-6.1
	c-2.9-2.2-6.6-5.3-6.6-8.8c0-2.3,1.8-4.3,3.5-5.8c4.5-4,10.6-5.7,16.3-7.4c6.6-2,13.5-2.6,20.4-3.2c7-0.6,21.2-0.5,21.2-0.5h388.7
	c8.1,0.1,16.6-0.2,24.8,0.5c6.8,0.6,13.8,1.2,20.4,3.2c5.7,1.7,11.9,3.4,16.3,7.4c1.7,1.5,3.5,3.5,3.5,5.8
	C791.8,53.02,788.1,56.02,785.2,58.22z"/>
<radialGradient id="rect7344_1_" cx="3303.2183" cy="603.9158" r="26.8334" gradientTransform="matrix(4.500007e-11 1 -28.2702 1.272156e-09 17606.2832 -3263.863)" gradientUnits="userSpaceOnUse">
	<stop  offset="0" style="stop-color:#3C76D2"/>
	<stop  offset="0.3289" style="stop-color:#FFFFFF"/>
	<stop  offset="0.4724" style="stop-color:#F1F3F2"/>
	<stop  offset="0.5108" style="stop-color:#312500"/>
	<stop  offset="0.6496" style="stop-color:#A78C42"/>
	<stop  offset="0.7362" style="stop-color:#F3DA75"/>
	<stop  offset="0.7632" style="stop-color:#534417"/>
	<stop  offset="0.7868" style="stop-color:#F3DA75"/>
	<stop  offset="0.9147" style="stop-color:#FFFFFF"/>
</radialGradient>
<path id="rect7344" fill="url(#rect7344_1_)" d="M664.4,36.62l4.4,6.7h12.1l-4.4-6.7H664.4z M701.2,36.62l-4.4,6.7h12.1l4.4-6.7
	H701.2z M314.7,37.22v6.1h53.9h5.4c0-3.3-2.4-6-5.4-6.1H314.7z M380.1,37.22v6.1h39v-6.1H380.1z M430.2,37.22c-3,0-5.4,2.7-5.4,6.1
	h5.4h5.5h35.2v-6.1H430.2L430.2,37.22z M481.8,37.22c-3,0-5.4,2.7-5.4,6.1h5.4h5.5h27.1h5.6c0-3.4-2.5-6.1-5.5-6.1
	c-0.1,0-0.1,0-0.2,0H481.8z M545.7,37.22v6.1h40.2h5.4c0-3.3-2.4-6-5.4-6.1H545.7z M603.5,37.22L603.5,37.22c-2.8,0.3-5,2.9-5,6.1h5
	h5.9h20.1h2.6h8.9h2.1c0-3.3-2.4-6-5.4-6.1C637.7,37.22,603.5,37.22,603.5,37.22z M649.6,37.22v6.1h10.9v-6.1H649.6z M717.6,37.22
	v6.1h39v-6.1H717.6z M289.7,42.52c-3.9,0-7,3.1-7,7s3.1,7.1,7,7.1s7-3.2,7-7.1S293.5,42.52,289.7,42.52z M778.6,42.52
	c-3.9,0-7.1,3.1-7.1,7s3.2,7.1,7.1,7.1s7-3.2,7-7.1S782.5,42.52,778.6,42.52z M314.7,45.32v18.1h10.8v-18.1H314.7z M338.8,45.32
	v18.1h10.9v-18.1H338.8z M362.9,45.32v18.1h11v-18.1H362.9z M380.1,45.32v11.6c0.1,3.6,3.5,6.5,7.5,6.5h31.5v-6.1h-25.7
	c-1.3,0-2.4-1.1-2.4-2.4v-1.5h26.2v-5.6h-23.8c-1.3,0-2.4-1.1-2.4-2.4h-1L380.1,45.32L380.1,45.32z M424.7,45.32v11.8l0,0
	c0.2,3.3,3.1,6,6.8,6.3l0,0h32l0,0c4.1-0.3,7.3-3.6,7.3-7.8c0-4.3-3.5-7.8-7.8-7.8h-0.1h-18.7v5.6h13.5c1.1,0,2,0.9,2,2s-0.9,2-2,2
	h-20.1c-1.1,0-2-0.9-2-2v-10L424.7,45.32L424.7,45.32z M476.3,45.32v18.1h10.9v-18.1H476.3z M509.1,45.32v5.4h-19.9v7.1h19.9v5.6h11
	v-18.1H509.1z M545.7,45.32v18.1h10.9v-18.1H545.7z M580.3,45.32v10c0,1.1-0.9,2-2,2h-20.2v6.1h26.3l0,0c3.8-0.3,6.9-3.2,6.9-6.7
	v-11.4H580.3z M598.5,45.32v18.1h10.9v-18.1H598.5z M632.1,45.32v3.4c0,0,0,0,0,0.1c0,1.1-0.9,1.9-2,1.9h-2.4h-15.9v7.1h15.3
	l5.5,5.6h13.1l-7.5-7.6c2.9-1.2,4.9-4,4.9-7.2v-3.3h-0.7H632.1L632.1,45.32z M649.6,45.32v18.1h10.9v-18.1H649.6z M670.1,45.32
	l12,18.1h1.2h10.9h1.2l12-18.1h-12.1l-6.6,9.9l-6.6-9.9C682.1,45.32,670.1,45.32,670.1,45.32z M717.6,45.32v11.6
	c0.1,3.6,3.5,6.5,7.5,6.5h31.5v-6.1h-25.7c-1.3,0-2.4-1.1-2.4-2.4v-1.5h26.2v-5.6H731c-1.3,0-2.4-1.1-2.4-2.4L717.6,45.32
	L717.6,45.32z"/>
<radialGradient id="path7243_1_" cx="2217.0044" cy="-190.6205" r="59.4671" gradientTransform="matrix(2.5123 2.300000e-03 -7.100000e-03 0.4103 -5033.8867 72.5494)" gradientUnits="userSpaceOnUse">
	<stop  offset="0" style="stop-color:#001833"/>
	<stop  offset="0.2518" style="stop-color:#3C76D2"/>
	<stop  offset="0.5869" style="stop-color:#F1F3F2"/>
	<stop  offset="0.6098" style="stop-color:#534417"/>
	<stop  offset="0.6937" style="stop-color:#A78C42"/>
	<stop  offset="0.7582" style="stop-color:#BFCBDE"/>
	<stop  offset="0.8207" style="stop-color:#A4B5D3"/>
	<stop  offset="0.8891" style="stop-color:#534417"/>
	<stop  offset="0.935" style="stop-color:#FFFFFF"/>
</radialGradient>
<path id="path7243" fill="url(#path7243_1_)" d="M593.6,9.12c0,7.4-25.5,13.4-57,13.4s-56.9-6-56.9-13.4l0,0
	c0-7.4,25.5-13.4,56.9-13.4C568.1-4.28,593.6,1.72,593.6,9.12z"/>
<path fill="#FFFFFF" d="M507.91,14.09l0-2.93l3.97,0c-2.32-0.91-3.97-3.17-3.97-5.81c0-3.44,2.81-6.24,6.26-6.24h8.26l0.01,3.44
	l-0.01,3.01h-3.96c2.33,0.91,3.98,3.17,3.98,5.82c0,3.44-2.81,6.24-6.26,6.24l-8.28,0.01L507.91,14.09z M527.98,17.6
	c-2.97,0-5.39-2.41-5.39-5.38V4.48c0-2.96,2.42-5.37,5.39-5.37h8.81v4.36c0.48-2.48,2.67-4.36,5.29-4.36h8.56v13.3l3.64-10.67
	c0.52-1.71,2.24-2.91,4.17-2.91c1.93,0,3.65,1.21,4.17,2.93l5.36,15.85h-11.08v-2.64l-0.9,2.64l-13.9,0c-2.71,0-4.96-1.99-5.35-4.57
	l0,4.58L527.98,17.6z M536.68,11.16v-5.6h-1.67v5.59C535.01,11.16,536.68,11.16,536.68,11.16z"/>
<linearGradient id="SVGID_1_" gradientUnits="userSpaceOnUse" x1="537.838" y1="64.1219" x2="537.8381" y2="46.3219" gradientTransform="matrix(1 0 0 -1 0 63.444)">
	<stop  offset="0" style="stop-color:#2D056E"/>
	<stop  offset="0.7315" style="stop-color:#3C76D2"/>
	<stop  offset="0.8" style="stop-color:#2D056E"/>
	<stop  offset="1" style="stop-color:#27569C"/>
</linearGradient>
<path fill="url(#SVGID_1_)" d="M508.4,17.12l7.78-0.01c3.18,0,5.76-2.57,5.76-5.74c0-3.17-2.58-5.75-5.76-5.75l-2.02,0.01
	c-0.16,0-0.29-0.13-0.29-0.29s0.13-0.29,0.29-0.29l7.77,0l0-2.44h-7.77c-1.5,0-2.72,1.22-2.72,2.72c0,1.5,1.22,2.72,2.72,2.72
	l2.03,0.03c1.82,0,3.3,1.47,3.3,3.28c0,1.82-1.47,3.29-3.3,3.29h-7.78L508.4,17.12 M508.41,14.09h7.78c1.51,0,2.73-1.22,2.73-2.72
	c0-1.5-1.22-2.72-2.73-2.72l-2.03-0.02c-1.82,0-3.3-1.47-3.3-3.29c0-1.81,1.48-3.29,3.3-3.29l7.77,0l0-2.45h-7.77
	c-3.18,0-5.76,2.57-5.76,5.74s2.58,5.74,5.76,5.74l2.01,0c0.15,0,0.28,0.12,0.28,0.28c0,0.15-0.13,0.28-0.28,0.28l-7.77,0.01
	L508.41,14.09 M527.98,14.68c-1.35,0-2.45-1.08-2.45-2.45V4.46c0-1.32,1.11-2.41,2.45-2.41l8.3,0v-2.44h-8.3
	c-2.7,0-4.89,2.18-4.89,4.87v7.74c0,2.69,2.19,4.88,4.89,4.88l8.27,0l0-2.43L527.98,14.68 M526.12,4.48c0-1.03,0.83-1.87,1.86-1.87
	h8.3v2.44h-7.15c-0.57,0-0.58,0.57-0.58,0.57h5.97v2.43h-8.4L526.12,4.48 M527.98,14.08c-1.03,0-1.86-0.83-1.86-1.86V8.64h8.4v2.44
	h-5.97c0.01,0.57,0.58,0.58,0.58,0.58h7.12l0,2.42L527.98,14.08 M542.1,14.67c-1.34,0-2.44-1.1-2.44-2.44V4.48
	c0-1.35,1.09-2.44,2.44-2.44h8.04v-2.44h-8.06c-2.7,0-4.89,2.18-4.89,4.87v7.74c0,2.69,2.21,4.88,4.91,4.88l8.04,0V5.63h-6.91v2.43
	h4.47v6.61L542.1,14.67 M540.23,12.23c0,1.03,0.83,1.87,1.86,1.87h5.02V8.64h-3.89v2.44h1.44l0.01,0.57h-1.44
	c-0.31,0-0.57-0.26-0.57-0.57l-0.01-5.45c0,0,0-0.57,0.58-0.58h6.9l0-2.43l-8.04,0c-1.03,0-1.86,0.83-1.86,1.87L540.23,12.23
	 M557.69,2.58c0.11-0.31,0.4-0.53,0.75-0.53s0.65,0.22,0.75,0.53l3.9,11.53h-5.72l0.01-2.71h1.91l-0.86-2.56l-2.8,8.26h-2.88
	L557.69,2.58 M563.89,14.67h-6.49v2.44h9.88L562.14,1.9c-0.45-1.48-1.94-2.58-3.69-2.58c-1.76,0-3.24,1.09-3.69,2.57l-5.19,15.21
	h2.59l5.04-14.79c0.2-0.49,0.69-0.83,1.25-0.83c0.56,0,1.05,0.35,1.26,0.83L563.89,14.67"/>
<g>
	<path fill="#F1F3F2" d="M536.6-3.28c33,0,56,6.53,56,12.4c0,2.98-5.95,6.16-15.92,8.5c-10.69,2.51-24.93,3.9-40.08,3.9
		c-32.94,0-55.9-6.53-55.9-12.4c0-2.98,5.95-6.16,15.9-8.5C507.28-1.89,521.49-3.28,536.6-3.28 M460.87,13.32
		c0.15,0.05,0.54,0.36,0.88,0.62c0.31,0.25,0.7,0.55,1.17,0.89c1.59,1.14,7.15,4.79,10.97,6.5c3.27,1.49,6.62,2.49,10.31,3.54
		c1.53,0.48,3.02,0.78,4.45,1.07c0.41,0.08,0.82,0.17,1.25,0.26c0.72,0.15,1.44,0.31,2.17,0.46c2.16,0.47,4.39,0.95,6.6,1.25
		c4.85,0.69,10.11,1.22,17.08,1.71c4.09,0.27,6.57,0.31,10.6,0.31c0.89,0,1.85,0,2.93,0c1.35,0,2.87-0.01,4.63-0.01
		c0.54,0,1.05,0,1.59,0c0.6,0,1.24,0.01,1.98,0.01c2.55,0,6.73-0.03,16.49-0.31c5.39-0.28,11.14-0.86,17.12-1.71
		c2.92-0.5,5.88-1.11,8.74-1.71c1.88-0.4,3.83-0.81,5.68-1.32l0.51-0.15c3.26-0.96,6.62-1.94,9.82-3.4
		c3.97-1.78,7.59-4.18,10.99-6.51c1.03-0.77,1.88-1.26,2.1-1.32c0.31,0,0.92,0.23,1.4,0.42l0.34,0.13c0.73,0.28,1.47,0.57,2.21,0.85
		c3.93,1.52,7.98,3.08,12.07,4.28c5.55,1.61,11.73,3.06,18.89,4.42c6.45,1.25,13.21,2.07,19,2.71c7.38,0.7,14.87,1.2,22.25,1.5
		c4.66,0.22,9.43,0.28,14.04,0.34c1.57,0.02,3.13,0.04,4.71,0.06c3.41,0,6.85-0.03,10.18-0.06c3.32-0.03,6.75-0.06,10.13-0.06
		c1.69,0,3.38,0.01,5.08,0.03c1.8,0.02,3.6,0.03,5.4,0.05c6.17,0.04,12.55,0.09,18.73,0.55c7.12,0.58,14.68,1.28,21.85,2.98
		c5.81,1.37,10.36,2.55,16,5.23c4.51,2.17,12.12,6.68,12.53,12.53c-0.03,5.12-5.78,9.08-11.98,12.59
		c-2.84,1.56-11.44,4.25-17.26,5.6c-7.04,1.74-14.18,2.5-20.86,3.07c-6.83,0.65-13.83,0.7-20.61,0.75
		c-1.54,0.01-3.07,0.02-4.59,0.04H341.62c-2.3-0.06-4.65-0.09-6.91-0.12c-6.03-0.08-12.26-0.17-18.31-0.68
		c-6.68-0.66-13.8-1.44-20.87-3.08c-5.94-1.39-14.57-4.07-17.24-5.6c-5.93-3.29-11.99-7.37-11.99-12.63
		c0-5.97,7.6-10.46,12.12-12.59c5.9-2.75,10.59-3.95,16.09-5.23c7.54-1.67,15.28-2.45,21.86-2.98c6.27-0.46,12.62-0.51,18.76-0.55
		c1.79-0.01,3.58-0.03,5.38-0.05c1.24-0.01,2.48-0.02,3.72-0.02c2.99,0,6.02,0.04,8.96,0.07c2.94,0.03,5.98,0.07,8.98,0.07
		c1.24,0,2.49-0.01,3.73-0.02c7.04,0,13.17-0.13,18.74-0.4c6.6-0.27,14.41-0.66,22.27-1.51c5.63-0.62,12.28-1.44,18.98-2.71
		c7.16-1.36,13.34-2.81,18.89-4.42c4.09-1.19,8.15-2.76,12.07-4.28c0.73-0.28,1.47-0.57,2.2-0.85c0.24-0.09,0.46-0.19,0.68-0.28
		C460.19,13.48,460.52,13.33,460.87,13.32 M341.59,68.32L341.59,68.32H726.8c0.18,0,18.14-0.01,26.49-0.7l1.47-0.13
		c4.96-0.44,10.08-0.9,14.98-2.19l0.97-0.25c5.25-1.33,10.69-2.7,15.08-6.03c3.39-2.57,7-5.64,7-9.6c0-2.83-2.19-5.1-3.83-6.54
		c-4.35-3.95-10.19-5.69-15.83-7.36l-0.85-0.25c-6.62-2.01-13.6-2.62-20.36-3.22l-0.25-0.02c-5.25-0.45-10.68-0.49-15.35-0.49
		l-2.52,0l-2.49,0c-1.51,0-3.02-0.01-4.52-0.02H338.11c0,0-0.89-0.01-2.34-0.01c-4.86,0-13.78,0.07-18.96,0.51
		c-6.83,0.59-13.9,1.21-20.6,3.24l-0.7,0.21c-5.65,1.68-11.49,3.42-15.97,7.4c-1.65,1.45-3.84,3.72-3.84,6.55
		c0,3.78,3.54,6.97,7,9.6c4.31,3.26,9.65,4.63,14.8,5.95l1.24,0.32c4.91,1.3,10.03,1.75,14.99,2.2l1.48,0.13
		c6.96,0.56,14.18,0.61,21.15,0.66C338.14,68.29,339.88,68.3,341.59,68.32L341.59,68.32 M711.45,37.62l-3.09,4.7h-9.71l3.09-4.7
		H711.45 M675.96,37.62l3.09,4.7h-9.71l-3.09-4.7H675.96 M755.6,38.22v4.1h-37v-4.1H755.6 M659.5,38.22v4.1h-8.9v-4.1H659.5
		 M637.68,38.22c2.13,0.08,3.91,1.84,4.33,4.1H641h-8.9h-2.6h-20.1h-5.9h-3.92c0.38-2.17,1.95-3.86,3.97-4.1H637.68 M585.88,38.22
		c2.13,0.08,3.91,1.84,4.33,4.1h-4.31h-39.2v-4.1H585.88 M514.5,38.22c2.18,0,4,1.77,4.41,4.1h-4.51h-27.1h-5.5h-4.32
		c0.39-2.37,2.15-4.1,4.32-4.1h32.5H514.5 M469.9,38.22v4.1h-34.2h-5.5h-4.32c0.39-2.37,2.15-4.1,4.32-4.1H469.9 M418.1,38.22v4.1
		h-37v-4.1H418.1 M368.58,38.22c2.13,0.08,3.91,1.84,4.33,4.1h-4.31h-52.9v-4.1H368.58 M778.6,43.52c3.36,0,6,2.63,6,6
		c0,3.36-2.69,6.1-6,6.1c-3.36,0-6.1-2.74-6.1-6.1C772.5,46.21,775.24,43.52,778.6,43.52 M289.7,43.52c3.31,0,6,2.69,6,6
		c0,3.36-2.69,6.1-6,6.1s-6-2.74-6-6.1C283.7,46.16,286.34,43.52,289.7,43.52 M705.54,46.32l-10.67,16.1h-0.66h-10.9h-0.66
		l-10.67-16.1h9.6l6.3,9.46l0.83,1.25l0.83-1.25l6.3-9.46L705.54,46.32 M659.5,46.32v16.1h-8.9v-16.1H659.5 M642.1,46.32v2.3
		c0,2.74-1.68,5.2-4.28,6.28l-1.37,0.57l1.04,1.06l5.82,5.9h-10.29l-5.21-5.3l-0.29-0.3h-0.42h-14.3v-5.1h14.9h2.4
		c1.68,0,3-1.27,3-2.9v-0.1v-2.4H642.1 M608.4,46.32v16.1h-8.9v-16.1H608.4 M590.3,46.32v10.4c0,2.92-2.61,5.42-5.94,5.7H559.1v-4.1
		h19.2c1.65,0,3-1.35,3-3v-9L590.3,46.32 M555.6,46.32v16.1h-8.9v-16.1H555.6 M519.1,46.32v16.1h-9v-4.6v-1h-1h-18.9v-5.1h18.9h1v-1
		v-4.4H519.1 M486.2,46.32v16.1h-8.9v-16.1H486.2 M372.9,46.32v16.1h-9v-16.1H372.9 M348.7,46.32v16.1h-8.9v-16.1H348.7
		 M324.5,46.32v16.1h-8.8v-16.1H324.5 M718.6,46.33l9.15,0.08c0.44,1.38,1.75,2.41,3.25,2.41h22.7v3.6h-25.2h-1v1v1.5
		c0,1.84,1.56,3.4,3.4,3.4h24.7v4.1h-30.5c-3.5,0-6.42-2.48-6.5-5.5V46.33 M425.7,46.33l8.9,0.08v9.01c0,1.65,1.35,3,3,3h20.1
		c1.65,0,3-1.35,3-3s-1.35-3-3-3h-12.5v-3.6h17.7h0.1c3.75,0,6.8,3.05,6.8,6.8c0,3.6-2.72,6.52-6.34,6.8h-31.92
		c-3.16-0.27-5.66-2.56-5.84-5.33L425.7,46.33 M381.1,46.33l8.9,0.09h0.16c0.44,1.37,1.75,2.4,3.24,2.4h22.8v3.6H391h-1v1v1.5
		c0,1.84,1.56,3.4,3.4,3.4h24.7v4.1h-30.5c-3.5,0-6.42-2.48-6.5-5.5L381.1,46.33 M536.6-4.28c-31.4,0-56.9,6-56.9,13.4
		s25.4,13.4,56.9,13.4s57-6,57-13.4S568.1-4.28,536.6-4.28L536.6-4.28z M460.9,12.32c-0.8,0-1.4,0.4-2.2,0.7
		c-4.7,1.8-9.4,3.7-14.2,5.1c-6.2,1.8-12.5,3.2-18.8,4.4c-6.3,1.2-12.6,2-18.9,2.7c-7.4,0.8-14.8,1.2-22.2,1.5
		c-6.2,0.3-12.5,0.4-18.7,0.4c-1.24,0.02-2.49,0.02-3.73,0.02c-5.99,0-11.95-0.14-17.94-0.14c-1.24,0-2.48,0.01-3.73,0.02
		c-8.1,0.1-16.1,0-24.2,0.6c-7.4,0.6-14.8,1.4-22,3c-5.6,1.3-10.3,2.5-16.3,5.3c-5.5,2.6-12.7,7.3-12.7,13.5
		c0,6.1,7.1,10.5,12.5,13.5c2.8,1.6,11.5,4.3,17.5,5.7c6.9,1.6,13.9,2.4,21,3.1c8.4,0.7,16.9,0.6,25.3,0.8h386.8
		c8.4-0.1,16.9,0,25.3-0.8c7-0.6,14.1-1.4,21-3.1c6-1.4,14.6-4.1,17.5-5.7c5.3-3,12.5-7.4,12.5-13.5c-0.4-6.1-7.7-10.8-13.1-13.4
		c-5.9-2.8-10.7-4-16.2-5.3c-7.2-1.7-14.6-2.4-22-3c-8-0.6-16.1-0.5-24.2-0.6c-1.7-0.02-3.4-0.03-5.09-0.03
		c-6.78,0-13.51,0.13-20.31,0.13c-6.2-0.1-12.5-0.1-18.7-0.4c-7.4-0.3-14.8-0.8-22.2-1.5c-6.3-0.7-12.7-1.5-18.9-2.7
		c-6.3-1.2-12.6-2.6-18.8-4.4c-4.8-1.4-9.5-3.3-14.2-5.1c-0.71-0.27-1.51-0.62-2.1-0.62c-0.07,0-0.14,0-0.2,0.02
		c-0.5,0.1-1.7,0.9-2.5,1.5c-3.5,2.4-7,4.7-10.8,6.4c-3.3,1.5-6.8,2.5-10.2,3.5c-1.8,0.5-3.7,0.9-5.6,1.3c-2.9,0.6-5.8,1.2-8.7,1.7
		c-5.6,0.8-11.3,1.4-17,1.7c-9.4,0.27-13.64,0.31-16.44,0.31c-1.4,0-2.43-0.01-3.56-0.01c-3.17,0-5.56,0.01-7.56,0.01
		c-4.01,0-6.47-0.04-10.54-0.31c-5.7-0.4-11.4-0.9-17-1.7c-2.9-0.4-5.8-1.1-8.7-1.7c-1.9-0.4-3.7-0.7-5.6-1.3c-3.5-1-6.9-2-10.2-3.5
		c-3.8-1.7-9.4-5.4-10.8-6.4C462.1,13.02,461.5,12.32,460.9,12.32L460.9,12.32z M341.6,67.32c-8.4-0.1-17.6,0-26.3-0.7
		c-5.5-0.5-11-0.9-16.3-2.3c-5.4-1.4-11.2-2.7-15.7-6.1c-2.9-2.2-6.6-5.3-6.6-8.8c0-2.3,1.8-4.3,3.5-5.8c4.5-4,10.6-5.7,16.3-7.4
		c6.6-2,13.5-2.6,20.4-3.2c5.25-0.45,14.55-0.51,18.87-0.51c1.44,0,2.33,0.01,2.33,0.01h388.7c1.49,0.02,3.01,0.02,4.52,0.02
		c1.66,0,3.33-0.01,5.01-0.01c5.09,0,10.23,0.05,15.26,0.48c6.8,0.6,13.8,1.2,20.4,3.2c5.7,1.7,11.9,3.4,16.3,7.4
		c1.7,1.5,3.5,3.5,3.5,5.8c0,3.6-3.7,6.6-6.6,8.8c-4.5,3.4-10.2,4.7-15.7,6.1c-5.3,1.4-10.8,1.8-16.3,2.3
		c-8.4,0.7-26.4,0.7-26.4,0.7H341.6L341.6,67.32z M713.3,36.62h-12.1l-4.4,6.7h12.1L713.3,36.62L713.3,36.62z M676.5,36.62h-12.1
		l4.4,6.7h12.1L676.5,36.62L676.5,36.62z M756.6,37.22h-39v6.1h39V37.22L756.6,37.22z M660.5,37.22h-10.9v6.1h10.9V37.22
		L660.5,37.22z M637.7,37.22h-34.2c-2.8,0.3-5,2.9-5,6.1h5h5.9h20.1h2.6h8.9h2.1C643.1,40.02,640.7,37.32,637.7,37.22L637.7,37.22z
		 M585.9,37.22h-40.2v6.1h40.2h5.4C591.3,40.02,588.9,37.32,585.9,37.22L585.9,37.22z M514.5,37.22c-0.1,0-0.1,0-0.2,0h-32.5
		c-3,0-5.4,2.7-5.4,6.1h5.4h5.5h27.1h5.6C520,39.92,517.5,37.22,514.5,37.22L514.5,37.22z M470.9,37.22h-40.7c-3,0-5.4,2.7-5.4,6.1
		h5.4h5.5h35.2V37.22L470.9,37.22z M419.1,37.22h-39v6.1h39V37.22L419.1,37.22z M368.6,37.22h-53.9v6.1h53.9h5.4
		C374,40.02,371.6,37.32,368.6,37.22L368.6,37.22z M778.6,42.52c-3.9,0-7.1,3.1-7.1,7s3.2,7.1,7.1,7.1s7-3.2,7-7.1
		S782.5,42.52,778.6,42.52L778.6,42.52z M289.7,42.52c-3.9,0-7,3.1-7,7s3.1,7.1,7,7.1s7-3.2,7-7.1S293.5,42.52,289.7,42.52
		L289.7,42.52z M717.6,45.32v11.6c0.1,3.6,3.5,6.5,7.5,6.5h31.5v-6.1h-25.7c-1.3,0-2.4-1.1-2.4-2.4v-1.5h26.2v-5.6H731
		c-1.3,0-2.4-1.1-2.4-2.4L717.6,45.32L717.6,45.32z M707.4,45.32h-12.1l-6.6,9.9l-6.6-9.9h-12l12,18.1h1.2h10.9h1.2L707.4,45.32
		L707.4,45.32z M660.5,45.32h-10.9v18.1h10.9V45.32L660.5,45.32z M643.1,45.32h-0.7h-10.3v3.4c0,0,0,0,0,0.1c0,1.1-0.9,1.9-2,1.9
		h-2.4h-15.9v7.1h15.3l5.5,5.6h13.1l-7.5-7.6c2.9-1.2,4.9-4,4.9-7.2V45.32L643.1,45.32z M609.4,45.32h-10.9v18.1h10.9V45.32
		L609.4,45.32z M591.3,45.32h-11v10c0,1.1-0.9,2-2,2h-20.2v6.1h26.3c3.8-0.3,6.9-3.2,6.9-6.7L591.3,45.32L591.3,45.32z M556.6,45.32
		h-10.9v18.1h10.9V45.32L556.6,45.32z M520.1,45.32h-11v5.4h-19.9v7.1h19.9v5.6h11V45.32L520.1,45.32z M487.2,45.32h-10.9v18.1h10.9
		V45.32L487.2,45.32z M424.7,45.32v11.8c0.2,3.3,3.1,6,6.8,6.3h32c4.1-0.3,7.3-3.6,7.3-7.8c0-4.3-3.5-7.8-7.8-7.8h-0.1h-18.7v5.6
		h13.5c1.1,0,2,0.9,2,2s-0.9,2-2,2h-20.1c-1.1,0-2-0.9-2-2v-10L424.7,45.32L424.7,45.32z M380.1,45.32v11.6c0.1,3.6,3.5,6.5,7.5,6.5
		h31.5v-6.1h-25.7c-1.3,0-2.4-1.1-2.4-2.4v-1.5h26.2v-5.6h-23.8c-1.3,0-2.4-1.1-2.4-2.4h-1L380.1,45.32L380.1,45.32z M373.9,45.32
		h-11v18.1h11V45.32L373.9,45.32z M349.7,45.32h-10.9v18.1h10.9V45.32L349.7,45.32z M325.5,45.32h-10.8v18.1h10.8V45.32L325.5,45.32
		z"/>
</g>
</svg>
