<?xml version="1.0" encoding="utf-8"?>
<!-- Generator: Adobe Illustrator 19.1.0, SVG Export Plug-In . SVG Version: 6.00 Build 0)  -->
<svg version="1.1"
	 id="Layer_1" inkscape:version="0.48.5 r" sodipodi:docname="gen.svg" xmlns:sodipodi="http://sodipodi.sourceforge.net/DTD/sodipodi-0.dtd" xmlns:dc="http://purl.org/dc/elements/1.1/" xmlns:cc="http://creativecommons.org/ns#" xmlns:svg="http://www.w3.org/2000/svg" xmlns:rdf="http://www.w3.org/1999/02/22-rdf-syntax-ns#" xmlns:inkscape="http://www.inkscape.org/namespaces/inkscape"
	 xmlns="http://www.w3.org/2000/svg" xmlns:xlink="http://www.w3.org/1999/xlink" x="0px" y="0px" viewBox="251 -13.3 566.9 90.3"
	 enable-background="new 251 -13.3 566.9 90.3" xml:space="preserve">
<path id="path6288-1-5" inkscape:connector-curvature="0" sodipodi:nodetypes="ssscsssssssssssscccsscccsscccsssssssssssscssscs" d="
	M994,63.3c8.3-0.2,16.4-0.4,24.6-1.5c7.4-1,15.1-2,22.3-4c5.4-1.5,10.1-3.4,15.9-6.6c6.8-3.7,12.6-10.1,12.6-16.2
	c0-7.5-6.7-11.4-13.1-15c-5-2.6-10.6-4.5-16-6.1c-7.2-2-14.4-3.1-21.8-4.1c-8.2-1.1-16.2-1.4-24.4-1.5c-7.9-0.2-16.1,0.2-23.9,0.3
	c-6.1,0.1-12,0.4-18,0.3c-9-0.1-18-0.5-26.9-1.1c-5.4-0.4-10.8-0.9-16.1-1.5c-6.1-0.7-13-1.8-18.1-2.8s-8.5-2-12.7-3.2
	c-4.1-1.2-8.3-2.5-12.3-4.1c-2.5-1-4.8-2.1-7.2-3.5c-1.8-1-3.7-2.2-5.5-3.3c-1.7-1-3.3-2-5-2.9c-4-2-8.1-3.9-12.3-5.5
	c-5.6-2.1-11.3-3.7-17.1-4.9c-5.9-1.2-12-1.8-18.1-2.4c-3.1-0.3-14.9-0.5-14.9-0.5s-11.8,0.2-14.9,0.5c-6,0.5-12.1,1.1-18.1,2.4
	c-5.8,1.2-11.5,2.8-17.1,4.9c-4.2,1.6-8.3,3.5-12.3,5.5c-1.8,0.9-3.3,1.9-5,2.9c-1.8,1-3.6,2.3-5.5,3.3c-2.4,1.3-4.7,2.4-7.2,3.5
	c-4,1.6-8.2,2.9-12.3,4.1c-4.2,1.2-7.5,2.3-12.7,3.2c-5.1,1-12,2.1-18.1,2.8c-5.3,0.6-10.8,1.1-16.1,1.5c-8.9,0.6-18,1-26.9,1.1
	c-6.1,0.1-12-0.2-18-0.3c-7.9-0.2-16.1-0.5-23.9-0.3c-8.3,0.2-16.2,0.4-24.4,1.5c-7.4,1-14.6,2-21.8,4.1c-5.4,1.5-11,3.5-16,6.1
	c-6.4,3.6-13.1,7.5-13.1,15c0,6.1,5.8,12.6,12.6,16.2c5.8,3.1,10.5,5,15.9,6.6c7.2,2,14.9,3,22.3,4c8.2,1.1,16.4,1.3,24.6,1.5
	C577.8,63.3,923.1,63.7,994,63.3L994,63.3z"/>
<radialGradient id="path7243_1_" cx="805.9515" cy="284.3235" r="26.8927" gradientTransform="matrix(2.5123 0 0 -0.5755 -1236.5421 155.9843)" gradientUnits="userSpaceOnUse">
	<stop  offset="0.4395" style="stop-color:#F1F3F2"/>
	<stop  offset="0.8739" style="stop-color:#A4B5D3"/>
	<stop  offset="0.9596" style="stop-color:#5878B5"/>
</radialGradient>
<path id="path7243" sodipodi:cy="36.418709" sodipodi:type="arc" sodipodi:ry="1.0606601" sodipodi:rx="22.362251" sodipodi:cx="249.43192" fill="url(#path7243_1_)" d="
	M845.2-4.4c0,7.4-25.5,13.4-57,13.4s-56.9-6-56.9-13.4l0,0c0-7.4,25.5-13.4,56.9-13.4C819.7-17.8,845.2-11.8,845.2-4.4z"/>
<linearGradient id="SVGID_1_" gradientUnits="userSpaceOnUse" x1="786.5999" y1="63.2878" x2="786.5999" y2="3.281" gradientTransform="matrix(1 0 0 -1 0 63.4)">
	<stop  offset="0.0937" style="stop-color:#F1F3F2"/>
	<stop  offset="0.2838" style="stop-color:#A4B5D3"/>
	<stop  offset="0.5858" style="stop-color:#F1F3F2"/>
	<stop  offset="0.6" style="stop-color:#5878B5"/>
	<stop  offset="0.9" style="stop-color:#F1F3F2"/>
</linearGradient>
<path fill="url(#SVGID_1_)" d="M1043.2,22.5c-5.9-2.8-10.7-4-16.2-5.3c-7.2-1.7-14.6-2.4-22-3c-8-0.6-16.1-0.5-24.2-0.6
	c-8.5-0.1-16.9,0.1-25.4,0.1c-6.2-0.1-12.5-0.1-18.7-0.4c-7.4-0.3-14.8-0.8-22.2-1.5c-6.3-0.7-12.7-1.5-18.9-2.7
	c-6.3-1.2-12.6-2.6-18.8-4.4c-4.8-1.4-9.5-3.3-14.2-5.1c-0.8-0.3-1.7-0.7-2.3-0.6c-0.5,0.1-1.7,0.9-2.5,1.5c-3.5,2.4-7,4.7-10.8,6.4
	c-3.3,1.5-6.8,2.5-10.2,3.5c-1.8,0.5-3.7,0.9-5.6,1.3c-2.9,0.6-5.8,1.2-8.7,1.7c-5.6,0.8-11.3,1.4-17,1.7c-14.1,0.4-16.6,0.3-20,0.3
	c-9.5,0-12,0.1-18.1-0.3c-5.7-0.4-11.4-0.9-17-1.7c-2.9-0.4-5.8-1.1-8.7-1.7c-1.9-0.4-3.7-0.7-5.6-1.3c-3.5-1-6.9-2-10.2-3.5
	c-3.8-1.7-9.4-5.4-10.8-6.4c-1.4-1-2-1.7-2.6-1.7c-0.8,0-1.4,0.4-2.2,0.7c-4.7,1.8-9.4,3.7-14.2,5.1c-6.2,1.8-12.5,3.2-18.8,4.4
	c-6.3,1.2-12.6,2-18.9,2.7c-7.4,0.8-14.8,1.2-22.2,1.5c-6.2,0.3-12.5,0.4-18.7,0.4c-8.5,0.1-16.9-0.2-25.4-0.1
	c-8.1,0.1-16.1,0-24.2,0.6c-7.4,0.6-14.8,1.4-22,3c-5.6,1.3-10.3,2.5-16.3,5.3c-5.5,2.6-12.7,7.3-12.7,13.5
	c0,6.1,7.1,10.5,12.5,13.5c2.8,1.6,11.5,4.3,17.5,5.7c6.9,1.6,13.9,2.4,21,3.1c8.4,0.7,16.9,0.6,25.3,0.8H980
	c8.4-0.1,16.9,0,25.3-0.8c7-0.6,14.1-1.4,21-3.1c6-1.4,14.6-4.1,17.5-5.7c5.3-3,12.5-7.4,12.5-13.5
	C1055.9,29.8,1048.6,25.1,1043.2,22.5z M1036.8,44.7c-4.5,3.4-10.2,4.7-15.7,6.1c-5.3,1.4-10.8,1.8-16.3,2.3
	c-8.4,0.7-26.4,0.7-26.4,0.7H593.2c-8.4-0.1-17.6,0-26.3-0.7c-5.5-0.5-11-0.9-16.3-2.3c-5.4-1.4-11.2-2.7-15.7-6.1
	c-2.9-2.2-6.6-5.3-6.6-8.8c0-2.3,1.8-4.3,3.5-5.8c4.5-4,10.6-5.7,16.3-7.4c6.6-2,13.5-2.6,20.4-3.2c7-0.6,21.2-0.5,21.2-0.5h388.7
	c8.1,0.1,16.6-0.2,24.8,0.5c6.8,0.6,13.8,1.2,20.4,3.2c5.7,1.7,11.9,3.4,16.3,7.4c1.7,1.5,3.5,3.5,3.5,5.8
	C1043.4,39.5,1039.7,42.5,1036.8,44.7z"/>
<linearGradient id="rect7344_1_" gradientUnits="userSpaceOnUse" x1="786.8848" y1="-389.6805" x2="786.8848" y2="-454.556" gradientTransform="matrix(1 0 0 -1 -1.1348 -390.8554)">
	<stop  offset="0.3553" style="stop-color:#F1F3F2"/>
	<stop  offset="0.4382" style="stop-color:#A4B5D3"/>
	<stop  offset="0.56" style="stop-color:#F1F3F2"/>
	<stop  offset="0.58" style="stop-color:#5878B5"/>
	<stop  offset="0.7858" style="stop-color:#F1F3F2"/>
</linearGradient>
<path id="rect7344" fill="url(#rect7344_1_)" d="M916,23.1l4.4,6.7h12.1l-4.4-6.7H916z M952.8,23.1l-4.4,6.7h12.1l4.4-6.7H952.8z
	 M566.3,23.7v6.1h53.9h5.4c0-3.3-2.4-6-5.4-6.1H566.3z M631.7,23.7v6.1h39v-6.1H631.7z M681.8,23.7c-3,0-5.4,2.7-5.4,6.1h5.4h5.5
	h35.2v-6.1H681.8L681.8,23.7z M733.4,23.7c-3,0-5.4,2.7-5.4,6.1h5.4h5.5H766h5.6c0-3.4-2.5-6.1-5.5-6.1c-0.1,0-0.1,0-0.2,0H733.4z
	 M797.3,23.7v6.1h40.2h5.4c0-3.3-2.4-6-5.4-6.1H797.3z M855.1,23.7L855.1,23.7c-2.8,0.3-5,2.9-5,6.1h5h5.9h20.1h2.6h8.9h2.1
	c0-3.3-2.4-6-5.4-6.1C889.3,23.7,855.1,23.7,855.1,23.7z M901.2,23.7v6.1h10.9v-6.1H901.2z M969.2,23.7v6.1h39v-6.1H969.2z
	 M541.3,29c-3.9,0-7,3.1-7,7s3.1,7.1,7,7.1s7-3.2,7-7.1S545.1,29,541.3,29z M1030.2,29c-3.9,0-7.1,3.1-7.1,7s3.2,7.1,7.1,7.1
	c3.9,0,7-3.2,7-7.1S1034.1,29,1030.2,29z M566.3,31.8v18.1h10.8V31.8H566.3z M590.4,31.8v18.1h10.9V31.8H590.4z M614.5,31.8v18.1h11
	V31.8H614.5z M631.7,31.8v11.6c0.1,3.6,3.5,6.5,7.5,6.5h31.5v-6.1H645c-1.3,0-2.4-1.1-2.4-2.4v-1.5h26.2v-5.6H645
	c-1.3,0-2.4-1.1-2.4-2.4h-1L631.7,31.8L631.7,31.8z M676.3,31.8v11.8l0,0c0.2,3.3,3.1,6,6.8,6.3l0,0h32l0,0c4.1-0.3,7.3-3.6,7.3-7.8
	c0-4.3-3.5-7.8-7.8-7.8h-0.1h-18.7v5.6h13.5c1.1,0,2,0.9,2,2s-0.9,2-2,2h-20.1c-1.1,0-2-0.9-2-2v-10L676.3,31.8L676.3,31.8z
	 M727.9,31.8v18.1h10.9V31.8H727.9z M760.7,31.8v5.4h-19.9v7.1h19.9v5.6h11V31.8H760.7z M797.3,31.8v18.1h10.9V31.8H797.3z
	 M831.9,31.8v10c0,1.1-0.9,2-2,2h-20.2v6.1H836l0,0c3.8-0.3,6.9-3.2,6.9-6.7V31.8H831.9z M850.1,31.8v18.1H861V31.8H850.1z
	 M883.7,31.8v3.4c0,0,0,0,0,0.1c0,1.1-0.9,1.9-2,1.9h-2.4h-15.9v7.1h15.3l5.5,5.6h13.1l-7.5-7.6c2.9-1.2,4.9-4,4.9-7.2v-3.3H894
	H883.7L883.7,31.8z M901.2,31.8v18.1h10.9V31.8H901.2z M921.7,31.8l12,18.1h1.2h10.9h1.2l12-18.1h-12.1l-6.6,9.9l-6.6-9.9H921.7z
	 M969.2,31.8v11.6c0.1,3.6,3.5,6.5,7.5,6.5h31.5v-6.1h-25.7c-1.3,0-2.4-1.1-2.4-2.4v-1.5h26.2v-5.6h-23.7c-1.3,0-2.4-1.1-2.4-2.4
	L969.2,31.8L969.2,31.8z"/>
<path d="M760.2,3.5h7.7c3.2,0,5.7-2.6,5.7-5.7c0-3.2-2.6-5.7-5.7-5.7h-2c-0.2,0-0.3-0.1-0.3-0.3c0-0.2,0.1-0.3,0.3-0.3h7.7v-2.4
	h-7.7c-1.5,0-2.7,1.2-2.7,2.7s1.2,2.7,2.7,2.7h2c1.8,0,3.3,1.5,3.3,3.3s-1.5,3.3-3.3,3.3h-7.7V3.5L760.2,3.5z M760.2,0.5h7.7
	c1.5,0,2.7-1.2,2.7-2.7s-1.2-2.7-2.7-2.7h-2c-1.8,0-3.3-1.5-3.3-3.3s1.5-3.3,3.3-3.3h7.7v-2.4h-7.7c-3.2,0-5.7,2.6-5.7,5.7
	c0,3.2,2.6,5.7,5.7,5.7h2c0.2,0,0.3,0.1,0.3,0.3s-0.1,0.3-0.3,0.3h-7.7V0.5L760.2,0.5z M779.6,1.1c-1.3,0-2.4-1.1-2.4-2.4v-7.9
	c0-1.3,1.1-2.4,2.4-2.4h8.3V-14h-8.3c-2.7,0-4.9,2.2-4.9,4.9v7.7c0,2.7,2.2,4.9,4.9,4.9h8.2V1.1H779.6L779.6,1.1z M777.8-9.1
	c0-1,0.8-1.9,1.8-1.9h8.3v2.4h-7.1c-0.6,0-0.6,0.6-0.6,0.6h5.9v2.4h-8.4v-3.5H777.8z M779.6,0.5c-1,0-1.8-0.8-1.8-1.8V-5h8.4v2.4
	h-5.9c0,0.6,0.6,0.6,0.6,0.6h7.1v2.4L779.6,0.5L779.6,0.5z M793.7,1.1c-1.4,0-2.4-1.1-2.4-2.4v-7.8c0-1.3,1.1-2.4,2.4-2.4h8v-2.4h-8
	c-2.7,0-4.9,2.2-4.9,4.9v7.7c0,2.7,2.2,4.9,4.9,4.9h8V-8h-6.9v2.4h4.5V1L793.7,1.1L793.7,1.1z M791.8-1.4c0,1,0.8,1.9,1.9,1.9h5V-5
	h-3.9v2.4h1.4V-2h-1.4c-0.3,0-0.6-0.3-0.6-0.6V-8c0,0,0-0.6,0.6-0.6h6.9V-11h-8c-1,0-1.9,0.8-1.9,1.9V-1.4L791.8-1.4z M809.2-11
	c0.1-0.3,0.4-0.5,0.7-0.5s0.6,0.2,0.7,0.5l3.9,11.5h-5.7v-2.7h1.9L810-4.8l-2.8,8.2h-2.9L809.2-11L809.2-11z M815.4,1.1h-6.5v2.4
	h9.8l-5.1-15.2c-0.4-1.5-1.9-2.6-3.6-2.6s-3.2,1.1-3.7,2.6l-5.2,15.2h2.6l5-14.8c0.2-0.5,0.7-0.8,1.3-0.8s1,0.3,1.2,0.8L815.4,1.1
	L815.4,1.1z"/>
</svg>
