<?xml version="1.0" encoding="utf-8"?>
<!-- Generator: Adobe Illustrator 19.1.0, SVG Export Plug-In . SVG Version: 6.00 Build 0)  -->
<svg version="1.1"
	 id="Layer_2" xmlns:dc="http://purl.org/dc/elements/1.1/" xmlns:cc="http://creativecommons.org/ns#" xmlns:rdf="http://www.w3.org/1999/02/22-rdf-syntax-ns#"
	 xmlns="http://www.w3.org/2000/svg" xmlns:xlink="http://www.w3.org/1999/xlink" x="0px" y="0px"
	 viewBox="1853.21 -395.7 1858.08 459" enable-background="new 1853.21 -395.7 1858.08 459" xml:space="preserve">
<path d="M3706.26,31.36c-23.91-29.28-48.29-59.48-72.46-89.76c-8.85-11.09-20.63-16.71-35.01-16.71l-0.42,0
	c-9.59,0.07-19.22,0.08-26.54,0.08l-21.51-0.01c-5.69,0-11.38,0-17.09,0.03c-2.15-15.22-12.69-23.83-29.61-23.84l-10.52-0.01
	c-6.95-0.01-13.9-0.01-20.86-0.01c-10.6,0-19.58,0.01-27.8,0.04c0.09-7.55,0.09-14.54,0-21.12c10.25,0.06,19.02,0.08,27.26,0.08
	c11.6,0,22.1-0.05,32.11-0.16c5.86-0.06,11.5-1.39,15.88-3.75c6.29-3.39,10.97-9.78,13.18-17.99c2.48-9.24,1.33-19.04-3.09-26.23
	c-3.76-6.11-11.22-13.4-25.46-13.41l-9.9-0.01c-7.4-0.01-14.79-0.02-22.19-0.02c-10.54,0-19.51,0.02-27.76,0.06
	c0.09-6.35,0.09-12.4,0-18.28c10.34,0.06,19.14,0.09,27.36,0.09c11.53,0,21.96-0.06,31.89-0.17c5.9-0.06,11.63-1.39,16.13-3.72
	c14.63-7.6,14.09-23.24,13.89-29.12c-0.58-17.17-11.94-28.29-28.91-28.31l-17.88-0.04c-13.06-0.03-26.12-0.06-39.19-0.06
	c-13.33,0-25.07,0.03-35.88,0.09c-4.76,0.03-9.88,1.32-14.42,3.63c-14.48,7.39-14.46,22.39-14.46,27.32
	c0.02,21.29,0.02,42.57,0.03,63.86c0,29.83,0.01,60.62,0.07,91.02c-3.2-0.04-6.68-0.06-10.61-0.06c-3.41,0-6.81,0.01-10.22,0.03
	c-2.55,0.01-5.09,0.02-7.64,0.03l0-37.16c0-45.94-0.01-91.87,0.03-137.8c0.01-16.93-8.86-24.2-16.31-27.32
	c-5.5-2.31-11.35-2.58-16.87-2.67c-0.27,0-0.53-0.01-0.8-0.01c-19.36,0-30.46,11.25-30.46,30.85l0,27.56
	c-0.01,48.06-0.02,97.69,0.08,146.62c-20.55-0.05-41.91-0.08-63.57-0.08c-19.97,0-39.94,0.02-59.92,0.06
	c0.09-33.3,0.09-67.07,0-100.59c9.07,0.04,18.96,0.06,31.19,0.06c6.37,0,34.08-0.02,34.08-0.02c18.58,0,30.13-11.52,30.14-30.07
	c0.01-33.72,0.01-67.44,0-101.17c-0.01-18.51-11.57-30.01-30.18-30.01c-17.22,0-34.43-0.01-51.64-0.01l-48.65,0
	c-19.56,0-30.78,11.2-30.78,30.73v231.03c-13.99-0.02-27.97-0.03-41.96-0.03c-15.29,0-30.59,0.01-45.89,0.04c0-0.18,0-0.36,0-0.54
	c3.32,0.04,6.9,0.07,10.93,0.07c4.16,0,8.33-0.02,12.49-0.04l6.35-0.03c18.55-0.07,30.08-11.63,30.09-30.16
	c0.01-34.97,0-69.95,0-104.92l0-19.79c0-19.08-11.46-30.47-30.66-30.47h-123.84c-19.52,0-30.72,11.24-30.73,30.84
	c-0.01,41.14-0.01,82.27,0,123.4c0,20.02,10.97,31.07,30.89,31.1l7.19,0.01c3.53,0.01,7.06,0.02,10.6,0.02
	c3.57,0,6.76-0.01,9.71-0.03c0,0.19,0,0.38,0,0.56c-15.39-0.05-31.28-0.07-48.38-0.07c-15.69,0-31.38,0.02-47.1,0.06
	c-2.11,0-3.32-0.55-4.77-2.16c-10.14-11.25-20.3-22.47-30.47-33.7c0,0-13.45-14.84-13.61-15.02c3.4,0,6.8,0.01,10.2,0.01
	c6.84,0,13.68-0.01,20.52-0.05c16.79-0.09,28.62-11.49,28.77-27.73c0.23-25.99,0.23-52.74,0-79.53
	c-0.14-16.26-11.8-27.65-28.36-27.69l-9.56-0.02c-14.88-0.04-29.75-0.08-44.62-0.08c-13.68,0-25.8,0.03-37.05,0.11
	c-4.7,0.03-9.84,1.39-14.47,3.81c-9.36,4.91-14.11,13.82-14.1,26.49c0,19.41-0.01,38.81-0.03,58.22
	c-0.03,31.9-0.05,64.83,0.02,97.32c-4.41-0.1-8.98-0.14-13.85-0.14c-4.82,0-9.98,0.05-15.66,0.14
	c0.12-65.51,0.12-132.95,0.01-200.61c10.76,0.07,21.55,0.11,32.15,0.11c12.65,0,25.4-0.05,37.89-0.16
	c4.11-0.04,10.17-0.68,15.72-3.54c14.67-7.55,14.32-22.75,14.19-28.46c-0.41-17.66-11.84-29.08-29.12-29.08
	c-18.95-0.01-37.9-0.02-56.85-0.03c-24.59-0.02-49.19-0.03-73.78-0.03c-24.2,0-48.39,0.02-72.59,0.06
	c-4.89,0.01-10.2,1.35-14.6,3.68c-12.24,6.5-16.65,18.93-13.1,36.95c2.45,12.44,13.4,20.51,27.91,20.54
	c11.54,0.02,23.07,0.04,34.61,0.04c12.43,0,23.78-0.02,34.54-0.06c-0.09,62.16-0.09,127.91-0.02,200.58
	c-4.39-0.04-8.88-0.06-13.42-0.06c-4.67,0-9.52,0.02-14.51,0.06c-2.29-15.16-12.97-23.72-30.05-23.73c-6.49,0-12.97-0.02-19.46-0.04
	c-7.47-0.02-14.93-0.04-22.4-0.04c-6.23,0-11.87,0.01-17.14,0.04c0.12-6.92,0.12-13.99,0-21.14c9.62,0.06,18.53,0.09,27.11,0.09
	c11.33,0,21.83-0.05,32.1-0.16c4.14-0.04,10.24-0.69,15.75-3.53c12.57-6.48,17.83-21.37,13.4-37.94
	c-3.17-11.86-14.43-19.86-28.02-19.9l-6.99-0.02c-10.73-0.04-21.46-0.07-32.18-0.07c-7.63,0-14.6,0.02-21.16,0.06
	c0.11-6.48,0.11-12.52-0.01-18.24c8.65,0.07,17.97,0.1,28.34,0.1c10.61,0,21.23-0.03,31.84-0.07c16.29-0.05,26.93-9.18,29.18-25.04
	c1.49-10.5-0.89-19.98-6.69-26.69c-5.23-6.05-12.91-9.4-21.63-9.43c-20.14-0.08-36.48-0.11-51.42-0.11
	c-15.23,0-29.11,0.04-42.42,0.11c-4.74,0.03-9.74,1.28-14.08,3.53c-6.54,3.4-14.33,10.66-14.31,25.96
	c0.03,21.04,0.03,42.07,0.04,63.11c0,30.54,0.01,62.06,0.09,93.18c-7.47-0.07-14.8-0.1-21.85-0.1c-8.61,0-17.13,0.05-25.31,0.15
	h-0.12c-0.87,0-1.2-0.12-1.2-0.12c-0.02-0.01-0.34-0.26-0.87-1.17c-9.69-16.46-19.63-33.13-29.24-49.25
	c-3.59-6.03-7.19-12.06-10.78-18.08c-6.27-10.53-18.99-31.93-18.99-31.93l24.18,0.01c9.64,0,19.22-0.01,28.81-0.02
	c16.94-0.04,28.84-11.63,28.93-28.19c0.18-33.5,0.18-67.76,0.01-104.74c-0.07-16.36-12.01-28.26-28.38-28.29
	c-15.06-0.03-30.12-0.05-45.18-0.05c-22.06,0-41.54,0.04-59.54,0.13c-4.7,0.03-9.71,1.32-14.11,3.66c-9.3,4.93-14.01,13.7-14,26.04
	c0.06,61.34,0.05,123.71,0.05,184.03l0,47.89c-5.21,0-27.36-0.02-33.23-0.02c-12.96,0-22.93,0.03-32.33,0.08l-0.12,0
	c-2.66,0-3.65-0.67-4.85-2.17c-0.46-0.57-0.93-1.15-1.39-1.72c0.26-0.57,0.51-1.16,0.73-1.8c2.7-6.24,3.82-13.92,4.07-16.45
	c4.54-5.35,5.04-16.34,5.04-20.87v-1.93l-0.72-1.79c-0.1-0.25-0.21-0.5-0.33-0.74c-0.78-2.43-2.12-4.72-3.93-6.72
	c-0.45-0.5-0.92-0.95-1.39-1.37c0.16-2.03,0.24-4.05,0.18-5.46l-0.13-3.29l-1.27-1.58c-2.7-6.12-9.08-9.55-13-11.25
	c-0.1-0.48-0.21-0.89-0.34-1.28l-2.24-6.7l-1.72-0.03c-1.31-1.41-2.88-2.67-4.68-3.72c-3.25-1.88-6.55-2.78-9.2-3.49
	c-0.93-0.25-1.83-0.5-2.61-0.75c-0.9-1.7-2.25-3.5-4.3-5.21c-4.02-3.29-8.88-4.61-12.19-5.31l-0.13-0.03
	c-1.12-0.23-2.21-0.39-3.16-0.54c-1.33-0.21-2.48-0.39-3.43-0.66c-0.34-0.1-0.72-0.2-1.06-0.31c-0.58-0.7-1.39-1.56-2.47-2.36
	c-5.74-4.36-12.25-4.94-17.48-5.4c-2.27-0.2-4.41-0.39-5.85-0.83c-0.26-0.09-1.02-0.53-1.57-0.86c-1.6-0.95-3.79-2.24-6.72-3.02
	c-3.21-0.91-6.62-1.37-10.12-1.37c-0.47,0-0.94,0.01-1.38,0.02c-0.4,0.01-0.8,0.02-1.2,0.02c-2.12,0-3.97-0.18-5.66-0.56
	c-0.38-0.1-1.07-0.39-1.73-0.67c-1.51-0.63-3.38-1.42-5.73-1.88c-2.26-0.48-4.59-0.7-7.32-0.7c-1.71,0-3.32,0.09-4.87,0.17
	c-1.22,0.07-2.37,0.13-3.45,0.14c1.69-21.5,3.55-45.41,4.89-62.62l0-0.01c20.77-11.43,34.78-32.49,37.09-56.28
	c0.24-2.13,0.35-4.37,0.35-7.05c0-39.86-32.43-72.29-72.29-72.29c-1.28,0-2.59,0.04-4.03,0.12c-0.3,0.02-0.6,0.04-0.9,0.07
	l-0.31,0.02c-0.93,0.07-1.86,0.14-2.8,0.25c-0.37,0.04-0.73,0.09-1.1,0.14l-0.23,0.03c-0.89,0.11-1.77,0.24-2.66,0.39
	c-0.42,0.07-0.84,0.15-1.26,0.23c-0.92,0.17-1.83,0.36-2.75,0.57c0,0-0.78,0.18-1.06,0.24c-1,0.24-2,0.51-3.08,0.82
	c0,0-0.49,0.14-0.65,0.18c-5.06,1.52-9.98,3.61-14.61,6.22l-0.29,0.17c-1.02,0.58-2.05,1.2-3.02,1.82l-0.44,0.28
	c-0.94,0.61-1.89,1.25-2.82,1.92l-0.45,0.32c-0.9,0.66-1.81,1.35-2.72,2.08c-0.13,0.1-0.26,0.2-0.38,0.3
	c-0.9,0.73-1.79,1.49-2.63,2.24c-0.1,0.09-0.21,0.18-0.34,0.3c-0.9,0.82-1.78,1.66-2.61,2.49c-0.61,0.61-1.21,1.25-1.8,1.88
	l-0.21,0.23c-0.13,0.14-0.27,0.28-0.4,0.42c-1.18,1.3-2.2,2.48-3.11,3.62l-1.07,1.34l-0.07,0.21c-9.48,12.59-14.48,27.56-14.48,43.4
	c0,26.45,14.5,50.69,37.4,63.31c1.33,15.87,3.35,40.16,5.11,62.38c-0.34-0.02-0.69-0.04-1.04-0.05c-1.58-0.08-3.22-0.17-4.96-0.17
	c-2.42,0-4.58,0.18-6.66,0.55c-2.52,0.47-4.58,1.31-6.24,1.98c-0.75,0.3-1.46,0.59-1.98,0.75c-1.9,0.43-3.56,0.64-5.09,0.64
	c-0.32,0-0.65-0.01-1.03-0.03c-0.75-0.04-1.52-0.07-2.29-0.07c-3.87,0-7.83,0.58-11.44,1.67l-0.15,0.05
	c-2.49,0.8-4.31,1.94-5.64,2.77c-0.36,0.22-0.85,0.53-0.96,0.59c-1.6,0.51-3.81,0.71-6.16,0.91c-4.75,0.42-10.67,0.95-16.22,4.46
	l-0.2,0.13c-1.58,1.05-2.66,2.26-3.38,3.17c-0.17,0.05-0.37,0.11-0.63,0.18l-0.21,0.06c-1.08,0.31-2.46,0.54-3.91,0.78
	c-1.59,0.26-3.39,0.55-5.26,1.04l-0.25,0.07c-3.8,1.08-9.25,3.09-12.84,7.94l-0.14,0.2l-0.14,0.2c-0.37,0.56-0.68,1.12-0.92,1.66
	c-0.47,0.13-1.03,0.29-1.61,0.44c-4.46,1.21-11.8,3.19-15.99,8.55l-2,0.58c0,0-1.06,6.35-1.07,6.43c-3.15,1.3-6.47,3.05-9.31,5.99
	c-1.41,1.43-2.54,3.08-3.34,4.86l-0.84,0.98c0,0-0.45,3.62-0.47,3.76c-0.27,2.11-0.56,4.34-0.59,6.62c-2.74,2.76-4.55,6-5.23,9.4
	c-2.01,7.25,2.37,17.28,4.4,21.34l0.11,0.22l0.12,0.21c0.13,0.23,0.27,0.46,0.41,0.68c0,0.12,0,0.24,0.01,0.35
	c0.06,1.7,0.39,3.39,0.99,5.03c0.6,2.57,2.23,9.17,3.39,11.87c0.07,0.17,0.15,0.37,0.23,0.57c1.18,2.93,3.38,8.39,8.63,11.42
	l0.17,0.09c0.84,0.47,1.71,0.82,2.58,1.09c6.83,18.3,23.91,64.05,26.57,71.07c7.25,19.21,23.59,34.98,47.24,45.59
	c20.61,9.3,46.75,14.42,73.59,14.42c26.89,0,53.3-5.19,74.37-14.61c24-10.78,40.54-26.6,47.84-45.77l18.59-48.87
	c6.63,5.32,14.53,8.12,23.23,8.17c11.79,0.07,23.61,0.11,35.14,0.11c14.47,0,28.95-0.06,43.05-0.17c4.7-0.04,9.75-1.43,14.21-3.91
	c13.64-7.59,13.63-21.89,13.63-26.59c-0.01-23.39-0.01-46.79-0.01-70.18c0-11.49,0-23.07,0-34.7
	c20.52,34.71,42.95,72.39,70.35,118.22c6.59,11.03,17.3,17.15,30.16,17.24c9.89,0.07,18.82,0.1,27.33,0.1
	c11.3,0,21.67-0.06,31.71-0.17c4.71-0.05,9.72-1.39,14.11-3.77c8.57-4.65,13.21-12.7,13.81-23.95c4.07,2.37,9.45,3.97,16.56,3.97
	h2.04c5.22,0,10.45,0.01,15.67,0.01c5.23,0.01,10.46,0.01,15.69,0.01c10.46,0,18.85-0.02,26.56-0.08
	c0.73,6.11,3.19,11.45,7.25,15.64c5.13,5.3,12.53,8.23,20.84,8.26c7.8,0.03,15.59,0.05,23.39,0.05c7.35,0,14.7-0.02,22.05-0.05
	c9.44-0.05,17.38-4.03,22.39-10.51c5.03,6.6,13.12,10.5,23.12,10.52c6.51,0.02,13.01,0.02,19.52,0.02l25.42-0.01
	c19.17-0.01,30.17-11.07,30.18-30.33c0-17.29,0.02-34.57,0.03-51.86c0-2.44,0-4.89,0.01-7.35c0.44,0.56,0.92,1.13,1.43,1.69
	c21.71,24.08,44.97,49.82,67.97,74.99c7.68,8.41,18.02,12.85,29.92,12.85l58.98,0c15.22,0,30.45,0,45.67-0.02
	c11.57,0,20.49-5,25.23-13.47c4.61,8.25,13.42,13.43,24.12,13.45c15.67,0.03,31.34,0.05,47.01,0.05c21.93,0,41.37-0.04,59.45-0.13
	c4.75-0.02,9.77-1.32,14.15-3.66c4.07-2.18,7.27-5.11,9.58-8.77c4.89,8.12,13.81,12.54,26.02,12.54h136.92
	c11.71,0,20.44-4.02,25.55-11.44c5,7.16,13.36,11.41,23.78,11.43l7.55,0.02c5.23,0.02,10.46,0.04,15.69,0.04
	c8.65,0,15.73-0.05,22.3-0.16c5.06-0.08,10.15-1.32,14.35-3.48c8.98-4.63,13.75-12.85,14.22-24.48c0.8,0.46,1.63,0.89,2.49,1.28
	c4.04,1.84,8.96,2.79,14.62,2.84c10.43,0.08,21.26,0.12,32.18,0.12c8.87,0,18.06-0.03,27.44-0.08c2.02,14.88,12.82,23.9,29.19,23.91
	l13.99,0.01c7.92,0.01,15.85,0.02,23.77,0.02c13.67,0,24.83-0.03,35.2-0.08c2.84,0,3.95,0.77,5.23,2.37
	c10.02,12.56,20.28,25.26,30.21,37.53c4.07,5.03,8.14,10.07,12.21,15.11c10.03,12.43,20.06,24.86,30.08,37.3
	c1.93,2.4,7.05,8.77,15.85,8.77c1.31,0,2.66-0.15,3.99-0.44c6.39-1.39,11.46-5.8,13.55-11.8
	C3712.52,44.57,3711.03,37.2,3706.26,31.36z M2292.2-205.57c-0.01-31.25-0.03-62.72-0.07-93.94c14.31,0.07,28.91,0.11,43.48,0.11
	c14.17,0,28.68-0.04,43.25-0.1c-0.11,28.76-0.11,57.84,0,86.61c-10.73-0.07-21.87-0.11-33.89-0.11c-11.25,0-22.5,0.03-33.75,0.08
	C2303.41-212.88,2296.74-210.25,2292.2-205.57z M2776.3-163.28l-7.24,0c-9.52,0-15.27,3.79-18.67,7.7c0.01-22.57,0-45.39-0.05-68
	c11.84,0.07,24.19,0.1,36.77,0.1c11.96,0,24.14-0.03,37.11-0.09c-0.12,21.08-0.12,40.92,0,60.34c-8.54-0.06-16.74-0.07-23.21-0.07
	L2776.3-163.28z M3003.35-112.79c-10.68,0.14-19.28,5.21-23.8,13.39c-4.75-8.4-13.65-13.37-25.19-13.43l-3.82-0.02
	c-4.78-0.03-9.55-0.05-14.33-0.05c-4.18,0-7.9,0.02-11.37,0.06c0.12-36.49,0.12-73.7,0-110.75c18.27,0.06,36.89,0.08,55.43,0.08
	c18.18,0,36.76-0.03,55.37-0.08c-0.12,35.16-0.12,71.5-0.01,110.74c-4.6-0.05-9.28-0.08-13.97-0.08
	C3015.7-112.92,3009.55-112.87,3003.35-112.79z M3159.8-212.95c-9.02,0-16.31,2.59-21.47,7.35c0-31.3,0-62.61-0.01-93.91
	c13.52,0.07,27.63,0.1,42.92,0.1c13.34,0,27.34-0.03,43.63-0.08c-0.1,32.99-0.09,60.8,0.02,86.57c-9.44-0.03-19.63-0.05-32.2-0.05
	C3185.43-212.96,3159.8-212.95,3159.8-212.95z M3300.67-296.88c5.84,5.75,13.14,8.92,20.56,8.92c7.48,0,14.55-3.05,20.45-8.82
	c5.81-5.69,11.62-11.53,17.24-17.18c2.39-2.41,4.79-4.82,7.19-7.21c5.37-5.37,9.02-13.94,8.89-20.84
	c-0.12-6.09-3.68-14.51-8.28-19.59c-7.9-8.72-16.41-16.93-24.63-24.88l-0.67-0.65c-5.73-5.52-12.9-8.57-20.19-8.57
	c-7.26,0-14.4,3.02-20.1,8.51c-8.23,7.92-16.71,16.4-25.21,25.2c-11.57,11.98-11.44,28.7,0.31,40.65
	C3283.81-313.61,3291.8-305.62,3300.67-296.88z M3320.11-351.01c0.37-0.37,0.74-0.74,1.11-1.12c0.15,0.15,0.3,0.3,0.45,0.45
	c3.22,3.23,6.51,6.54,9.83,9.83c-3.38,3.34-6.84,6.79-10.29,10.29c-3.51-3.55-7.01-7.05-10.28-10.29
	C3314.04-344.91,3317.11-347.99,3320.11-351.01z"/>
<path fill="#FCE10B" d="M3307.68-308.69c8.14,8.02,18.84,8.08,27.02,0.08c8.2-8.03,16.24-16.2,24.35-24.32
	c3.74-3.74,6.04-9.88,5.96-13.58c-0.07-3.57-2.58-9.64-5.7-13.08c-7.89-8.7-16.38-16.88-24.84-25.04
	c-7.95-7.66-18.49-7.7-26.43-0.05c-8.47,8.15-16.78,16.48-24.95,24.94c-7.76,8.03-7.58,18.75,0.25,26.72
	C3291.38-324.85,3299.5-316.74,3307.68-308.69z M3298.68-348.48c7.07-6.89,13.99-13.93,20.99-20.91c0.49-0.49,1.09-0.88,1.68-1.35
	c0.67,0.63,1.2,1.11,1.71,1.61c6.88,6.88,13.7,13.82,20.68,20.59c1.73,1.67,1.39,2.6-0.11,4.07c-6.73,6.61-13.44,13.26-20,20.04
	c-1.92,1.99-3.08,1.76-4.89-0.1c-6.47-6.67-13.08-13.21-19.69-19.74C3297.62-345.66,3296.82-346.67,3298.68-348.48z M3694.59,48.41
	c-4.53,0.99-7.38-1.65-9.94-4.83c-10.02-12.45-20.05-24.88-30.09-37.31c-14.14-17.52-28.34-34.99-42.37-52.59
	c-3.48-4.36-7.65-6.16-13.18-6.13c-24.27,0.13-48.54,0.07-72.82,0.05c-12.5-0.01-19.56-6.74-19.55-19.19c0-4.04-1.44-4.78-5.08-4.76
	c-21.36,0.15-42.73,0.16-64.1-0.01c-3.55-0.03-7.39-0.5-10.57-1.94c-6.48-2.95-9.73-8.59-9.81-15.7
	c-0.14-13.37-0.14-26.75-0.01-40.12c0.11-10.51,7.38-17.75,17.92-17.79c22.53-0.1,45.06-0.09,67.59,0.03
	c3.06,0.02,4.09-0.9,4.02-3.94c-0.08-3.1-1.9-2.97-4.06-2.97c-13.81,0.04-27.62,0.02-41.43,0.02c-8.58,0-17.15,0.06-25.73-0.02
	c-11.01-0.1-18.24-7.29-18.32-18.31c-0.08-11.63-0.03-23.26-0.02-34.88c0.02-12.38,6.96-19.47,19.34-19.51
	c21.95-0.07,43.9-0.02,65.84-0.02c2,0,4.11,0.44,4.36-2.75c0.26-3.46-1.26-4-4.33-3.99c-29.07,0.11-58.14,0.14-87.21-0.02
	c-3.93-0.02-4.84,1.19-4.84,4.93c0.11,53.64,0.03,107.27,0.12,160.9c0.01,7.51-1.86,13.98-8.85,17.58c-2.96,1.52-6.6,2.32-9.94,2.38
	c-15.11,0.25-30.23,0.13-45.34,0.1c-11.77-0.03-18.95-7.21-18.96-19.03c-0.02-60.03-0.01-120.06-0.01-180.09
	c0-5.47-3.17-7.71-8.31-5.74c-0.58,0.22-1.09,1.18-1.22,1.86c-0.2,1.13-0.06,2.32-0.06,3.48c0,59.59,0,119.18,0,178.78
	c0,14.06-6.7,20.74-20.79,20.74c-45.64,0-91.28,0-136.92,0c-13.62,0-20.34-6.66-20.35-20.18c-0.01-38.23-0.01-76.45,0-114.68
	c0.01-13.55,6.8-20.39,20.24-20.39c23.55-0.01,47.09-0.05,70.64,0.05c3.13,0.02,4.48-0.42,4.46-4.12
	c-0.16-32.85-0.13-65.7-0.03-98.55c0.01-2.96-0.63-3.93-3.78-3.91c-33,0.12-65.99,0.16-98.98-0.04c-4.24-0.03-3.78,2.08-3.78,4.78
	c0.02,78.92,0.01,157.84,0.04,236.77c0,7.43-1.85,13.97-8.78,17.67c-2.82,1.51-6.3,2.47-9.48,2.48
	c-35.47,0.17-70.93,0.14-106.39,0.08c-9.71-0.02-16.83-6.12-17.58-15.7c-0.61-7.79-0.64-15.7-0.04-23.49
	c0.75-9.77,7.56-15.75,17.37-15.88c12.5-0.17,25-0.17,37.5,0.03c3.66,0.06,4.66-1.09,4.65-4.7c-0.12-40.55-0.13-81.1,0.02-121.65
	c0.01-3.74-1.09-4.46-4.61-4.45c-40.41,0.13-80.82,0.13-121.22,0c-3.76-0.01-4.98,0.88-4.97,4.8c0.14,40.41,0.14,80.81,0,121.22
	c-0.02,3.98,1.32,4.86,5.02,4.8c11.47-0.22,22.96-0.12,34.44-0.07c12.04,0.06,18.93,6.85,19.08,18.81c0.08,5.81,0.08,11.63,0,17.44
	c-0.16,11.92-7.17,18.87-19.05,18.88c-34.89,0.03-69.77,0.01-104.65,0.01c-8.89,0-16.6-3.08-22.55-9.6
	c-22.74-24.89-45.34-49.9-67.93-74.94c-3.59-3.98-5.62-8.73-3.11-14c2.53-5.3,7.33-7.06,12.97-7.05c20.06,0.03,40.12-0.09,60.18,0.1
	c3.72,0.03,5.02-0.77,4.99-4.75c-0.18-23.69-0.17-47.38-0.01-71.07c0.02-3.71-1.16-4.58-4.72-4.56c-28.05,0.14-56.1,0.16-84.15-0.02
	c-4.03-0.02-5.03,1.03-5.02,5.09c0.14,53.49,0,106.97,0,160.46c0,13.67-6.63,20.33-20.2,20.34c-14.97,0-29.94,0.03-44.91-0.01
	c-11.62-0.03-18.82-7.03-18.82-18.63c-0.05-72.53-0.05-145.05,0-217.58c0.01-12.07,7.03-18.83,19.5-18.86
	c25.29-0.06,50.58-0.01,75.87-0.05c1.85,0,4.22,0.78,4.38-2.61c0.14-2.82-0.37-4.05-3.67-4.04c-66.28,0.1-132.56,0.09-198.84,0.04
	c-2.48,0-4.14,0.15-4.1,3.36c0.04,3.31,1.95,3.29,4.3,3.29c24.71-0.02,49.42,0.02,74.13-0.04c7.29-0.02,13.67,1.9,17.23,8.73
	c1.48,2.84,2.52,6.29,2.53,9.46c0.14,72.96,0.13,145.93,0.08,218.89c-0.01,10.67-7.44,17.96-18.17,18.01
	c-15.11,0.08-30.23,0.06-45.35,0.01c-11.27-0.04-18.68-7.23-18.36-18.53c0.13-4.7-1.45-5.45-5.63-5.41
	c-21.36,0.19-42.73,0.08-64.1,0.09c-7.43,0-14-2.07-17.47-9.12c-1.6-3.25-2.35-7.19-2.44-10.84c-0.3-11.91-0.14-23.84-0.1-35.75
	c0.03-12.98,6.96-19.95,19.84-19.96c21.8-0.02,43.61,0,65.41-0.02c1.94,0,4.23,0.62,4.39-2.66c0.13-2.81-0.48-4.59-3.78-4.17
	c-0.86,0.11-1.74,0.02-2.61,0.02c-21.51,0-43.02,0.03-64.54-0.02c-10.27-0.02-17.5-5.37-18.14-15.47c-0.88-13.88-0.85-27.89,0-41.77
	c0.6-9.79,7.46-15,17.29-15.46c1.3-0.06,2.62-0.02,3.92-0.02c20.93,0,41.86,0.02,62.79-0.03c2.22,0,5.08,1.06,5.13-3.22
	c0.05-4.11-2.5-3.43-4.92-3.43c-28.93,0-57.85,0.07-86.77-0.09c-3.64-0.02-4.56,0.91-4.56,4.54c0.12,53.63,0.07,107.27,0.09,160.9
	c0,7.38-1.74,14.01-8.66,17.76c-2.81,1.52-6.27,2.53-9.46,2.56c-19.62,0.23-39.24,0.21-58.86,0.07
	c-9.42-0.07-16.84-4.32-21.65-12.38c-24.18-40.44-48.3-80.91-72.27-121.47c-6.59-11.15-0.61-21.28,12.41-21.34
	c24.27-0.11,48.55-0.13,72.82,0.06c3.96,0.03,4.8-1.16,4.78-4.92c-0.14-32.27-0.14-64.54,0-96.8c0.02-3.73-0.77-4.94-4.75-4.92
	c-32.41,0.17-64.83,0.18-97.24-0.01c-3.96-0.02-4.74,1.12-4.74,4.84c0.11,78.78,0.07,157.56,0.1,236.33c0,7.36-1.62,14.03-8.5,17.86
	c-2.79,1.55-6.26,2.63-9.43,2.65c-26.02,0.2-52.03,0.22-78.05,0.06c-8.73-0.05-16.06-3.81-21.63-10.49
	c-25.2-30.25-50.29-60.58-75.45-90.86c-2.82-3.39-4.25-7.01-2.02-11.17c1.83-3.41,5.05-5.26,8.72-4.17c2.57,0.76,5.17,2.63,6.92,4.7
	c18.03,21.47,35.89,43.09,53.79,64.66c6.68,8.05,13.47,16.02,20.01,24.17c3.37,4.2,7.45,5.94,12.82,5.9
	c23.26-0.15,46.51-0.06,69.77-0.06c5.71,0,5.72,0,5.72-5.58c0-78.77,0.03-157.56-0.04-236.33c-0.01-7.36,1.93-13.62,8.69-17.21
	c2.83-1.5,6.3-2.48,9.49-2.49c34.88-0.17,69.76-0.15,104.65-0.09c10.85,0.02,18.36,7.29,18.41,18.35
	c0.16,34.88,0.18,69.76-0.01,104.65c-0.06,11.17-7.72,18.23-18.97,18.25c-23.25,0.04-46.5,0.01-70.52,0.01
	c9.62,16.17,18.79,31.6,27.97,47.03c13.34,22.42,26.76,44.8,39.99,67.29c2.57,4.36,5.81,6.27,10.93,6.21
	c17.29-0.21,34.59-0.18,51.89,0c3.86,0.04,5.16-0.82,5.15-5c-0.16-53.78-0.07-107.56-0.14-161.34c-0.01-7.39,2.16-13.57,8.93-17.09
	c2.84-1.48,6.33-2.39,9.53-2.4c31.25-0.17,62.5-0.12,93.75,0c13.03,0.05,20.53,10.24,18.47,24.73c-1.53,10.8-8.01,16.42-19.33,16.46
	c-21.66,0.07-43.32,0.13-64.97-0.07c-4.22-0.04-5.42,1.19-5.29,5.36c0.31,9.44,0.26,18.9,0.01,28.34c-0.09,3.59,0.87,4.62,4.56,4.59
	c21.95-0.17,43.9-0.07,65.84,0c9.18,0.03,16.41,5.04,18.4,12.49c3.13,11.69,0.15,22.12-8.32,26.48c-3.31,1.71-7.49,2.39-11.28,2.42
	c-21.51,0.22-43.02,0.18-64.53,0.03c-3.53-0.02-4.77,0.79-4.68,4.55c0.26,10.6,0.28,21.22,0,31.83c-0.1,3.99,1.29,4.83,4.99,4.81
	c21.36-0.16,42.73-0.01,64.1,0c13.69,0.01,20.45,6.41,20.54,19.98c0.02,3.16,1.02,3.84,3.97,3.81c13.22-0.15,26.46-0.17,39.68,0.01
	c3.17,0.04,3.78-1.01,3.78-3.95c-0.08-70.78-0.09-141.57,0.02-212.35c0-3.65-1.28-4.35-4.56-4.34c-24.85,0.11-49.71,0.09-74.56,0.04
	c-9.46-0.02-16.56-4.53-18.13-12.49c-2.48-12.62-0.84-21.52,7.99-26.2c2.93-1.55,6.6-2.51,9.94-2.51
	c67.73-0.14,135.46-0.02,203.19,0c12.02,0,18.85,7.15,19.14,19.33c0.19,8-1.03,15.37-8.78,19.36c-3.31,1.7-7.46,2.4-11.24,2.43
	c-24.85,0.2-49.71,0.2-74.56,0.01c-4.19-0.03-5.38,1.11-5.37,5.34c0.13,70.06,0.13,140.11-0.01,210.17
	c-0.01,4.3,1.28,5.27,5.38,5.19c12.93-0.27,25.88-0.36,38.8,0.04c4.73,0.14,5.32-1.51,5.31-5.62c-0.13-53.34,0.01-106.68,0-160.03
	c0-7.4,1.78-13.99,8.75-17.65c2.96-1.55,6.58-2.65,9.9-2.67c30.38-0.19,60.76-0.08,91.13,0c10.91,0.03,18.31,6.94,18.4,17.79
	c0.23,26.45,0.24,52.91,0,79.36c-0.1,11.02-7.54,17.78-18.84,17.83c-16.72,0.09-33.43,0.02-50.14,0.03c-0.69,0-1.39,0.07-2.85,0.14
	c5.41,6.01,10.4,11.56,15.41,17.09c14.53,16.05,29.09,32.08,43.58,48.17c3.32,3.68,7.24,5.48,12.25,5.46
	c33.72-0.07,67.44-0.09,101.16,0.04c3.49,0.02,4.62-1.03,4.42-4.44c-0.24-4.05-0.21-8.14-0.01-12.21c0.15-3.09-1.06-4-4.06-3.97
	c-11.19,0.13-22.38,0.06-33.57,0.05c-14.35-0.02-20.92-6.65-20.92-21.12c-0.01-41.13-0.01-82.26,0-123.4
	c0.01-14.1,6.74-20.86,20.74-20.86c41.28,0,82.55,0,123.83,0c13.78,0,20.68,6.84,20.68,20.48c0,41.57,0.01,83.14,0,124.71
	c0,13.08-7.01,20.13-20.14,20.18c-11.63,0.05-23.26,0.18-34.88-0.08c-4.12-0.09-5.36,1.24-5.03,5.21c0.33,3.89,0.17,7.85,0.04,11.77
	c-0.08,2.53,0.68,3.64,3.44,3.64c33.87-0.06,67.73-0.06,101.6-0.01c2.21,0,3.28-0.6,2.95-2.95c-0.12-0.85-0.02-1.74-0.02-2.61
	c0-78.49,0-156.97,0-235.46c0-14.05,6.71-20.74,20.8-20.74c33.43,0,66.86,0,100.29,0c13.23,0,20.19,6.91,20.19,20.03
	c0.01,33.72,0.01,67.44,0,101.16c0,13.14-6.98,20.08-20.16,20.09c-23.69,0.01-47.38,0.07-71.07-0.07c-3.22-0.02-4.21,0.76-4.19,4.07
	c0.11,37.48,0.11,74.96,0,112.44c-0.01,3.33,1.02,4.1,4.22,4.1c44.91-0.1,89.82-0.11,134.74,0.02c3.62,0.01,4.53-0.89,4.53-4.53
	c-0.13-59.88-0.09-119.77-0.09-179.65c0-14.23,6.78-21.08,21.12-20.87c4.42,0.07,9.2,0.23,13.16,1.89
	c7.69,3.22,10.19,10.07,10.18,18.11c-0.04,59.15-0.02,118.31-0.02,177.47c0,7.49,0,7.49,7.49,7.49c12.06,0,24.13-0.18,36.19,0.1
	c4,0.09,4.78-1.24,4.77-4.95c-0.11-53.34-0.05-106.68-0.1-160.02c-0.01-7.71,1.6-14.64,9.01-18.42c2.97-1.52,6.6-2.52,9.94-2.54
	c30.95-0.18,61.91-0.05,92.87,0c11.59,0.02,18.56,7.07,18.95,18.67c0.27,8.04-0.54,15.78-8.52,19.92c-3.42,1.78-7.72,2.55-11.64,2.6
	c-21.51,0.24-43.02,0.19-64.53,0.05c-3.5-0.02-4.81,0.81-4.71,4.57c0.26,9.88,0.23,19.77,0.01,29.64c-0.08,3.29,0.86,4.12,4.1,4.1
	c21.94-0.14,43.9-0.09,65.84-0.06c7.1,0.01,13.06,2.3,16.96,8.66c5.71,9.29,2.63,25.37-6.32,30.2c-3.28,1.76-7.46,2.52-11.24,2.55
	c-21.66,0.24-43.32,0.18-64.97,0.05c-3.32-0.02-4.47,0.73-4.38,4.28c0.25,10.9,0.21,21.8,0.02,32.7c-0.06,3.33,1.11,4.19,4.26,4.17
	c21.66-0.11,43.32-0.06,64.98-0.05c13.25,0.01,19.91,6.36,20.03,19.55c0.03,3.56,1.28,4.33,4.59,4.31
	c23.39-0.12,46.8,0.05,70.2-0.12c11.38-0.08,20.36,3.94,27.55,12.95c24.01,30.08,48.19,60.03,72.53,89.84
	C3703.62,39.21,3701.38,46.93,3694.59,48.41z"/>
<g>
	<path id="path134_2_" fill="#8C1524" d="M1878.39-91.92c9.96,26.68,29.47,78.96,32.26,86.32c6.27,16.63,20.71,30.47,42.02,40.03
		c19.42,8.76,44.21,13.54,69.5,13.54l0,0c25.59,0,50.48-4.88,70.29-13.74c21.51-9.66,36.24-23.5,42.61-40.22l32.76-86.12
		C2166.73-91.72,1878.89-91.82,1878.39-91.92z"/>
	<path id="path140_2_" fill="#AA1922" d="M1996.18-28.9c-6.27,0-12.94-2.09-17.22-7.07c-3.39-3.88-8.46-5.58-13.34-6.07
		c-6.97-0.7-13.34,2.29-20.21,2.29c-6.17,0-13.24-2.09-16.53-8.06c-1.19-2.29-1.19-4.98-3.19-6.77c-2.49-2.49-6.17-3.58-9.46-3.98
		c-6.57-0.8-13.04,1.29-19.12-2.59c-2.39-1.49-4.28-3.98-4.88-6.97c-0.4-1.59-2.99-10.45-3.39-12.35c-0.5-2.79-8.96-0.9-11.85-2.49
		c-2.59-1.49-3.88-5.38-4.68-7.27c-0.8-1.79-3.39-11.75-3.48-13.54c3.09-1.39-0.9-3.78-1.79-5.38c-0.8-1.59-4.88-10.85-3.68-14.34
		c1.79-2.29,7.47-5.58,6.87-6.37c-1.99-2.69-1.29-7.07-0.7-11.75c2.09-2.49,11.35-2.79,12.45-3.78c1.49-1.19,1.1-9.06,1.39-10.85
		c5.48-1.59,12.94-1.29,17.52-3.19l261.56,3.78c0,0,0.2,0.6,0.1,3.68c0.2,1.39,11.65,7.87,14.14,10.95c0.1,2.59-0.5,8.36-0.8,9.66
		c-0.6,2.29,5.77,4.98,6.97,7.97c0,4.08-0.8,12.35-2.69,14.44c-0.6,0.6-3.58,4.48-3.58,5.18c0,0,1.39-1.29,1.29,0.1
		c-0.1,1.39-1.1,8.76-3.48,14.04c-2.19,7.17-10.65,5.68-16.03,7.57c-0.5,2.89-3.09,15.03-5.28,17.92
		c-4.38,5.68-11.75,5.28-18.02,5.08c-3.19-0.1-6.37,0.4-9.36,1.59c-1.39,0.6-2.69,1.39-3.78,2.39c-1.39,1.39-1.69,2.89-2.19,4.78
		c-1.99,6.57-8.76,9.56-14.74,10.06c-5.08,0.5-9.46-1.1-14.34-1.89c-4.78-0.8-9.76-0.5-14.34,1.1c-2.19,0.8-4.28,1.89-5.97,3.48
		c-1.59,1.49-2.89,3.19-4.68,4.48c-3.98,2.79-8.86,3.88-13.64,3.88c-4.88,0-9.76-1.19-14.04-3.68c-4.18-2.49-9.16-3.39-13.84-3.39
		c-4.78,0-9.76,0.9-13.84,3.39C2005.93-30.09,2001.05-28.9,1996.18-28.9"/>
	<path id="path142_2_" fill="#CB2227" d="M1995.48-48.11c-6.37,0-13.24-1.89-17.62-6.47c-3.48-3.58-8.66-5.08-13.74-5.48
		c-7.17-0.7-13.64,2.09-20.71,2.09c-6.27,0-13.54-1.89-16.93-7.27c-1.29-2.09-1.29-4.48-3.19-6.17c-2.59-2.19-6.27-3.29-9.66-3.58
		c-6.77-0.7-13.34,1.19-19.61-2.39c-2.49-1.39-4.48-3.58-4.98-6.27c-0.3-1.29-0.2-2.69,0.1-3.88c0.3-1.29,1.1-2.39,0.5-3.68
		c-1.1-2.39-4.48-3.39-6.97-3.78c-3.19-0.5-6.27-0.6-9.16-1.99c-2.69-1.29-4.68-3.68-4.78-6.57c-0.1-3.29,1.89-5.38,3.98-7.77
		c2.09-2.39,0.7-3.98-2.09-4.68c-2.99-0.7-6.07-2.39-6.97-5.28c-1-3.09,0.9-5.97,3.29-7.97c2.09-1.69,5.28-2.69,6.57-5.08
		c0.5-0.8-2.29-1.99-2.89-2.69c-1.99-2.39-1.39-5.58,0.7-7.67c2.19-2.29,5.18-3.48,8.16-4.58c1.39-0.5,2.69-1.19,3.88-2.09
		c1.49-1.1,0.4-1.29,0.1-2.89c-1.29-7.07,9.76-8.56,14.54-10.16c1.39-0.5,2.89-1.1,4.08-1.99c0.7-0.5,0.7-2.49,1.29-3.39
		c1.69-2.29,4.78-3.48,7.57-4.28c3.09-0.8,6.37-1,9.46-1.89c1.49-0.4,3.09-0.9,4.28-1.79c1-0.7,1.49-2.09,2.69-2.89
		c5.97-3.78,13.74-2.19,20.31-4.38c2.29-0.8,3.88-2.49,6.37-3.29c3.29-1,6.87-1.39,10.26-1.19c3.09,0.2,6.17-0.2,9.16-0.9
		c2.59-0.7,4.88-2.09,7.57-2.59c6.07-1.1,12.15,0.6,18.22-0.4c2.69-0.4,5.08-1.49,7.77-1.79c3.19-0.4,6.57-0.3,9.66,0.5
		c6.37,1.49,12.25-0.7,18.52-0.6c4.68,0,8.76,1.89,13.34,2.29c5.58,0.5,11.15-0.9,16.73,0.3c2.59,0.5,4.68,1.89,7.17,2.49
		c3.09,0.7,6.27,0.9,9.46,0.8c2.89-0.1,5.77,0.2,8.56,1c3.09,0.8,5.08,2.89,7.97,3.78c6.57,1.99,14.74,0.4,20.31,4.68
		c1.1,0.8,1.49,2.09,2.69,2.79c1.29,0.7,2.69,1.1,4.08,1.49c2.39,0.7,4.88,0.9,7.37,1.39c2.79,0.6,5.77,1.49,7.97,3.29
		c1.19,1,2.09,2.19,2.29,3.68c0.2,1.29,1.59,1.79,2.89,2.39c3.98,1.79,8.46,2.09,12.25,4.28c2.39,1.39,4.58,3.78,3.98,6.67
		c-0.3,1.19-1.19,1.59-0.2,2.39c1.29,1,2.79,1.79,4.28,2.39c4.58,1.79,13.04,5.77,9.26,11.75c-0.7,1.1-1.79,1.89-2.99,2.49
		c-0.9,0.4,0.1,1.19,0.6,1.69c2.09,2.19,5.28,3.19,7.27,5.38c1.99,2.19,2.89,5.18,1.39,7.87c-1.69,2.99-4.78,3.29-7.77,4.58
		c-3.19,1.39-1.1,3.68,0.6,5.28c2.19,2.29,3.68,5.48,2.59,8.56c-2.29,6.57-10.16,5.48-15.63,7.17c-2.59,0.8-5.68,2.69-4.38,5.68
		c1.29,3.09,1,6.57-1.29,9.16c-4.48,5.18-12.05,4.78-18.42,4.58c-3.29-0.1-6.57,0.3-9.56,1.49c-1.39,0.5-2.69,1.19-3.78,2.19
		c-1.49,1.29-1.69,2.59-2.29,4.28c-2.09,5.97-8.96,8.66-15.13,9.16c-5.18,0.4-9.66-1-14.64-1.69c-4.88-0.7-10.06-0.5-14.74,1
		c-2.19,0.7-4.38,1.69-6.17,3.19c-1.59,1.39-2.89,2.89-4.78,4.08c-4.08,2.49-9.06,3.58-13.94,3.58c-4.98,0-9.96-1.1-14.34-3.39
		c-4.28-2.19-9.36-3.09-14.24-3.09c-4.88,0-9.96,0.8-14.24,3.09C2005.53-49.21,2000.46-48.11,1995.48-48.11"/>
	<path id="path144_2_" d="M2062.09-149.97c0,10.26-18.22,18.62-40.82,18.62c-22.5,0-40.82-8.36-40.82-18.62
		c0-10.26,18.22-18.62,40.82-18.62C2043.77-168.59,2062.09-160.23,2062.09-149.97"/>
	<path id="path162_2_" fill="#D0CFB9" d="M2021.47-142.9c-5.77,0-15.63-2.29-16.03-10.85c-0.7-16.83-7.77-101.06-9.36-119.98
		l51.08,0.2c-2.79,35.84-9.16,117.99-9.66,121.37c-0.4,2.59-2.49,5.18-5.77,6.97C2029.03-143.7,2025.35-142.9,2021.47-142.9"/>
	<path fill="#FFFFFF" d="M2032.42-145.59l8.56-127.84h-12.84l-4.38,130.53c2.99-0.3,5.77-1,7.87-2.19
		C2031.92-145.29,2032.22-145.49,2032.42-145.59z"/>
	<path id="path166_2_" fill="#AA1922" d="M2083.99-328.79c0,34.45-27.88,62.33-62.33,62.33s-62.33-27.88-62.33-62.33
		s27.88-62.33,62.33-62.33S2083.99-363.24,2083.99-328.79"/>
	<path fill="#CB2227" d="M2083.99-328.79c0-34.35-27.88-62.33-62.33-62.33c-19.81,0-37.44,9.26-48.89,23.6
		c-7.27,21.11-2.59,45.3,14.14,62.03c23.4,23.4,61.73,23.2,85.43-0.5l0,0c4.58-4.58,8.26-9.76,11.15-15.23
		C2083.89-323.71,2083.99-326.2,2083.99-328.79L2083.99-328.79z"/>
	<path id="path170_2_" fill="#FFFFFF" d="M2058.11-370.51c9.66,10.65,10.95,23.4,6.17,25.99c-4.88,2.69-13.74-2.69-22-9.86
		c-8.16-7.27-13.44-16.03-9.96-22.2C2035.6-382.66,2048.45-381.26,2058.11-370.51"/>
	<path id="path152_5_" fill="#55802F" d="M2144.53-138.12l-56.95,0.2l0.1,13.54c0,6.67,3.39,12.05,11.05,15.43
		c5.08,2.29,11.15,3.58,17.42,3.58c5.87,0,11.65-1.1,16.63-3.19c7.57-3.19,11.85-8.36,11.85-14.44v-15.13H2144.53z"/>
	<path id="path152_4_" fill="#609622" d="M2116.05-155.85c-5.87,0-11.65,1.1-16.53,3.19c-6.97,2.89-11.15,7.57-11.75,13.04
		c-0.7,6.27,3.39,12.05,11.05,15.43c5.08,2.29,11.15,3.58,17.42,3.58c5.87,0,11.65-1.1,16.63-3.19c7.57-3.19,11.85-8.36,11.85-14.44
		c0-5.58-3.58-10.35-10.06-13.64c-0.7-0.4-1.29-0.7-1.79-0.8C2127.7-154.75,2122.03-155.85,2116.05-155.85"/>
	<path id="path152_3_" fill="#CEA524" d="M2094.25-112.43l-56.95,0.2l0.1,13.54c0,6.67,3.39,12.05,11.05,15.43
		c5.08,2.29,11.15,3.58,17.42,3.58c5.87,0,11.65-1.1,16.63-3.19c7.57-3.19,11.85-8.36,11.85-14.44v-15.13H2094.25z"/>
	<path id="path152_2_" fill="#FDE209" d="M2065.77-130.16c-5.87,0-11.65,1.1-16.53,3.19c-6.97,2.89-11.15,7.57-11.75,13.04
		c-0.7,6.27,3.39,12.05,11.05,15.43c5.08,2.29,11.15,3.58,17.42,3.58c5.87,0,11.65-1.1,16.63-3.19c7.57-3.19,11.85-8.36,11.85-14.44
		c0-5.58-3.58-10.35-10.06-13.64c-0.7-0.4-1.29-0.7-1.79-0.8C2077.42-128.96,2071.65-130.06,2065.77-130.16"/>
</g>
</svg>
