<?xml version="1.0" encoding="utf-8"?>
<!-- Generator: Adobe Illustrator 19.1.0, SVG Export Plug-In . SVG Version: 6.00 Build 0)  -->
<svg version="1.1"
	 id="Ebene_1" xmlns:dc="http://purl.org/dc/elements/1.1/" xmlns:cc="http://creativecommons.org/ns#" xmlns:rdf="http://www.w3.org/1999/02/22-rdf-syntax-ns#"
	 xmlns="http://www.w3.org/2000/svg" xmlns:xlink="http://www.w3.org/1999/xlink" x="0px" y="0px"
	 viewBox="753 -208.15 566.93 202.38" enable-background="new 753 -208.15 566.93 202.38" xml:space="preserve">
<path fill="#17569B" d="M1013.21-152.58h-42.98v18.39c0,5.23,4.25,9.48,9.48,9.48l42.33,0v-12.42h-36.45c0,0-2.94,0-2.94-2.94h30.56
	L1013.21-152.58L1013.21-152.58z M970.22-173.99v18.39h42.98v-12.5h-30.56c0,0,0-2.94,2.94-2.94h36.61v-12.5H979.7
	C974.47-183.55,970.22-179.22,970.22-173.99z M919.39-168.02h-10.38c-0.82,0-1.47-0.65-1.47-1.47c0-0.9,0.65-1.55,1.47-1.55h39.72
	l0.08-12.42h-39.8c-7.68,0-13.89,6.21-13.89,13.89c0,7.76,6.21,14.06,13.89,14.06h10.38c9.32,0,16.92,7.6,16.92,16.92
	c0,9.32-7.6,16.83-16.92,16.83h-39.8v12.66l0,0h39.8c16.27,0,29.5-13.24,29.5-29.5C948.89-154.86,935.66-168.02,919.39-168.02z
	 M919.31-137.13h-39.72l0,12.5h39.8c7.77,0,13.98-6.29,13.98-13.97s-6.21-13.97-13.98-13.97h-10.38c-9.32,0-16.84-7.68-16.84-17
	c0-9.32,7.52-16.83,16.84-16.83h39.8l-0.08-12.59h-39.72c-16.26,0-29.42,13.16-29.42,29.5c0,16.26,13.16,29.42,29.42,29.42h10.3
	c0.82,0,1.47,0.65,1.47,1.47C920.78-137.79,920.12-137.13,919.31-137.13z M1057.83-171.05h35.3v-12.5h-41.19
	c-5.23,0-9.56,4.33-9.56,9.56l0,39.8c0,5.23,4.33,9.56,9.56,9.56h25.74v-28.03h-19.94v12.59h7.44v2.94h-7.35
	c-1.64,0-2.94-1.39-2.94-2.94v-28.03C1054.89-168.1,1054.89-171.05,1057.83-171.05z M954.7-173.99v39.8
	c0,13.81,11.19,25.01,25.01,25.01h42.33v-12.5l-42.33,0c-6.86,0-12.5-5.47-12.5-12.5v-39.96c0-6.7,5.64-12.34,12.5-12.34h42.49
	v-12.5H979.7C965.89-198.99,954.7-187.8,954.7-173.99z M1154.5-187.23c-2.29-7.6-9.89-13.24-18.88-13.24
	c-8.99,0-16.59,5.56-18.88,13.24l-23.61,69.38v-50.25h-35.39v12.5h22.88v33.91l-28.6,0c-6.95,0-12.59-5.64-12.59-12.5v-39.8
	c0-6.87,5.64-12.5,12.51-12.5h41.19v-12.5h-41.27c-13.81,0-25.01,11.2-25.01,25.01v39.8c0,13.81,11.27,25.01,25.09,25.01h41.19v0
	h10.29l25.74-75.92c1.06-2.53,3.51-4.25,6.46-4.25c2.86,0,5.32,1.72,6.38,4.25l21.5,63.41h-33.26v12.5h50.59L1154.5-187.23z
	 M1130.24-124.54h29.17l-19.94-59.17c-0.57-1.63-2.05-2.78-3.84-2.78c-1.8,0-3.27,1.14-3.84,2.78l-25.25,74.53h14.71l8.99-26.51
	V-124.54L1130.24-124.54z M1135.63-151.6l4.41,13.16h-8.88L1135.63-151.6z"/>
<path fill="#17569B" d="M1173.46-188.62c2.61,0,5.07-0.98,6.86-2.86c1.88-1.88,2.85-4.33,2.85-6.95c0-2.62-0.98-5.07-2.85-6.87
	c-1.8-1.88-4.25-2.86-6.86-2.86c-5.39,0-9.81,4.33-9.81,9.73c0,2.62,1.06,5.07,2.86,6.94
	C1168.39-189.6,1170.84-188.62,1173.46-188.62z M1165.04-198.42c0-2.21,0.9-4.33,2.46-5.97c1.55-1.55,3.68-2.45,5.96-2.45
	c2.21,0,4.33,0.9,5.97,2.45c1.55,1.63,2.45,3.76,2.45,5.97c0,4.66-3.76,8.42-8.42,8.42c-2.29,0-4.42-0.82-5.97-2.45
	C1165.94-194.01,1165.04-196.13,1165.04-198.42z M1170.93-197.61v4.66h-1.39v-10.87h4.01c1.47,0,2.36,0,3.27,0.65
	c0.73,0.57,1.15,1.47,1.15,2.54c0,2.53-2.04,2.86-2.61,2.94l3.02,4.74h-1.72l-2.94-4.66L1170.93-197.61L1170.93-197.61z
	 M1170.93-198.75h2.86c0.49,0,0.9,0,1.31-0.16c1.06-0.24,1.39-0.98,1.39-1.72c0-0.25-0.08-1.06-0.65-1.55
	c-0.57-0.49-1.31-0.41-2.12-0.41h-2.78L1170.93-198.75L1170.93-198.75z"/>
<path fill="#FF0000" d="M835.99-31.6c1.51,0.28,2.71,0.44,3.59,0.47v3.5h0v0H808.7v-3.5c1.12-0.03,2.55-0.15,4.31-0.35
	c1.76-0.19,2.96-0.47,3.62-0.84c1.02-0.62,1.77-1.33,2.24-2.14c0.48-0.81,0.71-1.81,0.71-3.03V-88.3h-0.74l-23.84,59.54h-2.46
	l-22.7-60.77h-0.64v41.71c0,4.04,0.26,7.11,0.76,9.21c0.51,2.1,1.29,3.61,2.34,4.53c0.72,0.69,2.21,1.35,4.48,1.98
	s3.74,0.95,4.43,0.98v3.5H753v-3.5c1.48-0.13,3.03-0.38,4.65-0.74c1.62-0.36,2.88-0.9,3.77-1.62c1.15-0.92,1.94-2.33,2.36-4.24
	c0.43-1.9,0.64-5.09,0.64-9.55v-35.76c0-2.07-0.24-3.76-0.74-5.07c-0.49-1.31-1.2-2.38-2.12-3.2c-1.02-0.89-2.27-1.54-3.74-1.97
	c-1.48-0.42-2.94-0.67-4.38-0.74v-3.5h23.84l19.99,52.4l17.09-43.83c0.62-1.6,1.16-3.29,1.6-5.05c0.44-1.76,0.68-2.93,0.71-3.52
	h22.8v3.5c-0.92,0.03-2.09,0.18-3.52,0.44c-1.43,0.27-2.47,0.51-3.13,0.74c-1.11,0.39-1.87,1.06-2.27,1.97
	c-0.4,0.92-0.59,1.92-0.59,3v50.38c0,1.15,0.2,2.12,0.59,2.91c0.4,0.78,1.15,1.48,2.27,2.06C833.42-32.18,834.48-31.87,835.99-31.6z
	 M940.71-33.34l0,3.59c-2.14,0.89-4.15,1.64-6.06,2.24c-1.9,0.61-4.24,0.91-6.99,0.91c-4.07,0-6.94-1.02-8.59-3.08
	c-1.66-2.05-2.49-4.95-2.49-8.69v-32.9h-5.63l0.44,9.24h-3.4c-0.69-3.48-2.18-6.31-4.46-8.5c-2.28-2.18-5.07-3.27-8.35-3.27
	c-2.69,0-4.81,0.68-6.35,2.02c-1.54,1.35-2.31,2.97-2.31,4.88c0,1.48,0.25,2.71,0.76,3.69c0.51,0.99,1.27,1.82,2.29,2.51
	c0.98,0.66,2.22,1.28,3.72,1.85c1.49,0.57,3.34,1.23,5.54,1.94c2.17,0.69,4.21,1.5,6.13,2.41c1.92,0.93,3.5,1.96,4.75,3.07
	c1.35,1.18,2.38,2.55,3.1,4.08c0.72,1.55,1.08,3.44,1.08,5.66c0,4.5-1.68,8.18-5.05,11.03c-3.37,2.85-7.73,4.28-13.08,4.28
	c-2.83,0-5.43-0.51-7.81-1.53c-2.08-0.89-3.64-1.71-4.68-2.48v1.84h0l0,0c-0.42,0.15-0.82,0.3-1.22,0.43l-0.18,0.6h-1.61
	c-0.36,0.12-0.71,0.22-1.05,0.32c-1.17,0.35-2.49,0.52-3.97,0.52c-2.56,0-4.6-0.6-6.13-1.8c-1.53-1.2-2.5-2.94-2.93-5.24h-0.3
	c-2.13,2.36-4.42,4.17-6.87,5.42c-2.45,1.25-5.39,1.87-8.84,1.87c-3.65,0-6.64-1.11-8.99-3.35c-2.35-2.23-3.52-5.15-3.52-8.76
	c0-1.87,0.26-3.55,0.79-5.02c0.53-1.48,1.31-2.81,2.36-3.99c0.82-0.98,1.91-1.86,3.25-2.63c1.35-0.77,2.61-1.38,3.79-1.85
	c1.48-0.56,4.47-1.59,8.99-3.1c4.52-1.51,7.56-2.69,9.14-3.54v-4.87c0-0.43-0.09-1.25-0.27-2.46c-0.18-1.21-0.57-2.36-1.16-3.45
	c-0.66-1.21-1.58-2.27-2.78-3.18c-1.2-0.9-2.9-1.35-5.1-1.35c-1.51,0-2.91,0.25-4.21,0.76c-1.3,0.51-2.21,1.04-2.73,1.6
	c0,0.66,0.16,1.62,0.47,2.9c0.31,1.28,0.47,2.46,0.47,3.54c0,1.15-0.52,2.2-1.55,3.15c-1.03,0.96-2.47,1.43-4.31,1.43
	c-1.64,0-2.85-0.58-3.62-1.75c-0.77-1.16-1.16-2.47-1.16-3.92c0-1.51,0.53-2.95,1.6-4.33c1.07-1.38,2.45-2.61,4.16-3.69
	c1.48-0.92,3.27-1.7,5.37-2.34c2.1-0.64,4.15-0.96,6.16-0.96c2.76,0,5.16,0.19,7.22,0.57c2.05,0.38,3.91,1.19,5.59,2.44
	c1.67,1.22,2.95,2.87,3.82,4.95c0.87,2.09,1.3,4.77,1.3,8.05c0,4.69-0.05,8.86-0.15,12.48c-0.1,3.63-0.15,7.6-0.15,11.9
	c0,1.28,0.22,2.3,0.66,3.06c0.44,0.76,1.12,1.4,2.04,1.92c0.11,0.07,0.24,0.13,0.39,0.18l-0.36-12.35h3.4
	c0.26,1.28,0.82,2.78,1.67,4.48c0.85,1.71,1.89,3.25,3.1,4.63c1.28,1.45,2.81,2.66,4.6,3.65c1.79,0.98,3.8,1.48,6.03,1.48
	c3.15,0,5.58-0.72,7.29-2.15c1.71-1.43,2.56-3.47,2.56-6.13c0-1.38-0.27-2.56-0.81-3.57c-0.54-1-1.34-1.88-2.39-2.64
	c-1.08-0.76-2.41-1.43-3.99-2.04c-1.58-0.61-3.33-1.21-5.27-1.8c-1.54-0.46-3.26-1.09-5.15-1.9c-1.89-0.81-3.51-1.75-4.85-2.83
	c-1.44-1.15-2.63-2.56-3.55-4.24c-0.92-1.67-1.38-3.64-1.38-5.91c0-3.97,1.48-7.34,4.43-10.1c2.96-2.76,6.91-4.14,11.87-4.14
	c1.9,0,3.85,0.25,5.84,0.74c1.98,0.5,3.6,1.08,4.85,1.77l1.13-2.56h3.54l0.08,1.64h6.05v-15.12h8.96v15.12h13.94v4.73h-13.84v27.13
	c0,2.04,0.07,3.74,0.22,5.1c0.15,1.36,0.5,2.56,1.06,3.57c0.53,0.95,1.31,1.68,2.36,2.17c1.05,0.49,2.46,0.74,4.23,0.74
	c0.82,0,2.03-0.07,3.62-0.23C938.93-32.93,940.05-33.11,940.71-33.34z M866.1-54.52c-2.79,0.82-5.24,1.62-7.34,2.41
	c-2.1,0.79-4.05,1.77-5.86,2.96c-1.64,1.12-2.94,2.44-3.89,3.96c-0.95,1.53-1.43,3.35-1.43,5.44c0,2.73,0.71,4.73,2.14,6.01
	c1.43,1.28,3.24,1.92,5.44,1.92c2.33,0,4.38-0.57,6.16-1.7c1.77-1.13,3.27-2.47,4.48-4.01L866.1-54.52z M970.09-29.8
	c-3.41,2.3-7.34,3.44-11.77,3.44c-3.91,0-7.33-0.69-10.27-2.07c-2.94-1.38-5.36-3.25-7.26-5.61c-1.9-2.36-3.32-5.12-4.26-8.27
	c-0.94-3.15-1.4-6.48-1.4-10c0-3.15,0.5-6.25,1.5-9.29c1-3.03,2.47-5.77,4.41-8.2c1.87-2.33,4.19-4.21,6.97-5.64
	c2.78-1.43,5.89-2.14,9.33-2.14c3.54,0,6.58,0.56,9.11,1.67c2.53,1.12,4.58,2.64,6.16,4.58c1.51,1.84,2.64,4.01,3.37,6.5
	c0.74,2.49,1.11,5.21,1.11,8.12v3.25h-32.16c0,3.19,0.3,6.08,0.91,8.67c0.61,2.6,1.57,4.88,2.88,6.85c1.28,1.91,2.95,3.41,5.02,4.51
	c2.07,1.1,4.53,1.65,7.39,1.65c2.92,0,5.44-0.68,7.56-2.05c2.12-1.35,4.16-3.81,6.13-7.36l3.45,2.11
	C976.23-35.18,973.5-32.09,970.09-29.8z M944.92-57.57l22.46,0c0-1.84-0.16-3.81-0.47-5.91c-0.31-2.1-0.81-3.86-1.5-5.27
	c-0.75-1.51-1.79-2.73-3.1-3.69c-1.31-0.95-3.01-1.43-5.07-1.43c-3.45,0-6.31,1.44-8.59,4.31
	C946.36-66.69,945.12-62.69,944.92-57.57z M1003.7-77.37c-2.07,0-4.35,0.69-6.84,2.07c-2.49,1.38-4.76,3.4-6.8,6.06h-0.25v-6.85
	l-0.69-0.69l-16.15,1.08v3.2c0.98,0.07,1.9,0.19,2.76,0.37c0.86,0.18,1.59,0.47,2.22,0.86c0.85,0.59,1.52,1.38,2,2.36
	c0.47,0.98,0.71,1.99,0.71,3v29.99c0,1.18-0.22,2.14-0.66,2.88c-0.44,0.74-1.12,1.25-2.04,1.55c-0.59,0.2-1.29,0.33-2.09,0.4
	c-0.8,0.07-1.58,0.13-2.34,0.19v3.25h25.61v-3.25c-0.95-0.07-2.08-0.18-3.38-0.35c-1.29-0.16-2.35-0.4-3.18-0.73
	c-0.95-0.36-1.65-0.9-2.09-1.62c-0.44-0.72-0.67-1.66-0.67-2.81v-28.27c1.45-2.3,3.2-4.07,5.27-5.32c2.07-1.25,3.88-1.87,5.42-1.87
	c-0.1,0.59-0.21,1.18-0.32,1.77c-0.11,0.59-0.17,1.25-0.17,1.97c0,1.15,0.48,2.2,1.45,3.15c0.97,0.95,2.37,1.43,4.21,1.43
	c1.71,0,2.97-0.64,3.79-1.94c0.82-1.3,1.23-2.78,1.23-4.46c0-2.26-0.65-4.07-1.95-5.41C1007.45-76.69,1005.76-77.37,1003.7-77.37z
	 M1163.31-32.78c-1.59,0.15-2.8,0.23-3.62,0.23c-1.77,0-3.18-0.25-4.23-0.74c-1.04-0.49-1.84-1.21-2.36-2.17
	c-0.56-1.01-0.92-2.21-1.06-3.57c-0.15-1.36-0.22-3.06-0.22-5.1v-27.13h13.84v-4.73h-13.94v-15.12h-8.97v15.12h-6.05l-0.08-1.64
	h-3.54l-1.14,2.56c-1.25-0.69-2.87-1.28-4.85-1.77c-1.98-0.49-3.93-0.74-5.83-0.74c-3.61,0-6.68,0.74-9.23,2.2v-0.82H1094v3.15
	c1.35,0.17,2.77,0.62,4.26,1.36c1.5,0.74,2.24,1.54,2.24,2.39c0,0.79-0.22,1.73-0.64,2.83c-0.42,1.1-0.75,1.96-0.98,2.58
	c-1.97,5.12-3.75,9.56-5.35,13.32c-1.59,3.76-3.12,7.39-4.6,10.91c-1.41-3.68-3.39-8.57-5.96-14.7c-2.56-6.12-4.47-10.81-5.71-14.06
	c-0.2-0.49-0.37-0.97-0.52-1.43c-0.15-0.46-0.22-0.79-0.22-0.99c0-0.49,0.69-0.93,2.07-1.31c1.38-0.37,2.56-0.58,3.55-0.61v-3.45
	h-17.64l-0.36-21.32h-3.94l-2.02,3.35c-2.1-1.31-4.42-2.46-6.97-3.44c-2.55-0.99-5.43-1.48-8.64-1.48c-2.82,0-5.53,0.48-8.12,1.45
	c-2.59,0.97-4.84,2.31-6.75,4.01c-2,1.8-3.54,3.86-4.63,6.16c-1.08,2.3-1.62,4.78-1.62,7.44c0,4.63,1.09,8.39,3.27,11.26
	c2.18,2.87,5.25,5.2,9.19,6.97c2,0.92,4.38,1.9,7.14,2.93c2.76,1.03,5.2,1.98,7.34,2.83c3.12,1.25,5.47,3.08,7.05,5.49
	c1.57,2.42,2.36,5.02,2.36,7.81c0,1.91-0.25,3.59-0.77,5.05c-0.51,1.46-1.29,2.73-2.34,3.81c-1.05,1.08-2.42,1.92-4.11,2.51
	c-1.69,0.59-3.67,0.89-5.94,0.89c-3.02,0-5.67-0.57-7.95-1.72c-2.28-1.15-4.27-2.69-5.98-4.63c-1.8-2.07-3.26-4.29-4.36-6.67
	c-1.1-2.38-2.06-5.05-2.88-8h-3.99l0.69,23.94h3.94l2.12-3.6c2.26,1.38,4.96,2.56,8.08,3.52c3.12,0.97,6.24,1.45,9.36,1.45
	c6.76,0,12.43-2,16.99-6.01c4.56-4,6.85-9.09,6.85-15.27c0-2.59-0.35-4.86-1.06-6.82c-0.71-1.95-1.79-3.75-3.27-5.4
	c-1.35-1.44-2.93-2.71-4.75-3.8c-1.82-1.08-3.71-2.05-5.69-2.91c-2.17-0.95-4.41-1.85-6.72-2.69c-2.31-0.83-4.67-1.83-7.06-2.98
	c-2.69-1.28-4.74-2.91-6.16-4.9c-1.41-1.99-2.12-4.49-2.12-7.51c0-2.89,1.1-5.33,3.3-7.34c2.2-2,4.86-3,7.98-3
	c2.95,0,5.45,0.57,7.49,1.7c2.03,1.13,3.76,2.66,5.17,4.56c1.45,1.97,2.62,4.17,3.52,6.6c0.69,1.85,1.3,3.78,1.89,5.76h-0.02v3.25
	c1.48,0.23,2.96,0.76,4.43,1.6c1.48,0.84,2.53,2.02,3.15,3.52c2.76,6.57,5.4,12.92,7.93,19.06c2.53,6.14,5.35,13.1,8.47,20.88
	c-1.01,2.83-2.67,6.11-4.95,9.85c-2.29,3.74-4.24,6.06-5.89,6.94c-0.33-0.56-0.77-1.26-1.33-2.12c-0.56-0.85-1.08-1.53-1.58-2.02
	c-0.59-0.62-1.27-1.13-2.02-1.52c-0.76-0.4-1.66-0.59-2.71-0.59c-1.35,0-2.47,0.52-3.37,1.55c-0.91,1.04-1.35,2.38-1.35,4.02
	c0,1.58,0.73,2.97,2.19,4.19c1.46,1.21,3.47,1.82,6.04,1.82c1.3,0,2.58-0.24,3.81-0.71s2.6-1.4,4.11-2.78
	c1.54-1.48,3.13-3.5,4.75-6.08c1.62-2.58,3.47-6.16,5.54-10.76c1.57-3.51,3.88-8.99,6.92-16.45c3.03-7.45,6.51-15.71,10.42-24.77
	c0.6-1.36,1.46-2.48,2.54-3.36c-1.41,2.16-2.13,4.61-2.13,7.35c0,2.26,0.46,4.24,1.38,5.91c0.92,1.67,2.11,3.09,3.55,4.24
	c1.35,1.08,2.96,2.03,4.85,2.83c1.89,0.81,3.6,1.44,5.15,1.9c1.94,0.59,3.7,1.19,5.27,1.8c1.57,0.61,2.91,1.29,3.98,2.04
	c1.05,0.76,1.85,1.64,2.39,2.64c0.54,1,0.81,2.19,0.81,3.57c0,2.66-0.86,4.71-2.56,6.13c-1.71,1.43-4.14,2.15-7.29,2.15
	c-2.23,0-4.24-0.5-6.03-1.48c-1.79-0.99-3.33-2.2-4.6-3.65c-1.22-1.38-2.25-2.92-3.1-4.63c-0.86-1.7-1.42-3.2-1.68-4.48h-3.4
	l0.49,16.9h3.69l0.99-3.2c1.02,0.86,2.72,1.79,5.1,2.81c2.38,1.02,4.98,1.53,7.8,1.53c5.35,0,9.71-1.43,13.08-4.28
	c3.36-2.86,5.04-6.53,5.04-11.03c0-2.23-0.36-4.12-1.08-5.66c-0.72-1.54-1.76-2.9-3.1-4.08c-1.25-1.11-2.84-2.13-4.75-3.07
	c-1.92-0.92-3.96-1.72-6.13-2.41c-2.2-0.72-4.05-1.37-5.54-1.94c-1.49-0.57-2.74-1.19-3.72-1.85c-1.02-0.69-1.78-1.53-2.29-2.51
	c-0.51-0.98-0.76-2.21-0.76-3.69c0-1.9,0.77-3.52,2.31-4.88c1.54-1.35,3.66-2.02,6.35-2.02c3.29,0,6.06,1.09,8.35,3.27
	c2.28,2.19,3.76,5.02,4.45,8.5h3.4l-0.44-9.24h5.63v32.9c0,3.74,0.83,6.64,2.49,8.69c1.66,2.06,4.52,3.08,8.59,3.08
	c2.76,0,5.09-0.3,6.99-0.91c1.91-0.6,3.93-1.35,6.06-2.24l0-3.59C1166.03-33.11,1164.9-32.93,1163.31-32.78z M1196.06-29.8
	c-3.41,2.3-7.34,3.44-11.77,3.44c-3.9,0-7.33-0.69-10.27-2.07c-2.94-1.38-5.36-3.25-7.27-5.61c-1.9-2.36-3.32-5.12-4.26-8.27
	c-0.94-3.15-1.4-6.48-1.4-10c0-3.15,0.5-6.25,1.5-9.29c1-3.03,2.47-5.77,4.41-8.2c1.87-2.33,4.19-4.21,6.97-5.64
	c2.77-1.43,5.89-2.14,9.33-2.14c3.55,0,6.58,0.56,9.11,1.67c2.53,1.12,4.58,2.64,6.16,4.58c1.51,1.84,2.64,4.01,3.38,6.5
	c0.73,2.49,1.1,5.21,1.1,8.12v3.25h-32.15c0,3.19,0.3,6.08,0.91,8.67c0.6,2.6,1.56,4.88,2.88,6.85c1.28,1.91,2.96,3.41,5.02,4.51
	c2.07,1.1,4.53,1.65,7.39,1.65c2.92,0,5.44-0.68,7.56-2.05c2.12-1.35,4.16-3.81,6.14-7.36l3.45,2.11
	C1202.21-35.18,1199.48-32.09,1196.06-29.8z M1170.9-57.57l22.46,0c0-1.84-0.15-3.81-0.47-5.91c-0.31-2.1-0.81-3.86-1.5-5.27
	c-0.75-1.51-1.78-2.73-3.1-3.69c-1.32-0.95-3.01-1.43-5.07-1.43c-3.44,0-6.31,1.44-8.59,4.31
	C1172.33-66.69,1171.09-62.69,1170.9-57.57z M1277.95-31.86c-0.96-0.39-1.62-0.96-2.02-1.7c-0.4-0.74-0.6-1.68-0.6-2.83v-24.67
	c0-5.58-1.2-9.72-3.59-12.42c-2.4-2.68-5.65-4.04-9.75-4.04c-2.07,0-3.95,0.27-5.64,0.79c-1.69,0.53-3.16,1.22-4.41,2.07
	c-1.48,0.99-2.67,1.91-3.57,2.78c-0.9,0.87-1.94,1.88-3.13,3.03c-0.98-2.4-2.6-4.44-4.88-6.13c-2.27-1.69-4.97-2.54-8.12-2.54
	c-2,0-3.87,0.27-5.59,0.79c-1.73,0.53-3.17,1.19-4.31,1.97c-1.02,0.69-2.11,1.6-3.3,2.71c-1.18,1.12-2.18,2.09-3,2.91h-0.35v-6.94
	l-0.69-0.69l-16.25,1.08v3.2c0.99,0.07,1.94,0.22,2.86,0.47c0.92,0.24,1.69,0.56,2.31,0.96c0.85,0.59,1.51,1.31,1.99,2.15
	c0.48,0.84,0.71,1.78,0.71,2.83v30.19c0,1.18-0.22,2.15-0.66,2.88c-0.44,0.74-1.12,1.26-2.04,1.55c-0.6,0.2-1.29,0.33-2.09,0.4
	c-0.81,0.07-1.59,0.13-2.34,0.19v3.25h23.59v-3.25c-0.89-0.07-1.69-0.18-2.41-0.35c-0.72-0.16-1.43-0.4-2.12-0.74
	c-0.92-0.4-1.6-0.97-2.06-1.73c-0.46-0.75-0.69-1.69-0.69-2.81v-27.82c0.33-0.46,0.82-1.14,1.48-2.04c0.66-0.9,1.46-1.71,2.41-2.44
	c1.18-0.89,2.48-1.58,3.89-2.09c1.41-0.51,2.92-0.77,4.53-0.77c2.33,0,4.27,0.93,5.83,2.78c1.56,1.86,2.35,4.49,2.35,7.9v25.07
	c0,1.18-0.22,2.15-0.67,2.88c-0.44,0.74-1.12,1.26-2.05,1.55c-0.59,0.2-1.24,0.33-1.94,0.4c-0.71,0.07-1.43,0.13-2.19,0.19v3.25
	h23.19v-3.25c-0.98-0.06-1.78-0.17-2.39-0.32c-0.61-0.15-1.29-0.37-2.04-0.67c-0.96-0.39-1.62-0.96-2.02-1.7
	c-0.4-0.74-0.59-1.68-0.59-2.83v-28.02c0.33-0.55,0.81-1.25,1.45-2.09c0.64-0.84,1.44-1.61,2.4-2.34c1.18-0.89,2.48-1.58,3.89-2.07
	c1.41-0.49,2.92-0.74,4.53-0.74c2.33,0,4.27,0.93,5.83,2.78c1.56,1.85,2.34,4.49,2.34,7.9v25.07c0,1.18-0.22,2.14-0.67,2.88
	c-0.44,0.74-1.13,1.25-2.04,1.55c-0.59,0.2-1.27,0.33-2.04,0.4c-0.77,0.07-1.53,0.13-2.29,0.19v3.25h23.69h0v0h0.01v-3.25
	c-0.92-0.06-1.75-0.17-2.49-0.32C1279.45-31.34,1278.7-31.57,1277.95-31.86z M1319.93-64.39h-0.01v0.01L1319.93-64.39z
	 M1319.04-65.41c-0.3-0.05-0.52-0.09-0.65-0.13c-0.19-0.08-0.31-0.18-0.35-0.28c-0.05-0.1-0.08-0.24-0.08-0.4v-8.65
	c0-0.13,0.03-0.27,0.08-0.4c0.05-0.14,0.16-0.22,0.35-0.25c0.14-0.05,0.37-0.09,0.71-0.14c0.33-0.04,0.61-0.09,0.82-0.09v-0.91
	h-5.05c-0.03,0.18-0.09,0.4-0.16,0.67c-0.07,0.27-0.17,0.55-0.31,0.85l-3.32,6.91l-3.97-8.43h-5.24v0.91
	c0.36,0.03,0.69,0.07,0.97,0.14c0.28,0.06,0.52,0.17,0.71,0.31c0.18,0.14,0.31,0.31,0.41,0.5c0.09,0.19,0.14,0.43,0.14,0.71v6.2
	c0,0.75-0.04,1.26-0.11,1.54c-0.08,0.27-0.22,0.49-0.43,0.64c-0.2,0.14-0.5,0.23-0.89,0.28c-0.39,0.05-0.69,0.1-0.89,0.13v0.89h5.94
	v-0.93c-0.29,0-0.63-0.05-1.02-0.15c-0.39-0.1-0.67-0.2-0.83-0.29c-0.2-0.17-0.34-0.42-0.43-0.74c-0.08-0.33-0.12-0.81-0.12-1.44
	v-6.5h0.28l4.47,9.67h0.61l4.59-9.48h0.28v8.05c0,0.18-0.04,0.31-0.11,0.39c-0.07,0.08-0.21,0.19-0.41,0.32
	c-0.13,0.06-0.37,0.1-0.74,0.13c-0.37,0.02-0.66,0.05-0.86,0.05v0.93h6.51v-0.93C1319.64-65.32,1319.35-65.35,1319.04-65.41z
	 M1286.79-76.66v3.54h0.91c0.13-0.38,0.37-0.87,0.75-1.48c0.37-0.6,0.75-0.93,1.14-0.99c0.16-0.01,0.4-0.02,0.71-0.04
	c0.31-0.03,0.56-0.03,0.75-0.03h0.92v9.47c0,0.13-0.03,0.27-0.09,0.39c-0.06,0.13-0.19,0.23-0.38,0.29
	c-0.1,0.03-0.34,0.07-0.71,0.11c-0.36,0.04-0.68,0.06-0.93,0.06v0.93h6.64v-0.93c-0.28,0-0.6-0.03-0.94-0.09
	c-0.34-0.07-0.57-0.11-0.7-0.15c-0.2-0.08-0.33-0.19-0.39-0.3c-0.06-0.11-0.09-0.25-0.09-0.42v-9.36h0.92
	c0.18,0,0.39,0.02,0.66,0.02c0.26,0.02,0.54,0.03,0.81,0.06c0.37,0.07,0.74,0.4,1.13,0.99c0.39,0.59,0.63,1.08,0.76,1.48h0.91
	l-0.01-3.55C1299.58-76.66,1286.79-76.66,1286.79-76.66z"/>
</svg>
