<?xml version="1.0" encoding="utf-8"?>
<!-- Generator: Adobe Illustrator 19.1.0, SVG Export Plug-In . SVG Version: 6.00 Build 0)  -->
<svg version="1.1"
	 id="Ebene_1" xmlns:dc="http://purl.org/dc/elements/1.1/" xmlns:cc="http://creativecommons.org/ns#" xmlns:rdf="http://www.w3.org/1999/02/22-rdf-syntax-ns#"
	 xmlns="http://www.w3.org/2000/svg" xmlns:xlink="http://www.w3.org/1999/xlink" x="0px" y="0px"
	 viewBox="251 -69.382 566.929 202.382" enable-background="new 251 -69.382 566.929 202.382" xml:space="preserve">
<path fill="#17569B" d="M762.205-83.196h-42.983v18.39c0,5.23,4.25,9.48,9.479,9.48l42.33-0.003v-12.423h-36.447
	c0,0-2.941,0-2.941-2.942h30.562L762.205-83.196L762.205-83.196z M719.222-104.606v18.386h42.984v-12.504h-30.563
	c0,0,0-2.94,2.944-2.94h36.609v-12.504h-42.495C723.471-114.168,719.222-109.836,719.222-104.606z M668.391-98.64h-10.376
	c-0.817,0-1.474-0.652-1.474-1.471c0-0.898,0.654-1.551,1.474-1.551h39.716l0.082-12.423h-39.798
	c-7.683,0-13.894,6.212-13.894,13.894c0,7.764,6.209,14.056,13.894,14.056h10.376c9.316,0,16.918,7.602,16.918,16.917
	c0,9.317-7.602,16.834-16.918,16.834h-39.796v12.664l0,0h39.796c16.265,0,29.501-13.238,29.501-29.5
	C697.892-85.481,684.656-98.64,668.391-98.64z M668.308-67.749h-39.716l0.003,12.503h39.796c7.765,0,13.977-6.292,13.977-13.974
	s-6.211-13.974-13.977-13.974h-10.376c-9.315,0-16.835-7.682-16.835-16.998c0-9.317,7.521-16.834,16.835-16.834h39.796
	l-0.082-12.585h-39.718c-16.261,0-29.418,13.156-29.418,29.5c0,16.262,13.156,29.42,29.418,29.42h10.297
	c0.816,0,1.472,0.654,1.472,1.471S669.125-67.749,668.308-67.749z M806.828-101.665h35.301v-12.504h-41.187
	c-5.229,0-9.563,4.332-9.563,9.563l-0.001,39.798c0,5.23,4.334,9.563,9.563,9.563h25.741v-28.031h-19.938v12.585h7.437v2.942h-7.353
	c-1.637,0-2.943-1.387-2.943-2.942v-28.031C803.885-98.722,803.885-101.665,806.828-101.665z M703.696-104.604v39.796
	c0,13.812,11.194,25.008,25.005,25.008h42.333v-12.503l-42.333-0.002c-6.862,0-12.5-5.475-12.5-12.503v-39.962
	c0-6.7,5.639-12.339,12.5-12.339h42.495v-12.502h-42.495C714.892-129.611,703.696-118.415,703.696-104.604z M903.503-117.844
	c-2.291-7.6-9.891-13.239-18.881-13.239c-8.986,0-16.586,5.558-18.877,13.239l-23.613,69.375V-98.72h-35.387v12.502h22.883v33.914
	l-28.604-0.001c-6.946,0-12.586-5.64-12.586-12.503v-39.796c0-6.866,5.642-12.505,12.506-12.505h41.188v-12.502h-41.271
	c-13.811,0-25.005,11.196-25.005,25.007v39.796c0,13.812,11.274,25.008,25.088,25.008h41.188v-0.002h10.291l25.738-75.917
	c1.063-2.534,3.514-4.25,6.455-4.25c2.862,0,5.316,1.716,6.377,4.25l21.499,63.414h-33.261v12.503h50.585L903.503-117.844z
	 M879.236-55.162h29.171l-19.938-59.166c-0.573-1.632-2.047-2.778-3.844-2.778c-1.799,0-3.272,1.144-3.842,2.778l-25.247,74.527
	h14.709l8.991-26.51L879.236-55.162L879.236-55.162z M884.63-82.215l4.414,13.159h-8.877L884.63-82.215z"/>
<path fill="#17569B" d="M922.46-119.233c2.613,0,5.066-0.982,6.863-2.862c1.879-1.878,2.855-4.33,2.855-6.945
	c0-2.616-0.979-5.065-2.855-6.866c-1.797-1.878-4.25-2.86-6.863-2.86c-5.394,0-9.81,4.332-9.81,9.726
	c0,2.615,1.063,5.065,2.856,6.945C917.393-120.213,919.843-119.233,922.46-119.233z M914.041-129.039
	c0-2.207,0.903-4.332,2.455-5.967c1.549-1.552,3.676-2.452,5.965-2.452c2.207,0,4.332,0.898,5.969,2.452
	c1.553,1.635,2.451,3.759,2.451,5.967c0,4.656-3.76,8.417-8.416,8.417c-2.289,0-4.418-0.818-5.967-2.452
	C914.944-124.628,914.041-126.751,914.041-129.039z M919.925-128.223v4.656h-1.391v-10.868h4.01c1.467,0,2.363,0,3.268,0.653
	c0.734,0.572,1.145,1.472,1.145,2.535c0,2.533-2.043,2.86-2.613,2.943l3.021,4.738h-1.717l-2.941-4.656L919.925-128.223
	L919.925-128.223z M919.925-129.367h2.859c0.49,0,0.895,0,1.309-0.164c1.063-0.245,1.391-0.98,1.391-1.716
	c0-0.247-0.082-1.063-0.654-1.554c-0.57-0.489-1.307-0.409-2.125-0.409h-2.779v3.843
	C919.926-129.367,919.925-129.367,919.925-129.367z"/>
<path fill="#FF0000" d="M584.986,37.786c1.509,0.275,2.708,0.437,3.594,0.465v3.5h-0.004v0.003h-30.878v-3.498
	c1.118-0.029,2.554-0.146,4.31-0.347c1.758-0.194,2.963-0.472,3.621-0.838c1.019-0.62,1.767-1.333,2.241-2.142
	c0.477-0.805,0.713-1.813,0.713-3.029v-50.821h-0.738l-23.836,59.54h-2.461l-22.704-60.77h-0.64v41.712
	c0,4.036,0.255,7.108,0.763,9.208c0.51,2.102,1.289,3.611,2.341,4.527c0.723,0.688,2.214,1.352,4.479,1.976s3.744,0.953,4.433,0.981
	v3.496H502v-3.496c1.479-0.129,3.028-0.375,4.653-0.735c1.625-0.361,2.88-0.901,3.768-1.625c1.15-0.915,1.938-2.33,2.364-4.236
	c0.429-1.899,0.64-5.088,0.64-9.554v-35.756c0-2.067-0.245-3.757-0.738-5.069c-0.491-1.312-1.198-2.379-2.117-3.201
	c-1.018-0.887-2.265-1.542-3.743-1.972c-1.478-0.424-2.938-0.668-4.382-0.738v-3.495h23.836l19.993,52.399l17.091-43.831
	c0.623-1.604,1.157-3.288,1.601-5.048c0.443-1.757,0.683-2.932,0.714-3.521h22.801v3.496c-0.919,0.034-2.094,0.183-3.521,0.444
	c-1.428,0.266-2.471,0.512-3.127,0.737c-1.115,0.393-1.872,1.055-2.267,1.972c-0.395,0.919-0.591,1.919-0.591,3.003v50.379
	c0,1.15,0.196,2.117,0.591,2.906c0.395,0.785,1.149,1.479,2.267,2.064C582.425,37.206,583.476,37.509,584.986,37.786z
	 M689.709,36.038l0.001,3.594c-2.135,0.889-4.153,1.637-6.058,2.242c-1.904,0.61-4.236,0.91-6.993,0.91
	c-4.072,0-6.937-1.021-8.594-3.076c-1.659-2.051-2.488-4.951-2.488-8.69V-1.878h-5.631l0.437,9.238h-3.397
	c-0.689-3.479-2.176-6.309-4.458-8.496c-2.283-2.181-5.065-3.273-8.35-3.273c-2.69,0-4.811,0.676-6.353,2.021
	c-1.543,1.351-2.314,2.975-2.314,4.876c0,1.479,0.253,2.709,0.763,3.693c0.51,0.986,1.271,1.82,2.291,2.513
	c0.983,0.659,2.223,1.275,3.718,1.847c1.494,0.574,3.34,1.228,5.542,1.945c2.167,0.688,4.211,1.497,6.131,2.412
	c1.92,0.934,3.502,1.955,4.751,3.068c1.346,1.182,2.381,2.546,3.104,4.084c0.723,1.547,1.083,3.435,1.083,5.664
	c0,4.502-1.685,8.177-5.046,11.033c-3.366,2.854-7.727,4.285-13.076,4.285c-2.825,0-5.427-0.512-7.807-1.529
	c-2.081-0.888-3.64-1.713-4.679-2.478v1.84h-0.002l0,0c-0.421,0.154-0.824,0.297-1.217,0.433l-0.184,0.6h-1.614
	c-0.363,0.115-0.714,0.224-1.047,0.323c-1.167,0.345-2.487,0.516-3.965,0.516c-2.563,0-4.604-0.596-6.132-1.796
	c-1.526-1.197-2.503-2.943-2.93-5.244h-0.296c-2.134,2.361-4.424,4.172-6.871,5.416c-2.446,1.252-5.393,1.871-8.84,1.871
	c-3.645,0-6.64-1.109-8.987-3.35c-2.348-2.229-3.52-5.151-3.52-8.765c0-1.872,0.262-3.549,0.788-5.024
	c0.526-1.479,1.314-2.807,2.363-3.988c0.822-0.98,1.905-1.857,3.25-2.634c1.348-0.769,2.61-1.382,3.792-1.847
	c1.48-0.557,4.475-1.593,8.988-3.104c4.515-1.505,7.559-2.687,9.135-3.544V5.854c0-0.427-0.089-1.248-0.271-2.462
	s-0.566-2.365-1.158-3.449c-0.657-1.21-1.583-2.271-2.783-3.175c-1.197-0.9-2.896-1.354-5.096-1.354
	c-1.512,0-2.914,0.255-4.211,0.762c-1.297,0.514-2.208,1.044-2.732,1.602c0,0.66,0.156,1.625,0.468,2.905
	c0.313,1.278,0.468,2.462,0.468,3.545c0,1.15-0.518,2.2-1.553,3.15c-1.033,0.959-2.47,1.428-4.308,1.428
	c-1.641,0-2.848-0.578-3.621-1.747c-0.77-1.161-1.156-2.468-1.156-3.915c0-1.509,0.533-2.955,1.601-4.335
	c1.067-1.378,2.454-2.608,4.163-3.691c1.478-0.915,3.267-1.701,5.367-2.34c2.103-0.642,4.153-0.961,6.156-0.961
	c2.758,0,5.161,0.19,7.215,0.565c2.053,0.381,3.915,1.191,5.59,2.439c1.673,1.217,2.946,2.866,3.816,4.948
	c0.87,2.088,1.305,4.77,1.305,8.053c0,4.695-0.051,8.857-0.147,12.482c-0.1,3.63-0.146,7.595-0.146,11.896
	c0,1.279,0.221,2.3,0.664,3.056c0.443,0.758,1.125,1.396,2.045,1.918c0.112,0.068,0.243,0.127,0.385,0.18l-0.36-12.352h3.397
	c0.263,1.279,0.82,2.778,1.674,4.479c0.854,1.708,1.888,3.249,3.104,4.629c1.28,1.448,2.814,2.66,4.604,3.646
	c1.789,0.982,3.801,1.48,6.033,1.48c3.151,0,5.582-0.715,7.29-2.146c1.706-1.426,2.562-3.471,2.562-6.133
	c0-1.379-0.27-2.563-0.813-3.566c-0.542-1-1.339-1.876-2.389-2.637c-1.083-0.756-2.413-1.433-3.989-2.043
	c-1.576-0.606-3.332-1.207-5.27-1.799c-1.545-0.459-3.259-1.088-5.146-1.896c-1.889-0.806-3.505-1.752-4.852-2.833
	c-1.444-1.146-2.626-2.563-3.546-4.235c-0.919-1.673-1.38-3.644-1.38-5.909c0-3.973,1.479-7.336,4.433-10.097
	c2.956-2.758,6.912-4.138,11.87-4.138c1.901,0,3.849,0.246,5.836,0.735c1.984,0.497,3.602,1.085,4.851,1.773l1.133-2.56h3.545
	l0.078,1.64h6.052v-15.118h8.963v15.118h13.937v4.73h-13.838v27.133c0,2.039,0.073,3.738,0.222,5.101
	c0.147,1.362,0.5,2.558,1.058,3.569c0.525,0.953,1.314,1.676,2.364,2.166c1.05,0.492,2.462,0.738,4.234,0.738
	c0.82,0,2.026-0.074,3.621-0.226C687.928,36.457,689.051,36.271,689.709,36.038z M615.098,14.862
	c-2.792,0.823-5.236,1.623-7.338,2.413c-2.103,0.787-4.055,1.771-5.859,2.955c-1.643,1.117-2.939,2.438-3.893,3.962
	c-0.949,1.526-1.428,3.347-1.428,5.442c0,2.729,0.714,4.728,2.143,6.009c1.429,1.278,3.24,1.921,5.441,1.921
	c2.331,0,4.383-0.568,6.156-1.7c1.772-1.134,3.268-2.466,4.481-4.015L615.098,14.862z M719.086,39.586
	c-3.414,2.299-7.338,3.444-11.77,3.444c-3.906,0-7.329-0.688-10.27-2.067c-2.937-1.377-5.358-3.252-7.264-5.613
	c-1.903-2.362-3.324-5.119-4.26-8.271c-0.937-3.154-1.403-6.479-1.403-9.996c0-3.151,0.501-6.246,1.502-9.285
	c1.002-3.032,2.471-5.768,4.408-8.198c1.872-2.327,4.194-4.209,6.968-5.64c2.775-1.429,5.887-2.142,9.334-2.142
	c3.545,0,6.582,0.562,9.109,1.674c2.529,1.118,4.58,2.644,6.156,4.578c1.511,1.844,2.635,4.012,3.374,6.504
	c0.737,2.494,1.108,5.205,1.108,8.123v3.251h-32.157c0,3.188,0.303,6.076,0.909,8.67c0.609,2.595,1.568,4.875,2.882,6.847
	c1.278,1.905,2.953,3.406,5.022,4.506c2.067,1.104,4.53,1.646,7.387,1.646c2.922,0,5.441-0.68,7.559-2.047
	c2.12-1.354,4.163-3.813,6.132-7.357l3.449,2.115C725.226,34.203,722.501,37.289,719.086,39.586z M693.921,11.81l22.456,0.001
	c0-1.839-0.155-3.808-0.467-5.909c-0.313-2.102-0.813-3.857-1.502-5.271c-0.754-1.507-1.789-2.734-3.104-3.693
	c-1.312-0.949-3.005-1.427-5.071-1.427c-3.449,0-6.313,1.436-8.595,4.311C695.358,2.695,694.118,6.69,693.921,11.81z M752.695-7.986
	c-2.068,0-4.349,0.688-6.845,2.069c-2.493,1.378-4.759,3.396-6.797,6.057h-0.246v-6.846l-0.689-0.689l-16.152,1.084v3.202
	c0.985,0.067,1.904,0.19,2.758,0.367c0.856,0.184,1.593,0.466,2.215,0.862c0.853,0.592,1.52,1.378,1.996,2.364
	c0.475,0.983,0.713,1.987,0.713,3.004V33.48c0,1.18-0.221,2.141-0.664,2.879c-0.442,0.737-1.125,1.254-2.043,1.549
	c-0.592,0.203-1.289,0.334-2.094,0.397c-0.803,0.068-1.583,0.13-2.339,0.195v3.25h25.61V38.5c-0.954-0.067-2.077-0.178-3.376-0.348
	c-1.295-0.16-2.354-0.404-3.176-0.734c-0.951-0.36-1.65-0.9-2.092-1.625c-0.442-0.723-0.666-1.657-0.666-2.811V4.714
	c1.447-2.296,3.203-4.067,5.271-5.317c2.067-1.248,3.875-1.871,5.417-1.871c-0.098,0.588-0.205,1.179-0.319,1.773
	c-0.115,0.592-0.172,1.248-0.172,1.971c0,1.148,0.485,2.2,1.452,3.149c0.971,0.953,2.373,1.43,4.214,1.43
	c1.707,0,2.97-0.644,3.79-1.944c0.819-1.297,1.23-2.784,1.23-4.457c0-2.265-0.647-4.069-1.947-5.413
	C756.447-7.311,754.764-7.986,752.695-7.986z M912.31,36.603c-1.593,0.152-2.799,0.226-3.62,0.226c-1.771,0-3.183-0.246-4.234-0.738
	c-1.044-0.49-1.836-1.213-2.357-2.166c-0.562-1.011-0.916-2.206-1.064-3.569s-0.223-3.062-0.223-5.101V-1.878h13.84v-4.73h-13.937
	v-15.118h-8.966v15.118h-6.051l-0.078-1.64h-3.543l-1.135,2.56c-1.249-0.688-2.87-1.276-4.854-1.773
	c-1.982-0.489-3.932-0.735-5.834-0.735c-3.612,0-6.682,0.741-9.229,2.204v-0.819H843v3.151c1.349,0.166,2.766,0.62,4.262,1.356
	c1.496,0.74,2.24,1.538,2.24,2.39c0,0.787-0.217,1.731-0.643,2.832c-0.419,1.102-0.752,1.962-0.982,2.583
	c-1.967,5.123-3.752,9.562-5.346,13.322c-1.589,3.76-3.125,7.392-4.604,10.907c-1.41-3.679-3.394-8.574-5.958-14.702
	c-2.565-6.121-4.465-10.811-5.712-14.062c-0.202-0.489-0.372-0.966-0.519-1.427c-0.15-0.458-0.223-0.789-0.223-0.985
	c0-0.492,0.689-0.925,2.068-1.305c1.379-0.374,2.559-0.581,3.547-0.615v-3.447h-17.635l-0.364-21.321h-3.94l-2.021,3.349
	c-2.098-1.307-4.424-2.461-6.967-3.443c-2.545-0.989-5.426-1.479-8.644-1.479c-2.821,0-5.532,0.484-8.125,1.452
	c-2.593,0.969-4.843,2.31-6.747,4.014c-2.004,1.804-3.545,3.86-4.629,6.156c-1.082,2.301-1.624,4.781-1.624,7.436
	c0,4.63,1.089,8.385,3.273,11.256c2.184,2.874,5.248,5.197,9.186,6.968c2.002,0.923,4.384,1.9,7.14,2.933
	c2.758,1.033,5.203,1.978,7.338,2.832c3.123,1.248,5.47,3.076,7.045,5.49c1.574,2.415,2.361,5.023,2.361,7.807
	c0,1.906-0.254,3.592-0.765,5.05c-0.513,1.461-1.29,2.731-2.34,3.815c-1.048,1.08-2.421,1.92-4.112,2.513
	c-1.694,0.592-3.669,0.886-5.936,0.886c-3.017,0-5.668-0.572-7.951-1.723c-2.28-1.149-4.274-2.69-5.981-4.629
	c-1.805-2.07-3.257-4.289-4.359-6.674c-1.1-2.377-2.061-5.049-2.882-8.002h-3.988l0.689,23.935h3.938l2.117-3.597
	c2.265,1.377,4.958,2.555,8.077,3.521c3.12,0.971,6.236,1.45,9.356,1.45c6.763,0,12.426-1.998,16.989-6.006
	c4.562-4.002,6.848-9.092,6.848-15.269c0-2.59-0.354-4.864-1.063-6.819c-0.706-1.954-1.795-3.749-3.271-5.395
	c-1.349-1.445-2.933-2.708-4.748-3.802c-1.823-1.085-3.715-2.054-5.688-2.908c-2.166-0.95-4.408-1.847-6.723-2.687
	c-2.312-0.834-4.666-1.826-7.063-2.976c-2.69-1.279-4.744-2.911-6.155-4.898c-1.413-1.987-2.118-4.489-2.118-7.512
	c0-2.886,1.1-5.33,3.3-7.338c2.201-1.998,4.862-3.003,7.979-3.003c2.952,0,5.448,0.569,7.485,1.699
	c2.033,1.133,3.758,2.658,5.168,4.559c1.448,1.969,2.62,4.171,3.521,6.598c0.688,1.852,1.305,3.784,1.886,5.762h-0.021v3.25
	c1.479,0.233,2.957,0.764,4.434,1.602c1.476,0.837,2.529,2.016,3.152,3.522c2.756,6.571,5.399,12.922,7.928,19.061
	c2.53,6.144,5.348,13.103,8.471,20.881c-1.011,2.831-2.67,6.108-4.947,9.853c-2.285,3.739-4.244,6.055-5.889,6.942
	c-0.326-0.555-0.769-1.262-1.328-2.119c-0.555-0.852-1.084-1.529-1.576-2.019c-0.592-0.618-1.266-1.128-2.02-1.524
	c-0.758-0.4-1.66-0.592-2.709-0.592c-1.35,0-2.473,0.516-3.373,1.551c-0.907,1.037-1.354,2.375-1.354,4.016
	c0,1.575,0.729,2.975,2.195,4.185c1.461,1.213,3.472,1.819,6.035,1.819c1.305,0,2.585-0.24,3.813-0.714
	c1.228-0.474,2.597-1.404,4.109-2.785c1.541-1.476,3.129-3.5,4.754-6.08c1.625-2.578,3.471-6.16,5.541-10.763
	c1.574-3.509,3.879-8.992,6.918-16.446c3.031-7.453,6.508-15.709,10.416-24.772c0.604-1.359,1.456-2.476,2.544-3.364
	c-1.408,2.163-2.13,4.607-2.13,7.348c0,2.265,0.457,4.236,1.379,5.909c0.919,1.672,2.106,3.089,3.548,4.235
	c1.347,1.081,2.959,2.027,4.851,2.833c1.885,0.808,3.6,1.437,5.146,1.896c1.938,0.592,3.696,1.193,5.272,1.799
	c1.574,0.61,2.905,1.287,3.985,2.043c1.052,0.761,1.849,1.637,2.392,2.637c0.542,1.003,0.813,2.187,0.813,3.566
	c0,2.662-0.858,4.707-2.561,6.133c-1.707,1.431-4.139,2.146-7.289,2.146c-2.233,0-4.244-0.498-6.031-1.48
	c-1.792-0.986-3.326-2.198-4.604-3.646c-1.218-1.38-2.25-2.921-3.104-4.629c-0.859-1.701-1.416-3.2-1.676-4.479h-3.397l0.491,16.896
	h3.693l0.986-3.202c1.018,0.857,2.716,1.79,5.1,2.807c2.375,1.017,4.983,1.529,7.803,1.529c5.352,0,9.709-1.431,13.078-4.285
	c3.361-2.856,5.045-6.531,5.045-11.033c0-2.229-0.359-4.117-1.082-5.664c-0.723-1.538-1.76-2.902-3.102-4.084
	c-1.25-1.113-2.835-2.134-4.749-3.068c-1.922-0.915-3.963-1.724-6.134-2.412c-2.2-0.717-4.051-1.371-5.539-1.945
	c-1.493-0.572-2.736-1.188-3.722-1.847c-1.018-0.693-1.78-1.527-2.29-2.513c-0.511-0.984-0.763-2.214-0.763-3.693
	c0-1.901,0.769-3.525,2.313-4.876c1.541-1.345,3.662-2.021,6.354-2.021c3.288,0,6.065,1.092,8.352,3.273
	c2.275,2.187,3.764,5.017,4.452,8.496h3.397l-0.437-9.238h5.634v32.896c0,3.739,0.829,6.639,2.487,8.69
	c1.658,2.055,4.524,3.076,8.595,3.076c2.759,0,5.088-0.3,6.989-0.91c1.909-0.605,3.928-1.353,6.06-2.242l-0.002-3.594
	C915.028,36.271,913.903,36.457,912.31,36.603z M945.062,39.586c-3.414,2.299-7.338,3.444-11.771,3.444
	c-3.898,0-7.326-0.688-10.266-2.067c-2.938-1.377-5.357-3.252-7.268-5.613c-1.9-2.362-3.324-5.119-4.26-8.271
	c-0.938-3.154-1.401-6.479-1.401-9.996c0-3.151,0.504-6.246,1.501-9.285c1.001-3.032,2.473-5.768,4.408-8.198
	c1.869-2.327,4.193-4.209,6.968-5.64c2.772-1.429,5.886-2.142,9.329-2.142c3.549,0,6.584,0.562,9.111,1.674
	c2.529,1.118,4.58,2.644,6.156,4.578c1.512,1.844,2.635,4.012,3.375,6.504c0.734,2.494,1.104,5.205,1.104,8.123v3.251h-32.154
	c0,3.188,0.305,6.076,0.91,8.67c0.604,2.595,1.564,4.875,2.883,6.847c1.275,1.905,2.957,3.406,5.02,4.506
	c2.066,1.104,4.527,1.646,7.389,1.646c2.924,0,5.439-0.68,7.561-2.047c2.117-1.354,4.162-3.813,6.135-7.357l3.446,2.115
	C951.205,34.203,948.478,37.289,945.062,39.586z M919.896,11.81l22.457,0.001c0-1.839-0.154-3.808-0.467-5.909
	c-0.309-2.102-0.813-3.857-1.502-5.271c-0.752-1.507-1.785-2.734-3.102-3.693c-1.316-0.949-3.006-1.427-5.074-1.427
	c-3.445,0-6.313,1.436-8.594,4.311C921.335,2.695,920.093,6.69,919.896,11.81z M1026.949,37.52c-0.956-0.388-1.625-0.963-2.02-1.698
	c-0.401-0.74-0.596-1.681-0.596-2.832V8.319c0-5.581-1.199-9.721-3.592-12.415c-2.4-2.685-5.65-4.037-9.754-4.037
	c-2.073,0-3.951,0.267-5.639,0.788c-1.693,0.526-3.158,1.215-4.408,2.069c-1.476,0.986-2.668,1.914-3.57,2.782
	c-0.902,0.872-1.945,1.882-3.129,3.028c-0.98-2.396-2.605-4.44-4.875-6.133c-2.268-1.688-4.975-2.535-8.125-2.535
	c-2.002,0-3.867,0.267-5.588,0.788c-1.726,0.53-3.166,1.185-4.314,1.971c-1.018,0.686-2.115,1.596-3.301,2.707
	c-1.182,1.116-2.184,2.09-3.004,2.906h-0.346v-6.943L964-7.393L947.746-6.31v3.199c0.986,0.072,1.937,0.223,2.857,0.471
	c0.918,0.244,1.688,0.563,2.313,0.959c0.851,0.591,1.515,1.306,1.992,2.146c0.481,0.836,0.713,1.782,0.713,2.83v30.188
	c0,1.184-0.221,2.145-0.664,2.88c-0.439,0.739-1.123,1.257-2.041,1.552c-0.596,0.202-1.291,0.335-2.092,0.396
	c-0.809,0.068-1.588,0.132-2.344,0.195v3.252h23.593v-3.252c-0.887-0.066-1.685-0.18-2.414-0.347
	c-0.719-0.163-1.428-0.405-2.117-0.735c-0.917-0.396-1.604-0.967-2.063-1.727c-0.459-0.752-0.691-1.69-0.691-2.807V5.065
	c0.332-0.458,0.824-1.136,1.48-2.044c0.656-0.901,1.461-1.713,2.412-2.437c1.182-0.886,2.479-1.579,3.891-2.094
	c1.41-0.51,2.924-0.766,4.533-0.766c2.326,0,4.273,0.929,5.83,2.783c1.563,1.856,2.346,4.491,2.346,7.903v25.066
	c0,1.184-0.225,2.145-0.67,2.882c-0.443,0.737-1.123,1.255-2.045,1.55c-0.586,0.203-1.238,0.335-1.941,0.398
	c-0.709,0.066-1.432,0.132-2.188,0.195v3.25h23.189v-3.25c-0.985-0.063-1.782-0.173-2.387-0.319
	c-0.607-0.147-1.289-0.369-2.045-0.665c-0.956-0.392-1.624-0.963-2.02-1.699c-0.395-0.738-0.594-1.68-0.594-2.834V4.963
	c0.33-0.554,0.814-1.254,1.453-2.092c0.643-0.838,1.438-1.613,2.395-2.339c1.18-0.888,2.477-1.577,3.889-2.068
	c1.41-0.493,2.922-0.736,4.531-0.736c2.33,0,4.271,0.928,5.832,2.782c1.561,1.855,2.342,4.491,2.342,7.903v25.068
	c0,1.179-0.221,2.143-0.666,2.879c-0.443,0.738-1.127,1.254-2.045,1.551c-0.592,0.2-1.271,0.332-2.041,0.396
	c-0.771,0.066-1.535,0.13-2.291,0.193v3.254h23.689h0.002v0.002h0.006v-3.252c-0.922-0.063-1.748-0.172-2.488-0.317
	C1028.449,38.038,1027.705,37.816,1026.949,37.52z M1068.929,4.991h-0.01v0.005L1068.929,4.991z M1068.042,3.977
	c-0.301-0.046-0.522-0.094-0.649-0.127c-0.187-0.082-0.306-0.18-0.355-0.278c-0.048-0.098-0.076-0.236-0.076-0.4v-8.646
	c0-0.134,0.026-0.269,0.076-0.395c0.046-0.136,0.164-0.218,0.355-0.252c0.141-0.046,0.372-0.093,0.709-0.141
	c0.326-0.045,0.606-0.088,0.816-0.088v-0.911h-5.051c-0.029,0.179-0.088,0.4-0.158,0.668c-0.069,0.269-0.173,0.548-0.309,0.85
	l-3.316,6.911l-3.973-8.429h-5.243v0.911c0.362,0.025,0.693,0.068,0.972,0.136c0.278,0.061,0.516,0.17,0.708,0.312
	c0.177,0.139,0.313,0.306,0.407,0.5c0.091,0.194,0.139,0.428,0.139,0.713v6.202c0,0.749-0.037,1.256-0.111,1.535
	c-0.076,0.272-0.219,0.492-0.433,0.64c-0.201,0.137-0.5,0.226-0.894,0.281c-0.394,0.05-0.691,0.098-0.894,0.131v0.891h5.936V4.06
	c-0.288,0-0.627-0.051-1.018-0.153c-0.387-0.098-0.666-0.199-0.827-0.293c-0.205-0.168-0.342-0.416-0.426-0.741
	c-0.082-0.331-0.123-0.81-0.123-1.438V-5.07h0.279l4.466,9.665h0.61l4.594-9.482h0.283v8.054c0,0.176-0.039,0.31-0.113,0.393
	c-0.072,0.081-0.208,0.193-0.414,0.32c-0.127,0.059-0.371,0.102-0.74,0.13c-0.373,0.021-0.66,0.049-0.857,0.049V4.99h6.506V4.064
	C1068.644,4.065,1068.352,4.033,1068.042,3.977z M1035.792-7.276v3.54h0.905c0.127-0.38,0.374-0.872,0.746-1.476
	c0.371-0.602,0.752-0.933,1.141-0.99c0.162-0.013,0.402-0.019,0.715-0.043c0.312-0.027,0.562-0.027,0.75-0.027h0.924v9.467
	c0,0.132-0.029,0.266-0.091,0.393c-0.065,0.133-0.188,0.229-0.379,0.288c-0.105,0.034-0.345,0.072-0.711,0.112
	c-0.365,0.035-0.677,0.06-0.926,0.06V4.98h6.644V4.048c-0.283,0-0.596-0.029-0.937-0.095c-0.34-0.067-0.57-0.112-0.697-0.15
	c-0.197-0.084-0.329-0.185-0.385-0.298c-0.059-0.112-0.088-0.253-0.088-0.419v-9.36h0.922c0.176,0,0.394,0.022,0.66,0.022
	c0.264,0.016,0.539,0.031,0.807,0.055c0.372,0.071,0.74,0.404,1.127,0.99c0.385,0.594,0.633,1.085,0.764,1.479h0.905l-0.005-3.548
	H1035.792z"/>
</svg>
