<?xml version="1.0" encoding="utf-8"?>
<!-- Generator: Adobe Illustrator 19.1.0, SVG Export Plug-In . SVG Version: 6.00 Build 0)  -->
<svg version="1.1" id="TEXT" xmlns="http://www.w3.org/2000/svg" xmlns:xlink="http://www.w3.org/1999/xlink" x="0px" y="0px"
	 viewBox="251 -47 566.6 158" enable-background="new 251 -47 566.6 158" xml:space="preserve">
<linearGradient id="SVGID_1_" gradientUnits="userSpaceOnUse" x1="818.3015" y1="32" x2="253.4985" y2="32" gradientTransform="matrix(1 0 0 -1 0 64)">
	<stop  offset="0" style="stop-color:#013A67"/>
	<stop  offset="1" style="stop-color:#6CD1FF"/>
</linearGradient>
<path fill="url(#SVGID_1_)" d="M729.1-46.7l-77.3,79.3v-79.3L600.2,4.7v-51.4L506.7,46v-92.7l-83.4,82.5v-82.5L371.8,4.4l0,0v-51.1
	L253.5,72.7h47.2l0,0l47.9-48.8h0.1c0,0,0,48.1,0,49c0,1.1,0.8,1.1,0.8,1.1l0,0c0,0,0.9,0.1,1.2-0.3c0.4-0.4,41.9-41.9,41.9-41.9
	l0,0l0,0v35L348.7,111h47.8l79.1-78.9v38.5c0,1.3,0.8,1.8,0.8,1.8l0,0c0,0,0.5,0.3,0.8,0.3h51.5l48.4-48.2v48.7
	c0,0.6,0.6,0.7,0.6,0.7l0,0c0,0,0.5,0.1,1-0.4l42.1-42.1V64l-7,8.7h122.5l28.8-29.5c0.6-0.8,0.2-1.2,0.2-1.2l0,0
	c0,0-0.1-0.4-0.7-0.4h-77.7L700.6,28h24.7l29.4-30h-23l12.7-13.5h46.3l27.6-31.3C818.9-47.3,729.1-46.7,729.1-46.7z"/>
<path d="M251.7,95.3v-9.5h2.9l1.7,6.5l1.7-6.5h2.9v9.5h-1.8v-7.5l-1.9,7.5h-1.9l-1.9-7.5v7.5H251.7z M268.9,85.8h1.9V91
	c0,0.8,0,1.4,0.1,1.6c0.1,0.4,0.3,0.7,0.6,0.9s0.7,0.4,1.3,0.4c0.5,0,1-0.1,1.2-0.3c0.3-0.2,0.4-0.5,0.5-0.8s0.1-0.9,0.1-1.6v-5.3
	h1.9v5c0,1.1-0.1,1.9-0.2,2.4s-0.3,0.9-0.6,1.2c-0.3,0.3-0.7,0.6-1.1,0.8c-0.5,0.2-1.1,0.3-1.8,0.3c-0.9,0-1.6-0.1-2.1-0.3
	c-0.5-0.2-0.8-0.5-1.1-0.8c-0.3-0.3-0.5-0.7-0.5-1.1c-0.1-0.5-0.2-1.4-0.2-2.4C268.9,90.8,268.9,85.8,268.9,85.8z M284.7,95.3v-9.4
	h1.9v7.8h4.8v1.6H284.7L284.7,95.3z M300.1,95.3v-7.9h-2.8v-1.6h7.6v1.6h-2.8v7.9H300.1z M312.1,95.3v-9.5h1.9v9.5H312.1z M322,95.3
	v-9.5h3.1c1.2,0,1.9,0,2.3,0.1c0.5,0.1,1,0.5,1.4,0.9c0.4,0.5,0.6,1.1,0.6,1.9c0,0.6-0.1,1.1-0.3,1.5c-0.2,0.4-0.5,0.7-0.8,0.9
	c-0.3,0.2-0.7,0.4-1,0.5c-0.5,0.1-1.1,0.1-2,0.1H324v3.6H322L322,95.3z M323.9,87.4v2.7h1.1c0.8,0,1.3-0.1,1.5-0.1
	c0.3-0.1,0.5-0.3,0.6-0.5s0.2-0.5,0.2-0.7c0-0.3-0.1-0.6-0.3-0.9c-0.2-0.2-0.5-0.4-0.8-0.4c-0.2,0-0.7-0.1-1.4-0.1H323.9L323.9,87.4
	z M337.1,95.3v-9.4h1.9v7.8h4.8v1.6H337.1L337.1,95.3z M351.3,95.3v-9.5h7.1v1.6h-5.1v2.1h4.8v1.6h-4.8v2.6h5.3v1.6L351.3,95.3
	L351.3,95.3z M441.7,95.3h-2.1l-0.8-2.2H435l-0.8,2.2h-2l3.7-9.5h2L441.7,95.3z M438.1,91.5l-1.3-3.5l-1.3,3.5H438.1z M448.8,95.3
	v-9.5h4c1,0,1.8,0.1,2.2,0.3c0.5,0.2,0.8,0.5,1.1,0.9c0.3,0.4,0.4,0.9,0.4,1.5c0,0.7-0.2,1.3-0.6,1.8s-1,0.8-1.9,0.9
	c0.4,0.2,0.8,0.5,1,0.8c0.3,0.3,0.6,0.8,1.1,1.5l1.2,1.9H455l-1.4-2.1c-0.5-0.7-0.8-1.2-1-1.4c-0.2-0.2-0.4-0.3-0.6-0.4
	s-0.5-0.1-1-0.1h-0.3v4L448.8,95.3L448.8,95.3z M450.7,89.8h1.4c0.9,0,1.5,0,1.7-0.1s0.4-0.2,0.5-0.4c0.1-0.2,0.2-0.4,0.2-0.7
	c0-0.3-0.1-0.6-0.3-0.8c-0.2-0.2-0.4-0.3-0.7-0.4c-0.2,0-0.6,0-1.4,0h-1.4V89.8L450.7,89.8z M470.6,91.8l1.9,0.6
	c-0.3,1-0.8,1.8-1.4,2.3c-0.7,0.5-1.5,0.8-2.5,0.8c-1.3,0-2.3-0.4-3.1-1.3c-0.8-0.9-1.2-2-1.2-3.5c0-1.6,0.4-2.8,1.2-3.7
	c0.8-0.9,1.9-1.3,3.2-1.3c1.2,0,2.1,0.3,2.8,1c0.4,0.4,0.8,1,1,1.8l-1.9,0.5c-0.1-0.5-0.3-0.9-0.7-1.2c-0.4-0.3-0.8-0.4-1.3-0.4
	c-0.7,0-1.3,0.3-1.7,0.8c-0.4,0.5-0.7,1.3-0.7,2.5s0.2,2.1,0.7,2.6c0.4,0.5,1,0.8,1.7,0.8c0.5,0,1-0.2,1.3-0.5
	C470.2,93,470.5,92.5,470.6,91.8z M488.9,95.3h-2.1l-0.8-2.2h-3.8l-0.8,2.2h-2l3.7-9.5h2L488.9,95.3z M485.3,91.5L484,88l-1.3,3.5
	H485.3z M496,85.8h3.5c0.8,0,1.4,0.1,1.8,0.2c0.6,0.2,1,0.5,1.4,0.9s0.7,0.9,0.9,1.5c0.2,0.6,0.3,1.4,0.3,2.3c0,0.8-0.1,1.5-0.3,2
	c-0.2,0.7-0.6,1.3-1,1.7c-0.3,0.3-0.8,0.6-1.4,0.8c-0.4,0.1-1,0.2-1.7,0.2h-3.6L496,85.8L496,85.8L496,85.8z M497.9,87.4v6.3h1.4
	c0.5,0,0.9,0,1.2-0.1c0.3-0.1,0.6-0.2,0.8-0.4c0.2-0.2,0.4-0.5,0.5-0.9s0.2-1,0.2-1.7s-0.1-1.3-0.2-1.7c-0.1-0.4-0.3-0.7-0.5-0.9
	c-0.2-0.2-0.5-0.4-0.9-0.4c-0.3-0.1-0.8-0.1-1.6-0.1L497.9,87.4L497.9,87.4z M511.8,95.3v-9.5h7.1v1.6h-5.2v2.1h4.8v1.6h-4.8v2.6
	h5.3v1.6L511.8,95.3L511.8,95.3z M534.9,95.3v-9.5h2.9l1.7,6.5l1.7-6.5h2.9v9.5h-1.8v-7.5l-1.9,7.5h-1.9l-1.9-7.5v7.5H534.9z
	 M560.7,95.3h-2.1l-0.8-2.2H554l-0.8,2.2h-2l3.7-9.5h2L560.7,95.3z M557.2,91.5l-1.3-3.5l-1.3,3.5H557.2z M573.9,91.8l1.9,0.6
	c-0.3,1-0.8,1.8-1.4,2.3c-0.7,0.5-1.5,0.8-2.5,0.8c-1.3,0-2.3-0.4-3.1-1.3c-0.8-0.9-1.2-2-1.2-3.5c0-1.6,0.4-2.8,1.2-3.7
	c0.8-0.9,1.9-1.3,3.2-1.3c1.2,0,2.1,0.3,2.8,1c0.4,0.4,0.8,1,1,1.8l-1.9,0.5c-0.1-0.5-0.3-0.9-0.7-1.2c-0.4-0.3-0.8-0.4-1.3-0.4
	c-0.7,0-1.3,0.3-1.7,0.8s-0.7,1.3-0.7,2.5s0.2,2.1,0.6,2.6s1,0.8,1.7,0.8c0.5,0,0.9-0.2,1.3-0.5C573.5,93,573.8,92.5,573.9,91.8z
	 M583.6,95.3v-9.5h1.9v3.7h3.8v-3.7h1.9v9.5h-1.9v-4.2h-3.8v4.2H583.6z M599.3,95.3v-9.5h1.9v9.5H599.3z M609.2,95.3v-9.5h1.9
	l3.9,6.4v-6.4h1.8v9.5h-1.9l-3.8-6.2v6.2H609.2z M624.9,95.3v-9.5h7.1v1.6h-5.1v2.1h4.8v1.6h-4.8v2.6h5.3v1.6L624.9,95.3L624.9,95.3
	z M648.8,95.3v-9.5h7.1v1.6h-5.2v2.1h4.8v1.6h-4.8v2.6h5.3v1.6L648.8,95.3L648.8,95.3z M663.8,95.3v-9.5h2.9l1.7,6.5l1.7-6.5h2.9
	v9.5h-1.8v-7.5l-1.9,7.5h-1.9l-1.9-7.5v7.5H663.8z M681,85.8h1.9V91c0,0.8,0,1.4,0.1,1.6c0.1,0.4,0.3,0.7,0.6,0.9
	c0.3,0.2,0.7,0.4,1.3,0.4c0.5,0,1-0.1,1.2-0.3c0.3-0.2,0.4-0.5,0.5-0.8s0.1-0.9,0.1-1.6v-5.3h1.9v5c0,1.1-0.1,1.9-0.2,2.4
	c-0.1,0.5-0.3,0.9-0.6,1.2c-0.3,0.3-0.7,0.6-1.1,0.8c-0.5,0.2-1.1,0.3-1.8,0.3c-0.9,0-1.6-0.1-2.1-0.3c-0.5-0.2-0.8-0.5-1.1-0.8
	c-0.3-0.3-0.5-0.7-0.5-1.1c-0.1-0.5-0.2-1.4-0.2-2.4V85.8L681,85.8L681,85.8z M696.8,95.3v-9.4h1.9v7.8h4.8v1.6H696.8L696.8,95.3z
	 M719.6,95.3h-2.1l-0.8-2.2h-3.8l-0.8,2.2h-2l3.7-9.5h2L719.6,95.3z M716,91.5l-1.3-3.5l-1.3,3.5H716z M727.9,95.3v-7.9h-2.8v-1.6
	h7.6v1.6h-2.8v7.9H727.9z M739.4,90.6c0-1,0.1-1.8,0.4-2.4c0.2-0.5,0.5-0.9,0.9-1.3s0.8-0.7,1.2-0.9c0.6-0.3,1.3-0.4,2.1-0.4
	c1.4,0,2.5,0.4,3.4,1.3c0.8,0.9,1.3,2.1,1.3,3.6s-0.4,2.7-1.3,3.6c-0.8,0.9-2,1.3-3.4,1.3s-2.5-0.4-3.4-1.3
	C739.8,93.3,739.4,92.1,739.4,90.6z M741.4,90.5c0,1.1,0.2,1.9,0.7,2.4c0.5,0.6,1.1,0.8,1.9,0.8s1.4-0.3,1.9-0.8
	c0.5-0.6,0.7-1.4,0.7-2.5s-0.2-1.9-0.7-2.4s-1.1-0.8-1.9-0.8s-1.4,0.3-1.9,0.8C741.6,88.6,741.4,89.4,741.4,90.5z M756.2,95.3v-9.5
	h4c1,0,1.8,0.1,2.2,0.3c0.5,0.2,0.8,0.5,1.1,0.9c0.3,0.4,0.4,0.9,0.4,1.5c0,0.7-0.2,1.3-0.6,1.8c-0.4,0.5-1,0.8-1.9,0.9
	c0.4,0.2,0.8,0.5,1,0.8c0.3,0.3,0.6,0.8,1.1,1.5l1.2,1.9h-2.3l-1.4-2.1c-0.5-0.7-0.8-1.2-1-1.4c-0.2-0.2-0.4-0.3-0.6-0.4
	c-0.2-0.1-0.5-0.1-1-0.1H758v4L756.2,95.3L756.2,95.3L756.2,95.3L756.2,95.3L756.2,95.3L756.2,95.3z M758.2,89.8h1.4
	c0.9,0,1.5,0,1.7-0.1c0.2-0.1,0.4-0.2,0.5-0.4c0.1-0.2,0.2-0.4,0.2-0.7c0-0.3-0.1-0.6-0.3-0.8c-0.2-0.2-0.4-0.3-0.7-0.4
	c-0.2,0-0.6,0-1.4,0h-1.5L758.2,89.8L758.2,89.8z"/>
</svg>
