<?xml version="1.0" encoding="utf-8"?>
<!-- Generator: Adobe Illustrator 19.1.0, SVG Export Plug-In . SVG Version: 6.00 Build 0)  -->
<svg version="1.1"
	 id="Layer_1" inkscape:version="0.48.5 r" sodipodi:docname="gen.svg" xmlns:sodipodi="http://sodipodi.sourceforge.net/DTD/sodipodi-0.dtd" xmlns:dc="http://purl.org/dc/elements/1.1/" xmlns:cc="http://creativecommons.org/ns#" xmlns:svg="http://www.w3.org/2000/svg" xmlns:rdf="http://www.w3.org/1999/02/22-rdf-syntax-ns#" xmlns:inkscape="http://www.inkscape.org/namespaces/inkscape"
	 xmlns="http://www.w3.org/2000/svg" xmlns:xlink="http://www.w3.org/1999/xlink" x="0px" y="0px" viewBox="251 -13.3 566.9 90.3"
	 enable-background="new 251 -13.3 566.9 90.3" xml:space="preserve">
<path id="path6288-1-5" inkscape:connector-curvature="0" sodipodi:nodetypes="ssscsssssssssssscccsscccsscccsssssssssssscssscs" d="
	M742.45,76.81c8.3-0.2,16.4-0.4,24.6-1.5c7.4-1,15.1-2,22.3-4c5.4-1.5,10.1-3.4,15.9-6.6c6.8-3.7,12.6-10.1,12.6-16.2
	c0-7.5-6.7-11.4-13.1-15c-5-2.6-10.6-4.5-16-6.1c-7.2-2-14.4-3.1-21.8-4.1c-8.2-1.1-16.2-1.4-24.4-1.5c-7.9-0.2-16.1,0.2-23.9,0.3
	c-6.1,0.1-12,0.4-18,0.3c-9-0.1-18-0.5-26.9-1.1c-5.4-0.4-10.8-0.9-16.1-1.5c-6.1-0.7-13-1.8-18.1-2.8s-8.5-2-12.7-3.2
	c-4.1-1.2-8.3-2.5-12.3-4.1c-2.5-1-4.8-2.1-7.2-3.5c-1.8-1-3.7-2.2-5.5-3.3c-1.7-1-3.3-2-5-2.9c-4-2-8.1-3.9-12.3-5.5
	c-5.6-2.1-11.3-3.7-17.1-4.9c-5.9-1.2-12-1.8-18.1-2.4c-3.1-0.3-14.9-0.5-14.9-0.5s-11.8,0.2-14.9,0.5c-6,0.5-12.1,1.1-18.1,2.4
	c-5.8,1.2-11.5,2.8-17.1,4.9c-4.2,1.6-8.3,3.5-12.3,5.5c-1.8,0.9-3.3,1.9-5,2.9c-1.8,1-3.6,2.3-5.5,3.3c-2.4,1.3-4.7,2.4-7.2,3.5
	c-4,1.6-8.2,2.9-12.3,4.1c-4.2,1.2-7.5,2.3-12.7,3.2c-5.1,1-12,2.1-18.1,2.8c-5.3,0.6-10.8,1.1-16.1,1.5c-8.9,0.6-18,1-26.9,1.1
	c-6.1,0.1-12-0.2-18-0.3c-7.9-0.2-16.1-0.5-23.9-0.3c-8.3,0.2-16.2,0.4-24.4,1.5c-7.4,1-14.6,2-21.8,4.1c-5.4,1.5-11,3.5-16,6.1
	c-6.4,3.6-13.1,7.5-13.1,15c0,6.1,5.8,12.6,12.6,16.2c5.8,3.1,10.5,5,15.9,6.6c7.2,2,14.9,3,22.3,4c8.2,1.1,16.4,1.3,24.6,1.5
	C326.25,76.81,671.55,77.21,742.45,76.81L742.45,76.81z"/>
<radialGradient id="path7243_1_" cx="1008.0073" cy="-196.625" r="26.8927" gradientTransform="matrix(2.5123 0 0 0.5755 -1995.7167 119.0249)" gradientUnits="userSpaceOnUse">
	<stop  offset="0.4395" style="stop-color:#F1F3F2"/>
	<stop  offset="0.8739" style="stop-color:#A4B5D3"/>
	<stop  offset="0.9596" style="stop-color:#5878B5"/>
</radialGradient>
<path id="path7243" sodipodi:cy="36.418709" sodipodi:type="arc" sodipodi:ry="1.0606601" sodipodi:rx="22.362251" sodipodi:cx="249.43192" fill="url(#path7243_1_)" d="
	M593.65,9.11c0,7.4-25.5,13.4-57,13.4s-56.9-6-56.9-13.4l0,0c0-7.4,25.5-13.4,56.9-13.4C568.15-4.29,593.65,1.71,593.65,9.11z"/>
<linearGradient id="SVGID_1_" gradientUnits="userSpaceOnUse" x1="535.0499" y1="14.2233" x2="535.0499" y2="74.2301" gradientTransform="matrix(1 0 0 1 0 -0.6)">
	<stop  offset="0.0937" style="stop-color:#F1F3F2"/>
	<stop  offset="0.2838" style="stop-color:#A4B5D3"/>
	<stop  offset="0.5858" style="stop-color:#F1F3F2"/>
	<stop  offset="0.6" style="stop-color:#5878B5"/>
	<stop  offset="0.9" style="stop-color:#F1F3F2"/>
</linearGradient>
<path fill="url(#SVGID_1_)" d="M791.65,36.01c-5.9-2.8-10.7-4-16.2-5.3c-7.2-1.7-14.6-2.4-22-3c-8-0.6-16.1-0.5-24.2-0.6
	c-8.5-0.1-16.9,0.1-25.4,0.1c-6.2-0.1-12.5-0.1-18.7-0.4c-7.4-0.3-14.8-0.8-22.2-1.5c-6.3-0.7-12.7-1.5-18.9-2.7
	c-6.3-1.2-12.6-2.6-18.8-4.4c-4.8-1.4-9.5-3.3-14.2-5.1c-0.8-0.3-1.7-0.7-2.3-0.6c-0.5,0.1-1.7,0.9-2.5,1.5c-3.5,2.4-7,4.7-10.8,6.4
	c-3.3,1.5-6.8,2.5-10.2,3.5c-1.8,0.5-3.7,0.9-5.6,1.3c-2.9,0.6-5.8,1.2-8.7,1.7c-5.6,0.8-11.3,1.4-17,1.7c-14.1,0.4-16.6,0.3-20,0.3
	c-9.5,0-12,0.1-18.1-0.3c-5.7-0.4-11.4-0.9-17-1.7c-2.9-0.4-5.8-1.1-8.7-1.7c-1.9-0.4-3.7-0.7-5.6-1.3c-3.5-1-6.9-2-10.2-3.5
	c-3.8-1.7-9.4-5.4-10.8-6.4c-1.4-1-2-1.7-2.6-1.7c-0.8,0-1.4,0.4-2.2,0.7c-4.7,1.8-9.4,3.7-14.2,5.1c-6.2,1.8-12.5,3.2-18.8,4.4
	c-6.3,1.2-12.6,2-18.9,2.7c-7.4,0.8-14.8,1.2-22.2,1.5c-6.2,0.3-12.5,0.4-18.7,0.4c-8.5,0.1-16.9-0.2-25.4-0.1
	c-8.1,0.1-16.1,0-24.2,0.6c-7.4,0.6-14.8,1.4-22,3c-5.6,1.3-10.3,2.5-16.3,5.3c-5.5,2.6-12.7,7.3-12.7,13.5
	c0,6.1,7.1,10.5,12.5,13.5c2.8,1.6,11.5,4.3,17.5,5.7c6.9,1.6,13.9,2.4,21,3.1c8.4,0.7,16.9,0.6,25.3,0.8h386.8
	c8.4-0.1,16.9,0,25.3-0.8c7-0.6,14.1-1.4,21-3.1c6-1.4,14.6-4.1,17.5-5.7c5.3-3,12.5-7.4,12.5-13.5
	C804.35,43.31,797.05,38.61,791.65,36.01z M785.25,58.21c-4.5,3.4-10.2,4.7-15.7,6.1c-5.3,1.4-10.8,1.8-16.3,2.3
	c-8.4,0.7-26.4,0.7-26.4,0.7h-385.2c-8.4-0.1-17.6,0-26.3-0.7c-5.5-0.5-11-0.9-16.3-2.3c-5.4-1.4-11.2-2.7-15.7-6.1
	c-2.9-2.2-6.6-5.3-6.6-8.8c0-2.3,1.8-4.3,3.5-5.8c4.5-4,10.6-5.7,16.3-7.4c6.6-2,13.5-2.6,20.4-3.2c7-0.6,21.2-0.5,21.2-0.5h388.7
	c8.1,0.1,16.6-0.2,24.8,0.5c6.8,0.6,13.8,1.2,20.4,3.2c5.7,1.7,11.9,3.4,16.3,7.4c1.7,1.5,3.5,3.5,3.5,5.8
	C791.85,53.01,788.15,56.01,785.25,58.21z"/>
<linearGradient id="rect7344_1_" gradientUnits="userSpaceOnUse" x1="535.3347" y1="467.1916" x2="535.3347" y2="532.0671" gradientTransform="matrix(1 0 0 1 -1.1348 -454.8554)">
	<stop  offset="0.3553" style="stop-color:#F1F3F2"/>
	<stop  offset="0.4382" style="stop-color:#A4B5D3"/>
	<stop  offset="0.56" style="stop-color:#F1F3F2"/>
	<stop  offset="0.58" style="stop-color:#5878B5"/>
	<stop  offset="0.7858" style="stop-color:#F1F3F2"/>
</linearGradient>
<path id="rect7344" fill="url(#rect7344_1_)" d="M664.45,36.61l4.4,6.7h12.1l-4.4-6.7C676.55,36.61,664.45,36.61,664.45,36.61z
	 M701.25,36.61l-4.4,6.7h12.1l4.4-6.7C713.35,36.61,701.25,36.61,701.25,36.61z M314.75,37.21v6.1h53.9h5.4c0-3.3-2.4-6-5.4-6.1
	H314.75z M380.15,37.21v6.1h39v-6.1H380.15z M430.25,37.21c-3,0-5.4,2.7-5.4,6.1h5.4h5.5h35.2v-6.1H430.25L430.25,37.21z
	 M481.85,37.21c-3,0-5.4,2.7-5.4,6.1h5.4h5.5h27.1h5.6c0-3.4-2.5-6.1-5.5-6.1c-0.1,0-0.1,0-0.2,0H481.85z M545.75,37.21v6.1h40.2
	h5.4c0-3.3-2.4-6-5.4-6.1H545.75z M603.55,37.21L603.55,37.21c-2.8,0.3-5,2.9-5,6.1h5h5.9h20.1h2.6h8.9h2.1c0-3.3-2.4-6-5.4-6.1
	C637.75,37.21,603.55,37.21,603.55,37.21z M649.65,37.21v6.1h10.9v-6.1H649.65z M717.65,37.21v6.1h39v-6.1H717.65z M289.75,42.51
	c-3.9,0-7,3.1-7,7s3.1,7.1,7,7.1s7-3.2,7-7.1S293.55,42.51,289.75,42.51z M778.65,42.51c-3.9,0-7.1,3.1-7.1,7s3.2,7.1,7.1,7.1
	s7-3.2,7-7.1S782.55,42.51,778.65,42.51z M314.75,45.31v18.1h10.8v-18.1H314.75z M338.85,45.31v18.1h10.9v-18.1H338.85z
	 M362.95,45.31v18.1h11v-18.1H362.95z M380.15,45.31v11.6c0.1,3.6,3.5,6.5,7.5,6.5h31.5v-6.1h-25.7c-1.3,0-2.4-1.1-2.4-2.4v-1.5
	h26.2v-5.6h-23.8c-1.3,0-2.4-1.1-2.4-2.4h-1L380.15,45.31L380.15,45.31z M424.75,45.31v11.8l0,0c0.2,3.3,3.1,6,6.8,6.3l0,0h32l0,0
	c4.1-0.3,7.3-3.6,7.3-7.8c0-4.3-3.5-7.8-7.8-7.8h-0.1h-18.7v5.6h13.5c1.1,0,2,0.9,2,2s-0.9,2-2,2h-20.1c-1.1,0-2-0.9-2-2v-10
	L424.75,45.31L424.75,45.31z M476.35,45.31v18.1h10.9v-18.1H476.35z M509.15,45.31v5.4h-19.9v7.1h19.9v5.6h11v-18.1H509.15z
	 M545.75,45.31v18.1h10.9v-18.1H545.75z M580.35,45.31v10c0,1.1-0.9,2-2,2h-20.2v6.1h26.3l0,0c3.8-0.3,6.9-3.2,6.9-6.7v-11.4H580.35
	z M598.55,45.31v18.1h10.9v-18.1H598.55z M632.15,45.31v3.4c0,0,0,0,0,0.1c0,1.1-0.9,1.9-2,1.9h-2.4h-15.9v7.1h15.3l5.5,5.6h13.1
	l-7.5-7.6c2.9-1.2,4.9-4,4.9-7.2v-3.3h-0.7H632.15L632.15,45.31z M649.65,45.31v18.1h10.9v-18.1H649.65z M670.15,45.31l12,18.1h1.2
	h10.9h1.2l12-18.1h-12.1l-6.6,9.9l-6.6-9.9C682.15,45.31,670.15,45.31,670.15,45.31z M717.65,45.31v11.6c0.1,3.6,3.5,6.5,7.5,6.5
	h31.5v-6.1h-25.7c-1.3,0-2.4-1.1-2.4-2.4v-1.5h26.2v-5.6h-23.7c-1.3,0-2.4-1.1-2.4-2.4L717.65,45.31L717.65,45.31z"/>
<path d="M534.69,8.56h-8.39v3.59c0,1.02,0.83,1.85,1.85,1.85l8.26,0v-2.43h-7.12c0,0-0.57,0-0.57-0.57h5.97V8.56L534.69,8.56z
	 M526.3,4.38v3.59h8.39V5.53h-5.97c0,0,0-0.57,0.57-0.57h7.15V2.51h-8.3C527.13,2.51,526.3,3.36,526.3,4.38z M516.38,5.55h-2.03
	c-0.16,0-0.29-0.13-0.29-0.29c0-0.18,0.13-0.3,0.29-0.3h7.75l0.02-2.43h-7.77c-1.5,0-2.71,1.21-2.71,2.71
	c0,1.52,1.21,2.74,2.71,2.74h2.03c1.82,0,3.3,1.48,3.3,3.3c0,1.82-1.48,3.29-3.3,3.29h-7.77v2.47l0,0h7.77
	c3.18,0,5.76-2.58,5.76-5.76C522.14,8.11,519.55,5.55,516.38,5.55z M516.36,11.58h-7.75l0,2.44h7.77c1.52,0,2.73-1.23,2.73-2.73
	s-1.21-2.73-2.73-2.73h-2.03c-1.82,0-3.29-1.5-3.29-3.32c0-1.82,1.47-3.29,3.29-3.29h7.77l-0.02-2.46h-7.75
	c-3.17,0-5.74,2.57-5.74,5.76c0,3.17,2.57,5.74,5.74,5.74h2.01c0.16,0,0.29,0.13,0.29,0.29S516.52,11.58,516.36,11.58z M543.41,4.95
	h6.89V2.51h-8.04c-1.02,0-1.87,0.85-1.87,1.87l0,7.77c0,1.02,0.85,1.87,1.87,1.87h5.03V8.54h-3.89V11h1.45v0.57h-1.44
	c-0.32,0-0.57-0.27-0.57-0.57V5.53C542.83,5.53,542.83,4.95,543.41,4.95z M523.27,4.38v7.77c0,2.7,2.19,4.88,4.88,4.88h8.27v-2.44
	l-8.27,0c-1.34,0-2.44-1.07-2.44-2.44v-7.8c0-1.31,1.1-2.41,2.44-2.41h8.3V-0.5h-8.3C525.46-0.5,523.27,1.68,523.27,4.38z
	 M562.28,1.8c-0.45-1.48-1.93-2.58-3.69-2.58c-1.75,0-3.24,1.09-3.69,2.58l-4.61,13.54V5.53h-6.91v2.44h4.47v6.62l-5.58,0
	c-1.36,0-2.46-1.1-2.46-2.44V4.38c0-1.34,1.1-2.44,2.44-2.44h8.04V-0.5h-8.06c-2.7,0-4.88,2.19-4.88,4.88v7.77
	c0,2.7,2.2,4.88,4.9,4.88h8.04v0h2.01l5.03-14.82c0.21-0.49,0.69-0.83,1.26-0.83c0.56,0,1.04,0.34,1.25,0.83l4.2,12.38h-6.49v2.44
	h9.88L562.28,1.8z M557.54,14.03h5.7l-3.89-11.55c-0.11-0.32-0.4-0.54-0.75-0.54c-0.35,0-0.64,0.22-0.75,0.54l-4.93,14.55h2.87
	l1.76-5.18V14.03L557.54,14.03z M558.6,8.75l0.86,2.57h-1.73L558.6,8.75z"/>
</svg>
