<?xml version="1.0" encoding="utf-8"?>
<!-- Generator: Adobe Illustrator 19.1.0, SVG Export Plug-In . SVG Version: 6.00 Build 0)  -->
<svg version="1.1" id="Layer_1" xmlns:svg="http://www.w3.org/2000/svg"
	 xmlns="http://www.w3.org/2000/svg" xmlns:xlink="http://www.w3.org/1999/xlink" x="0px" y="0px"
	 viewBox="-181 146.16 566.8 90.28" enable-background="new -181 146.16 566.8 90.28" xml:space="preserve">
<path id="path6288-1-5" d="M310.4,236.26c8.3-0.2,16.4-0.4,24.6-1.5c7.4-1,15.1-2,22.3-4c5.4-1.5,10.1-3.4,15.9-6.6
	c6.8-3.7,12.6-10.1,12.6-16.2c0-7.5-6.7-11.4-13.1-15c-5-2.6-10.6-4.5-16-6.1c-7.2-2-14.4-3.1-21.8-4.1c-8.2-1.1-16.2-1.4-24.4-1.5
	c-7.9-0.2-16.1,0.2-23.9,0.3c-6.1,0.1-12,0.4-18,0.3c-9-0.1-18-0.5-26.9-1.1c-5.4-0.4-10.8-0.9-16.1-1.5c-6.1-0.7-13-1.8-18.1-2.8
	s-8.5-2-12.7-3.2c-4.1-1.2-8.3-2.5-12.3-4.1c-2.5-1-4.8-2.1-7.2-3.5c-1.8-1-3.7-2.2-5.5-3.3c-1.7-1-3.3-2-5-2.9
	c-4-2-8.1-3.9-12.3-5.5c-5.6-2.1-11.3-3.7-17.1-4.9c-5.9-1.2-12-1.8-18.1-2.4c-3.1-0.3-14.9-0.5-14.9-0.5s-11.8,0.2-14.9,0.5
	c-6,0.5-12.1,1.1-18.1,2.4c-5.8,1.2-11.5,2.8-17.1,4.9c-4.2,1.6-8.3,3.5-12.3,5.5c-1.8,0.9-3.3,1.9-5,2.9c-1.8,1-3.6,2.3-5.5,3.3
	c-2.4,1.3-4.7,2.4-7.2,3.5c-4,1.6-8.2,2.9-12.3,4.1c-4.2,1.2-7.5,2.3-12.7,3.2c-5.1,1-12,2.1-18.1,2.8c-5.3,0.6-10.8,1.1-16.1,1.5
	c-8.9,0.6-18,1-26.9,1.1c-6.1,0.1-12-0.2-18-0.3c-7.9-0.2-16.1-0.5-23.9-0.3c-8.3,0.2-16.2,0.4-24.4,1.5c-7.4,1-14.6,2-21.8,4.1
	c-5.4,1.5-11,3.5-16,6.1c-6.4,3.6-13.1,7.5-13.1,15c0,6.1,5.8,12.6,12.6,16.2c5.8,3.1,10.5,5,15.9,6.6c7.2,2,14.9,3,22.3,4
	c8.2,1.1,16.4,1.3,24.6,1.5C-105.8,236.26,239.5,236.66,310.4,236.26L310.4,236.26z"/>
<linearGradient id="shape_1_" gradientUnits="userSpaceOnUse" x1="102.9998" y1="170.5332" x2="102.9999" y2="230.2329" gradientTransform="matrix(1 0 0 1 0 1.64)">
	<stop  offset="0.0907" style="stop-color:#FFFFFF"/>
	<stop  offset="0.2178" style="stop-color:#80A6E2"/>
	<stop  offset="0.2752" style="stop-color:#3C76D2"/>
	<stop  offset="0.3269" style="stop-color:#AAC3EC"/>
	<stop  offset="0.3888" style="stop-color:#FFFFFF"/>
	<stop  offset="0.5869" style="stop-color:#F1F3F2"/>
	<stop  offset="0.6098" style="stop-color:#312500"/>
	<stop  offset="0.7512" style="stop-color:#A78C42"/>
	<stop  offset="0.7632" style="stop-color:#534417"/>
	<stop  offset="0.7868" style="stop-color:#F3DA75"/>
	<stop  offset="1" style="stop-color:#FFFFFF"/>
</linearGradient>
<path id="shape" fill="url(#shape_1_)" d="M359.6,195.46c-5.9-2.8-10.7-4-16.2-5.3c-7.2-1.7-14.6-2.4-22-3c-8-0.6-16.1-0.5-24.2-0.6
	c-8.5-0.1-16.9,0.1-25.4,0.1c-6.2-0.1-12.5-0.1-18.7-0.4c-7.4-0.3-14.8-0.8-22.2-1.5c-6.3-0.7-12.7-1.5-18.9-2.7
	c-6.3-1.2-12.6-2.6-18.8-4.4c-4.8-1.4-9.5-3.3-14.2-5.1c-0.8-0.3-1.7-0.7-2.3-0.6c-0.5,0.1-1.7,0.9-2.5,1.5c-3.5,2.4-7,4.7-10.8,6.4
	c-3.3,1.5-6.8,2.5-10.2,3.5c-1.8,0.5-3.7,0.9-5.6,1.3c-2.9,0.6-5.8,1.2-8.7,1.7c-5.6,0.8-11.3,1.4-17,1.7c-14.1,0.4-16.6,0.3-20,0.3
	c-9.5,0-12,0.1-18.1-0.3c-5.7-0.4-11.4-0.9-17-1.7c-2.9-0.4-5.8-1.1-8.7-1.7c-1.9-0.4-3.7-0.7-5.6-1.3c-3.5-1-6.9-2-10.2-3.5
	c-3.8-1.7-9.4-5.4-10.8-6.4s-2-1.7-2.6-1.7c-0.8,0-1.4,0.4-2.2,0.7c-4.7,1.8-9.4,3.7-14.2,5.1c-6.2,1.8-12.5,3.2-18.8,4.4
	s-12.6,2-18.9,2.7c-7.4,0.8-14.8,1.2-22.2,1.5c-6.2,0.3-12.5,0.4-18.7,0.4c-8.5,0.1-16.9-0.2-25.4-0.1c-8.1,0.1-16.1,0-24.2,0.6
	c-7.4,0.6-14.8,1.4-22,3c-5.6,1.3-10.3,2.5-16.3,5.3c-5.5,2.6-12.7,7.3-12.7,13.5c0,6.1,7.1,10.5,12.5,13.5
	c2.8,1.6,11.5,4.3,17.5,5.7c6.9,1.6,13.9,2.4,21,3.1c8.4,0.7,16.9,0.6,25.3,0.8h386.8c8.4-0.1,16.9,0,25.3-0.8
	c7-0.6,14.1-1.4,21-3.1c6-1.4,14.6-4.1,17.5-5.7c5.3-3,12.5-7.4,12.5-13.5C372.3,202.76,365,198.06,359.6,195.46z M353.2,217.66
	c-4.5,3.4-10.2,4.7-15.7,6.1c-5.3,1.4-10.8,1.8-16.3,2.3c-8.4,0.7-26.4,0.7-26.4,0.7H-90.4c-8.4-0.1-17.6,0-26.3-0.7
	c-5.5-0.5-11-0.9-16.3-2.3c-5.4-1.4-11.2-2.7-15.7-6.1c-2.9-2.2-6.6-5.3-6.6-8.8c0-2.3,1.8-4.3,3.5-5.8c4.5-4,10.6-5.7,16.3-7.4
	c6.6-2,13.5-2.6,20.4-3.2c7-0.6,21.2-0.5,21.2-0.5h388.7c8.1,0.1,16.6-0.2,24.8,0.5c6.8,0.6,13.8,1.2,20.4,3.2
	c5.7,1.7,11.9,3.4,16.3,7.4c1.7,1.5,3.5,3.5,3.5,5.8C359.8,212.46,356.1,215.46,353.2,217.66z"/>
<radialGradient id="rect7344_1_" cx="2595.2183" cy="588.6346" r="26.8334" gradientTransform="matrix(4.500007e-11 1 -28.2702 1.272156e-09 16742.2832 -2396.4231)" gradientUnits="userSpaceOnUse">
	<stop  offset="0" style="stop-color:#3C76D2"/>
	<stop  offset="0.3289" style="stop-color:#FFFFFF"/>
	<stop  offset="0.4724" style="stop-color:#F1F3F2"/>
	<stop  offset="0.5108" style="stop-color:#312500"/>
	<stop  offset="0.6496" style="stop-color:#A78C42"/>
	<stop  offset="0.7362" style="stop-color:#F3DA75"/>
	<stop  offset="0.7632" style="stop-color:#534417"/>
	<stop  offset="0.7868" style="stop-color:#F3DA75"/>
	<stop  offset="0.9147" style="stop-color:#FFFFFF"/>
</radialGradient>
<path id="rect7344" fill="url(#rect7344_1_)" d="M232.4,196.06l4.4,6.7h12.1l-4.4-6.7H232.4z M269.2,196.06l-4.4,6.7h12.1l4.4-6.7
	H269.2z M-117.3,196.66v6.1h53.9h5.4c0-3.3-2.4-6-5.4-6.1H-117.3z M-51.9,196.66v6.1h39v-6.1H-51.9z M-1.8,196.66
	c-3,0-5.4,2.7-5.4,6.1h5.4h5.5h35.2v-6.1H-1.8L-1.8,196.66z M49.8,196.66c-3,0-5.4,2.7-5.4,6.1h5.4h5.5h27.1H88
	c0-3.4-2.5-6.1-5.5-6.1c-0.1,0-0.1,0-0.2,0H49.8z M113.7,196.66v6.1h40.2h5.4c0-3.3-2.4-6-5.4-6.1H113.7z M171.5,196.66
	L171.5,196.66c-2.8,0.3-5,2.9-5,6.1h5h5.9h20.1h2.6h8.9h2.1c0-3.3-2.4-6-5.4-6.1H171.5z M217.6,196.66v6.1h10.9v-6.1H217.6z
	 M285.6,196.66v6.1h39v-6.1H285.6z M-142.3,201.96c-3.9,0-7,3.1-7,7s3.1,7.1,7,7.1c3.9,0,7-3.2,7-7.1
	C-135.3,205.06-138.5,201.96-142.3,201.96z M346.6,201.96c-3.9,0-7.1,3.1-7.1,7s3.2,7.1,7.1,7.1s7-3.2,7-7.1
	C353.6,205.06,350.5,201.96,346.6,201.96z M-117.3,204.76v18.1h10.8v-18.1H-117.3z M-93.2,204.76v18.1h10.9v-18.1H-93.2z
	 M-69.1,204.76v18.1h11v-18.1H-69.1z M-51.9,204.76v11.6c0.1,3.6,3.5,6.5,7.5,6.5h31.5v-6.1h-25.7c-1.3,0-2.4-1.1-2.4-2.4v-1.5h26.2
	v-5.6h-23.8c-1.3,0-2.4-1.1-2.4-2.4h-1L-51.9,204.76L-51.9,204.76z M-7.3,204.76v11.8l0,0c0.2,3.3,3.1,6,6.8,6.3l0,0h32l0,0
	c4.1-0.3,7.3-3.6,7.3-7.8c0-4.3-3.5-7.8-7.8-7.8h-0.1H12.2v5.6h13.5c1.1,0,2,0.9,2,2s-0.9,2-2,2H5.6c-1.1,0-2-0.9-2-2v-10
	L-7.3,204.76L-7.3,204.76z M44.3,204.76v18.1h10.9v-18.1H44.3z M77.1,204.76v5.4H57.2v7.1h19.9v5.6h11v-18.1L77.1,204.76
	L77.1,204.76z M113.7,204.76v18.1h10.9v-18.1H113.7z M148.3,204.76v10c0,1.1-0.9,2-2,2h-20.2v6.1h26.3l0,0c3.8-0.3,6.9-3.2,6.9-6.7
	v-11.4L148.3,204.76L148.3,204.76z M166.5,204.76v18.1h10.9v-18.1H166.5z M200.1,204.76v3.4c0,0,0,0,0,0.1c0,1.1-0.9,1.9-2,1.9h-2.4
	h-15.9v7.1h15.3l5.5,5.6h13.1l-7.5-7.6c2.9-1.2,4.9-4,4.9-7.2v-3.3h-0.7H200.1L200.1,204.76z M217.6,204.76v18.1h10.9v-18.1H217.6z
	 M238.1,204.76l12,18.1h1.2h10.9h1.2l12-18.1h-12.1l-6.6,9.9l-6.6-9.9H238.1z M285.6,204.76v11.6c0.1,3.6,3.5,6.5,7.5,6.5h31.5v-6.1
	h-25.7c-1.3,0-2.4-1.1-2.4-2.4v-1.5h26.2v-5.6H299c-1.3,0-2.4-1.1-2.4-2.4L285.6,204.76L285.6,204.76z"/>
<radialGradient id="path7243_1_" cx="1526.03" cy="188.6192" r="59.4671" gradientTransform="matrix(2.5123 2.300000e-03 -7.100000e-03 0.4103 -3727.2595 77.9766)" gradientUnits="userSpaceOnUse">
	<stop  offset="0" style="stop-color:#001833"/>
	<stop  offset="0.2518" style="stop-color:#3C76D2"/>
	<stop  offset="0.5869" style="stop-color:#F1F3F2"/>
	<stop  offset="0.6098" style="stop-color:#534417"/>
	<stop  offset="0.6937" style="stop-color:#A78C42"/>
	<stop  offset="0.7582" style="stop-color:#BFCBDE"/>
	<stop  offset="0.8207" style="stop-color:#A4B5D3"/>
	<stop  offset="0.8891" style="stop-color:#534417"/>
	<stop  offset="0.935" style="stop-color:#FFFFFF"/>
</radialGradient>
<path id="path7243" fill="url(#path7243_1_)" d="M161.6,168.56c0,7.4-25.5,13.4-57,13.4s-56.9-6-56.9-13.4l0,0
	c0-7.4,25.5-13.4,56.9-13.4C136.1,155.16,161.6,161.16,161.6,168.56z"/>
<path fill="#FFFFFF" d="M75.91,173.53v-2.93h3.97c-2.32-0.91-3.97-3.17-3.97-5.81c0-3.44,2.81-6.24,6.26-6.24h8.26l0.01,3.44
	L90.43,165h-3.96c2.33,0.91,3.98,3.17,3.98,5.82c0,3.44-2.81,6.24-6.26,6.24l-8.28,0.01L75.91,173.53z M95.98,177.04
	c-2.97,0-5.39-2.41-5.39-5.38v-7.74c0-2.96,2.42-5.37,5.39-5.37h8.81v4.36c0.48-2.48,2.67-4.36,5.29-4.36h8.56v13.3l3.64-10.67
	c0.52-1.71,2.24-2.91,4.17-2.91c1.93,0,3.65,1.21,4.17,2.93l5.36,15.85H124.9v-2.64l-0.9,2.64h-13.9c-2.71,0-4.96-1.99-5.35-4.57
	v4.58L95.98,177.04z M104.68,170.6V165h-1.67v5.59C103.01,170.6,104.68,170.6,104.68,170.6z"/>
<linearGradient id="SVGID_1_" gradientUnits="userSpaceOnUse" x1="105.8399" y1="-91.8761" x2="105.84" y2="-109.6758" gradientTransform="matrix(1 0 0 -1 0 66.884)">
	<stop  offset="0" style="stop-color:#2D056E"/>
	<stop  offset="0.7315" style="stop-color:#3C76D2"/>
	<stop  offset="0.8" style="stop-color:#2D056E"/>
	<stop  offset="1" style="stop-color:#27569C"/>
</linearGradient>
<path fill="url(#SVGID_1_)" d="M76.4,176.56l7.78-0.01c3.18,0,5.76-2.57,5.76-5.74c0-3.17-2.58-5.75-5.76-5.75l-2.02,0.01
	c-0.16,0-0.29-0.13-0.29-0.29s0.13-0.29,0.29-0.29h7.77v-2.44h-7.77c-1.5,0-2.72,1.22-2.72,2.72s1.22,2.72,2.72,2.72l2.03,0.03
	c1.82,0,3.3,1.47,3.3,3.28c0,1.82-1.47,3.29-3.3,3.29h-7.78L76.4,176.56 M76.41,173.53h7.78c1.51,0,2.73-1.22,2.73-2.72
	s-1.22-2.72-2.73-2.72l-2.03-0.02c-1.82,0-3.3-1.47-3.3-3.29c0-1.81,1.48-3.29,3.3-3.29h7.77v-2.45h-7.77
	c-3.18,0-5.76,2.57-5.76,5.74c0,3.17,2.58,5.74,5.76,5.74h2.01c0.15,0,0.28,0.12,0.28,0.28c0,0.15-0.13,0.28-0.28,0.28l-7.77,0.01
	L76.41,173.53 M95.98,174.12c-1.35,0-2.45-1.08-2.45-2.45v-7.77c0-1.32,1.11-2.41,2.45-2.41h8.3v-2.44h-8.3
	c-2.7,0-4.89,2.18-4.89,4.87v7.74c0,2.69,2.19,4.88,4.89,4.88h8.27v-2.43L95.98,174.12 M94.12,163.92c0-1.03,0.83-1.87,1.86-1.87
	h8.3v2.44h-7.15c-0.57,0-0.58,0.57-0.58,0.57h5.97v2.43h-8.4V163.92 M95.98,173.52c-1.03,0-1.86-0.83-1.86-1.86v-3.58h8.4v2.44
	h-5.97c0.01,0.57,0.58,0.58,0.58,0.58h7.12v2.42H95.98 M110.1,174.11c-1.34,0-2.44-1.1-2.44-2.44v-7.75c0-1.35,1.09-2.44,2.44-2.44
	h8.04v-2.44h-8.06c-2.7,0-4.89,2.18-4.89,4.87v7.74c0,2.69,2.21,4.88,4.91,4.88h8.04v-11.46h-6.91v2.43h4.47v6.61H110.1
	 M108.23,171.67c0,1.03,0.83,1.87,1.86,1.87h5.02v-5.46h-3.89v2.44h1.44l0.01,0.57h-1.44c-0.31,0-0.57-0.26-0.57-0.57l-0.01-5.45
	c0,0,0-0.57,0.58-0.58h6.9v-2.43h-8.04c-1.03,0-1.86,0.83-1.86,1.87L108.23,171.67 M125.69,162.02c0.11-0.31,0.4-0.53,0.75-0.53
	s0.65,0.22,0.75,0.53l3.9,11.53h-5.72l0.01-2.71h1.91l-0.86-2.56l-2.8,8.26h-2.88L125.69,162.02 M131.89,174.11h-6.49v2.44h9.88
	l-5.14-15.21c-0.45-1.48-1.94-2.58-3.69-2.58c-1.76,0-3.24,1.09-3.69,2.57l-5.19,15.21h2.59l5.04-14.79
	c0.2-0.49,0.69-0.83,1.25-0.83s1.05,0.35,1.26,0.83L131.89,174.11"/>
<path fill="#F1F3F2" d="M104.6,156.16c33,0,56,6.53,56,12.4c0,2.98-5.95,6.16-15.92,8.5c-10.69,2.51-24.93,3.9-40.08,3.9
	c-32.94,0-55.9-6.53-55.9-12.4c0-2.98,5.95-6.16,15.9-8.5C75.28,157.55,89.49,156.16,104.6,156.16 M28.87,172.76
	c0.15,0.05,0.54,0.36,0.88,0.62c0.31,0.25,0.7,0.55,1.17,0.89c1.59,1.14,7.15,4.79,10.97,6.5c3.27,1.49,6.62,2.49,10.31,3.54
	c1.53,0.48,3.02,0.78,4.45,1.07c0.41,0.08,0.82,0.17,1.25,0.26c0.72,0.15,1.44,0.31,2.17,0.46c2.16,0.47,4.39,0.95,6.6,1.25
	c4.85,0.69,10.11,1.22,17.08,1.71c4.09,0.27,6.57,0.31,10.6,0.31c0.89,0,1.85,0,2.93,0c1.35,0,2.87-0.01,4.63-0.01
	c0.54,0,1.05,0,1.59,0c0.6,0,1.24,0.01,1.98,0.01c2.55,0,6.73-0.03,16.49-0.31c5.39-0.28,11.14-0.86,17.12-1.71
	c2.92-0.5,5.88-1.11,8.74-1.71c1.88-0.4,3.83-0.81,5.68-1.32l0.51-0.15c3.26-0.96,6.62-1.94,9.82-3.4
	c3.97-1.78,7.59-4.18,10.99-6.51c1.03-0.77,1.88-1.26,2.1-1.32c0.31,0,0.92,0.23,1.4,0.42l0.34,0.13c0.73,0.28,1.47,0.57,2.21,0.85
	c3.93,1.52,7.98,3.08,12.07,4.28c5.55,1.61,11.73,3.06,18.89,4.42c6.45,1.25,13.21,2.07,19,2.71c7.38,0.7,14.87,1.2,22.25,1.5
	c4.66,0.22,9.43,0.28,14.04,0.34c1.57,0.02,3.13,0.04,4.71,0.06c3.41,0,6.85-0.03,10.18-0.06c3.32-0.03,6.75-0.06,10.13-0.06
	c1.69,0,3.38,0.01,5.08,0.03c1.8,0.02,3.6,0.03,5.4,0.05c6.17,0.04,12.55,0.09,18.73,0.55c7.12,0.58,14.68,1.28,21.85,2.98
	c5.81,1.37,10.36,2.55,16,5.23c4.51,2.17,12.12,6.68,12.53,12.53c-0.03,5.12-5.78,9.08-11.98,12.59c-2.84,1.56-11.44,4.25-17.26,5.6
	c-7.04,1.74-14.18,2.5-20.86,3.07c-6.83,0.65-13.83,0.7-20.61,0.75c-1.54,0.01-3.07,0.02-4.59,0.04H-90.38
	c-2.3-0.06-4.65-0.09-6.91-0.12c-6.03-0.08-12.26-0.17-18.31-0.68c-6.68-0.66-13.8-1.44-20.87-3.08c-5.94-1.39-14.57-4.07-17.24-5.6
	c-5.93-3.29-11.99-7.37-11.99-12.63c0-5.97,7.6-10.46,12.12-12.59c5.9-2.75,10.59-3.95,16.09-5.23c7.54-1.67,15.28-2.45,21.86-2.98
	c6.27-0.46,12.62-0.51,18.76-0.55c1.79-0.01,3.58-0.03,5.38-0.05c1.24-0.01,2.48-0.02,3.72-0.02c2.99,0,6.02,0.04,8.96,0.07
	s5.98,0.07,8.98,0.07c1.24,0,2.49-0.01,3.73-0.02c7.04,0,13.17-0.13,18.74-0.4c6.6-0.27,14.41-0.66,22.27-1.51
	c5.63-0.62,12.28-1.44,18.98-2.71c7.16-1.36,13.34-2.81,18.89-4.42c4.09-1.19,8.15-2.76,12.07-4.28c0.73-0.28,1.47-0.57,2.2-0.85
	c0.24-0.09,0.46-0.19,0.68-0.28C28.19,172.92,28.52,172.77,28.87,172.76 M-90.41,227.76L-90.41,227.76H294.8
	c0.18,0,18.14-0.01,26.49-0.7l1.47-0.13c4.96-0.44,10.08-0.9,14.98-2.19l0.97-0.25c5.25-1.33,10.69-2.7,15.08-6.03
	c3.39-2.57,7-5.64,7-9.6c0-2.83-2.19-5.1-3.83-6.54c-4.35-3.95-10.19-5.69-15.83-7.36l-0.85-0.25c-6.62-2.01-13.6-2.62-20.36-3.22
	l-0.25-0.02c-5.25-0.45-10.68-0.49-15.35-0.49h-2.52h-2.49c-1.51,0-3.02-0.01-4.52-0.02H-93.89c0,0-0.89-0.01-2.34-0.01
	c-4.86,0-13.78,0.07-18.96,0.51c-6.83,0.59-13.9,1.21-20.6,3.24l-0.7,0.21c-5.65,1.68-11.49,3.42-15.97,7.4
	c-1.65,1.45-3.84,3.72-3.84,6.55c0,3.78,3.54,6.97,7,9.6c4.31,3.26,9.65,4.63,14.8,5.95l1.24,0.32c4.91,1.3,10.03,1.75,14.99,2.2
	l1.48,0.13c6.96,0.56,14.18,0.61,21.15,0.66C-93.86,227.73-92.12,227.74-90.41,227.76L-90.41,227.76 M279.45,197.06l-3.09,4.7h-9.71
	l3.09-4.7H279.45 M243.96,197.06l3.09,4.7h-9.71l-3.09-4.7H243.96 M323.6,197.66v4.1h-37v-4.1H323.6 M227.5,197.66v4.1h-8.9v-4.1
	H227.5 M205.68,197.66c2.13,0.08,3.91,1.84,4.33,4.1H209h-8.9h-2.6h-20.1h-5.9h-3.92c0.38-2.17,1.95-3.86,3.97-4.1H205.68
	 M153.88,197.66c2.13,0.08,3.91,1.84,4.33,4.1h-4.31h-39.2v-4.1H153.88 M82.5,197.66c2.18,0,4,1.77,4.41,4.1H82.4H55.3h-5.5h-4.32
	c0.39-2.37,2.15-4.1,4.32-4.1h32.5H82.5 M37.9,197.66v4.1H3.7h-5.5h-4.32c0.39-2.37,2.15-4.1,4.32-4.1H37.9 M-13.9,197.66v4.1h-37
	v-4.1H-13.9 M-63.42,197.66c2.13,0.08,3.91,1.84,4.33,4.1h-4.31h-52.9v-4.1H-63.42 M346.6,202.96c3.36,0,6,2.63,6,6
	c0,3.36-2.69,6.1-6,6.1c-3.36,0-6.1-2.74-6.1-6.1C340.5,205.65,343.24,202.96,346.6,202.96 M-142.3,202.96c3.31,0,6,2.69,6,6
	c0,3.36-2.69,6.1-6,6.1s-6-2.74-6-6.1C-148.3,205.6-145.66,202.96-142.3,202.96 M273.54,205.76l-10.67,16.1h-0.66h-10.9h-0.66
	l-10.67-16.1h9.6l6.3,9.46l0.83,1.25l0.83-1.25l6.3-9.46H273.54 M227.5,205.76v16.1h-8.9v-16.1H227.5 M210.1,205.76v2.3
	c0,2.74-1.68,5.2-4.28,6.28l-1.37,0.57l1.04,1.06l5.82,5.9h-10.29l-5.21-5.3l-0.29-0.3h-0.42h-14.3v-5.1h14.9h2.4
	c1.68,0,3-1.27,3-2.9v-0.1v-2.4L210.1,205.76 M176.4,205.76v16.1h-8.9v-16.1H176.4 M158.3,205.76v10.4c0,2.92-2.61,5.42-5.94,5.7
	H127.1v-4.1h19.2c1.65,0,3-1.35,3-3v-9H158.3 M123.6,205.76v16.1h-8.9v-16.1H123.6 M87.1,205.76v16.1h-9v-4.6v-1h-1H58.2v-5.1h18.9
	h1v-1v-4.4L87.1,205.76 M54.2,205.76v16.1h-8.9v-16.1H54.2 M-59.1,205.76v16.1h-9v-16.1H-59.1 M-83.3,205.76v16.1h-8.9v-16.1H-83.3
	 M-107.5,205.76v16.1h-8.8v-16.1H-107.5 M286.6,205.77l9.15,0.08c0.44,1.38,1.75,2.41,3.25,2.41h22.7v3.6h-25.2h-1v1v1.5
	c0,1.84,1.56,3.4,3.4,3.4h24.7v4.1h-30.5c-3.5,0-6.42-2.48-6.5-5.5L286.6,205.77 M-6.3,205.77l8.9,0.08v9.01c0,1.65,1.35,3,3,3h20.1
	c1.65,0,3-1.35,3-3s-1.35-3-3-3H13.2v-3.6h17.7H31c3.75,0,6.8,3.05,6.8,6.8c0,3.6-2.72,6.52-6.34,6.8H-0.46
	c-3.16-0.27-5.66-2.56-5.84-5.33L-6.3,205.77 M-50.9,205.77l8.9,0.09h0.16c0.44,1.37,1.75,2.4,3.24,2.4h22.8v3.6H-41h-1v1v1.5
	c0,1.84,1.56,3.4,3.4,3.4h24.7v4.1h-30.5c-3.5,0-6.42-2.48-6.5-5.5L-50.9,205.77 M104.6,155.16c-31.4,0-56.9,6-56.9,13.4
	s25.4,13.4,56.9,13.4s57-6,57-13.4S136.1,155.16,104.6,155.16L104.6,155.16z M28.9,171.76c-0.8,0-1.4,0.4-2.2,0.7
	c-4.7,1.8-9.4,3.7-14.2,5.1c-6.2,1.8-12.5,3.2-18.8,4.4s-12.6,2-18.9,2.7c-7.4,0.8-14.8,1.2-22.2,1.5c-6.2,0.3-12.5,0.4-18.7,0.4
	c-1.24,0.02-2.49,0.02-3.73,0.02c-5.99,0-11.95-0.14-17.94-0.14c-1.24,0-2.48,0.01-3.73,0.02c-8.1,0.1-16.1,0-24.2,0.6
	c-7.4,0.6-14.8,1.4-22,3c-5.6,1.3-10.3,2.5-16.3,5.3c-5.5,2.6-12.7,7.3-12.7,13.5c0,6.1,7.1,10.5,12.5,13.5
	c2.8,1.6,11.5,4.3,17.5,5.7c6.9,1.6,13.9,2.4,21,3.1c8.4,0.7,16.9,0.6,25.3,0.8h386.8c8.4-0.1,16.9,0,25.3-0.8
	c7-0.6,14.1-1.4,21-3.1c6-1.4,14.6-4.1,17.5-5.7c5.3-3,12.5-7.4,12.5-13.5c-0.4-6.1-7.7-10.8-13.1-13.4c-5.9-2.8-10.7-4-16.2-5.3
	c-7.2-1.7-14.6-2.4-22-3c-8-0.6-16.1-0.5-24.2-0.6c-1.7-0.02-3.4-0.03-5.09-0.03c-6.78,0-13.51,0.13-20.31,0.13
	c-6.2-0.1-12.5-0.1-18.7-0.4c-7.4-0.3-14.8-0.8-22.2-1.5c-6.3-0.7-12.7-1.5-18.9-2.7c-6.3-1.2-12.6-2.6-18.8-4.4
	c-4.8-1.4-9.5-3.3-14.2-5.1c-0.71-0.27-1.51-0.62-2.1-0.62c-0.07,0-0.14,0-0.2,0.02c-0.5,0.1-1.7,0.9-2.5,1.5
	c-3.5,2.4-7,4.7-10.8,6.4c-3.3,1.5-6.8,2.5-10.2,3.5c-1.8,0.5-3.7,0.9-5.6,1.3c-2.9,0.6-5.8,1.2-8.7,1.7c-5.6,0.8-11.3,1.4-17,1.7
	c-9.4,0.27-13.64,0.31-16.44,0.31c-1.4,0-2.43-0.01-3.56-0.01c-3.17,0-5.56,0.01-7.56,0.01c-4.01,0-6.47-0.04-10.54-0.31
	c-5.7-0.4-11.4-0.9-17-1.7c-2.9-0.4-5.8-1.1-8.7-1.7c-1.9-0.4-3.7-0.7-5.6-1.3c-3.5-1-6.9-2-10.2-3.5c-3.8-1.7-9.4-5.4-10.8-6.4
	C30.1,172.46,29.5,171.76,28.9,171.76L28.9,171.76z M-90.4,226.76c-8.4-0.1-17.6,0-26.3-0.7c-5.5-0.5-11-0.9-16.3-2.3
	c-5.4-1.4-11.2-2.7-15.7-6.1c-2.9-2.2-6.6-5.3-6.6-8.8c0-2.3,1.8-4.3,3.5-5.8c4.5-4,10.6-5.7,16.3-7.4c6.6-2,13.5-2.6,20.4-3.2
	c5.25-0.45,14.55-0.51,18.87-0.51c1.44,0,2.33,0.01,2.33,0.01h388.7c1.49,0.02,3.01,0.02,4.52,0.02c1.66,0,3.33-0.01,5.01-0.01
	c5.09,0,10.23,0.05,15.26,0.48c6.8,0.6,13.8,1.2,20.4,3.2c5.7,1.7,11.9,3.4,16.3,7.4c1.7,1.5,3.5,3.5,3.5,5.8c0,3.6-3.7,6.6-6.6,8.8
	c-4.5,3.4-10.2,4.7-15.7,6.1c-5.3,1.4-10.8,1.8-16.3,2.3c-8.4,0.7-26.4,0.7-26.4,0.7L-90.4,226.76L-90.4,226.76z M281.3,196.06
	h-12.1l-4.4,6.7h12.1L281.3,196.06L281.3,196.06z M244.5,196.06h-12.1l4.4,6.7h12.1L244.5,196.06L244.5,196.06z M324.6,196.66h-39
	v6.1h39V196.66L324.6,196.66z M228.5,196.66h-10.9v6.1h10.9V196.66L228.5,196.66z M205.7,196.66h-34.2c-2.8,0.3-5,2.9-5,6.1h5h5.9
	h20.1h2.6h8.9h2.1C211.1,199.46,208.7,196.76,205.7,196.66L205.7,196.66z M153.9,196.66h-40.2v6.1h40.2h5.4
	C159.3,199.46,156.9,196.76,153.9,196.66L153.9,196.66z M82.5,196.66c-0.1,0-0.1,0-0.2,0H49.8c-3,0-5.4,2.7-5.4,6.1h5.4h5.5h27.1H88
	C88,199.36,85.5,196.66,82.5,196.66L82.5,196.66z M38.9,196.66H-1.8c-3,0-5.4,2.7-5.4,6.1h5.4h5.5h35.2V196.66L38.9,196.66z
	 M-12.9,196.66h-39v6.1h39V196.66L-12.9,196.66z M-63.4,196.66h-53.9v6.1h53.9h5.4C-58,199.46-60.4,196.76-63.4,196.66L-63.4,196.66
	z M346.6,201.96c-3.9,0-7.1,3.1-7.1,7s3.2,7.1,7.1,7.1s7-3.2,7-7.1C353.6,205.06,350.5,201.96,346.6,201.96L346.6,201.96z
	 M-142.3,201.96c-3.9,0-7,3.1-7,7s3.1,7.1,7,7.1c3.9,0,7-3.2,7-7.1C-135.3,205.06-138.5,201.96-142.3,201.96L-142.3,201.96z
	 M285.6,204.76v11.6c0.1,3.6,3.5,6.5,7.5,6.5h31.5v-6.1h-25.7c-1.3,0-2.4-1.1-2.4-2.4v-1.5h26.2v-5.6H299c-1.3,0-2.4-1.1-2.4-2.4
	L285.6,204.76L285.6,204.76z M275.4,204.76h-12.1l-6.6,9.9l-6.6-9.9h-12l12,18.1h1.2h10.9h1.2L275.4,204.76L275.4,204.76z
	 M228.5,204.76h-10.9v18.1h10.9V204.76L228.5,204.76z M211.1,204.76h-0.7h-10.3v3.4c0,0,0,0,0,0.1c0,1.1-0.9,1.9-2,1.9h-2.4h-15.9
	v7.1h15.3l5.5,5.6h13.1l-7.5-7.6c2.9-1.2,4.9-4,4.9-7.2V204.76L211.1,204.76z M177.4,204.76h-10.9v18.1h10.9V204.76L177.4,204.76z
	 M159.3,204.76h-11v10c0,1.1-0.9,2-2,2h-20.2v6.1h26.3c3.8-0.3,6.9-3.2,6.9-6.7L159.3,204.76L159.3,204.76z M124.6,204.76h-10.9
	v18.1h10.9V204.76L124.6,204.76z M88.1,204.76h-11v5.4H57.2v7.1h19.9v5.6h11V204.76L88.1,204.76z M55.2,204.76H44.3v18.1h10.9
	V204.76L55.2,204.76z M-7.3,204.76v11.8c0.2,3.3,3.1,6,6.8,6.3h32c4.1-0.3,7.3-3.6,7.3-7.8c0-4.3-3.5-7.8-7.8-7.8h-0.1H12.2v5.6
	h13.5c1.1,0,2,0.9,2,2s-0.9,2-2,2H5.6c-1.1,0-2-0.9-2-2v-10L-7.3,204.76L-7.3,204.76z M-51.9,204.76v11.6c0.1,3.6,3.5,6.5,7.5,6.5
	h31.5v-6.1h-25.7c-1.3,0-2.4-1.1-2.4-2.4v-1.5h26.2v-5.6h-23.8c-1.3,0-2.4-1.1-2.4-2.4h-1L-51.9,204.76L-51.9,204.76z M-58.1,204.76
	h-11v18.1h11V204.76L-58.1,204.76z M-82.3,204.76h-10.9v18.1h10.9V204.76L-82.3,204.76z M-106.5,204.76h-10.8v18.1h10.8V204.76
	L-106.5,204.76z"/>
</svg>
