<?xml version="1.0" encoding="utf-8"?>
<!-- Generator: Adobe Illustrator 19.1.0, SVG Export Plug-In . SVG Version: 6.00 Build 0)  -->
<svg version="1.1" id="Ebene_1" xmlns="http://www.w3.org/2000/svg" xmlns:xlink="http://www.w3.org/1999/xlink" x="0px" y="0px"
	 viewBox="251 -17.4 566.9 98.4" style="enable-background:new 251 -17.4 566.9 98.4;" xml:space="preserve">
<g>
	<path id="path2842" fill="#47D400" d="M310.3,42.5c0,8.2-13.3,14.8-29.7,14.8c-16.4,0-29.7-6.6-29.7-14.8c0,0,0,0,0,0
		c0-8.2,13.3-14.8,29.7-14.8C297,27.7,310.3,34.3,310.3,42.5C310.3,42.5,310.3,42.5,310.3,42.5z"/>
	<path id="path3624" fill="#F5FD00" d="M361.4,65.9c0,8.2-13.3,14.8-29.7,14.8c-16.4,0-29.7-6.6-29.7-14.8c0,0,0,0,0,0
		c0-8.2,13.3-14.8,29.7-14.8C348.1,51.1,361.4,57.7,361.4,65.9C361.4,65.9,361.4,65.9,361.4,65.9z"/>
	<path id="path3644" fill="#3100FF" d="M311.4-17.2c-14.9,0-27.1,11.9-27.4,26.8c0.6,0,1.2-0.1,1.9-0.1c15.2,0,27.5,12.3,27.5,27.5
		c0,0.2,0,0.4,0,0.7c14.3-1,25.6-12.9,25.6-27.4C338.9-4.9,326.6-17.2,311.4-17.2L311.4-17.2z"/>
	<path id="path3897" fill="#F12408" d="M363.4,6.9c-15.2,0-27.5,12.3-27.5,27.5c0,0.3,0,0.7,0,1c0.4,0,0.7,0,1.1,0
		c14.8,0,26.9,11.8,27.4,26.5c14.7-0.6,26.4-12.6,26.4-27.4C390.9,19.2,378.6,6.9,363.4,6.9L363.4,6.9z"/>
</g>
<path id="polyline2177" d="M437.9-17.4c-3.8,0-7.4,3.1-8.1,6.9v0.1v0.1v0.1l-0.1,0.1v0.1v0.1l-0.1,0.1v0.1l-0.1,0.1v0.2l-0.1,0.1
	v0.2l-0.1,0.2l-0.1,0.2l-0.1,0.4l-0.1,0.5l-0.1,0.5L429-6.8l-0.1,0.5l-0.1,0.5l-0.1,0.6l-0.1,0.5l-0.2,1.2l-0.1,0.6L428-2.2
	L428-1.7l-0.1,0.5l-0.1,0.5L427.6,0l-0.1,0.5l-0.1,0.4l-0.1,0.5v0.2l-0.1,0.1v0.2V2l-0.1,0.2v0.1v0.1l-0.1,0.1v0.1v0.1
	c-0.1,1.7,0.2,4,0.7,4.4c0.7,3.7,13,20.8,12.6,23.4c-0.3,2.6-1.8,10.3-1.8,10.3c-0.4,2.6-2.2,4.7-4.8,4.7c-2.6,0-4.4-2.1-3.9-4.7
	l2.3-12.7h-9.2L420,45.7c-0.6,3.6,1.8,6.4,5.4,6.4h13.1c3.6,0,7.1-2.8,7.7-6.4c0,0,3.4-16.5,3.4-17.7c0-1.2-0.3-1.3-0.3-1.3
	c0-1.3-10.9-19.4-12.1-20.1c-0.5-0.3-0.9-2.1-0.9-3.1c0-1.1,1.4-8.3,1.4-8.3c0.4-2.6,2.9-4.7,5.5-4.7c2.6,0,3.7,2.1,3.2,4.7
	l-2,11.4h9.2l3.2-17.2c0.7-3.8-1.7-6.9-5.5-6.9H437.9z M463.1-17.4l-11,63.2c-0.6,3.6,1.8,6.4,5.4,6.4h13.1c3.6,0,7.1-2.8,7.8-6.4
	l11.7-63.2h-8.2l-11.2,61.4c-0.2,0.9-1,1.6-1.9,1.6h-6.5c-0.9,0-1.5-0.7-1.4-1.6l10.9-61.4H463.1z M494.6-17.4l-13.2,69.6h8.8
	l6-31.5h11.2c3.6,0,7.1-2.9,7.7-6.4l4.8-24.7c0.7-3.8-1.7-6.9-5.5-6.9h-11H494.6z M525.9-17.4l-13.7,69.6h19.7l1.4-8.6h-9.7l4-23.5
	h9.7l1.4-7.3h-9.7l4.3-21.6h9.7l1.4-8.6H525.9z M549.5-17.4l-13.2,69.6h8.8l6-31.5h6.2c0.8,0.8,0.9,2.2,1,2.9
	c0.2,1,0.3,2.3,0.2,3.4c-0.1,1-4.8,25.3-4.8,25.3h8.8c0,0,4.9-26.4,4.9-26.9c0-0.4,0-1.8-0.5-2.5c-0.3-0.5-0.9-1.6-1.5-2
	c-1.2-0.8-2.6-1.3-2.6-1.3h-0.6c2.5-1,7.2-2.6,7.7-5.3l4.8-24.7c0.7-3.8-1.7-6.9-5.5-6.9H549.5z M596.4-17.4l-13.2,69.6h10.1
	l8.1-40.3l3.2,40.3h8.8l13.2-69.6h-10.1l-6.9,36.4l-4.5-36.4H596.4z M631.2-17.4L618,52.2h8.8L640-17.4H631.2z M644.6-17.4
	l-13.2,69.6h10.1l8.2-40.3l3.2,40.3h8.8l13.2-69.6h-10.1l-6.8,36.4l-4.5-36.4H644.6z M678.5-17.4l-1.6,8.6h5.5l-10.8,61h10l11-61
	h5.3l1.4-8.6H678.5z M702.6-17.4L689,52.2h19.7l1.4-8.6h-9.7l4-23.5h9.7l1.4-7.3h-9.7L710-8.8h9.7l1.4-8.6H702.6z M724.9-17.4
	l-13.2,69.6h10.1l8.2-40.3l3.2,40.3h8.8l13.2-69.6h-10.1l-6.8,36.4l-4.5-36.4H724.9z M759.8-17.4l-13.2,69.6h20
	c3.6,0,7.1-2.8,7.8-6.4L785-10.5c0.7-3.8-1.7-6.9-5.5-6.9H759.8z M797.4-17.4c-3.8,0-7.3,3.1-8,6.9l-9.8,56.2
	c-0.6,3.6,1.7,6.4,5.3,6.4h14.5c3.6,0,7.1-2.8,7.8-6.4l10.6-56.2c0.7-3.8-1.7-6.9-5.5-6.9H797.4z M767.2-9.4h4
	c2.6,0,4.3,2.1,3.9,4.7l-8.6,45.6c-0.5,2.6-3,4.7-5.5,4.7h-4L767.2-9.4z M802.5-9.4h0.3c2.6,0,4.3,2.1,3.8,4.7l-8.2,45.6
	c-0.4,2.6-2.8,4.7-5.4,4.7c-2.6,0-3.7-2.1-3.2-4.7l8.2-45.6L798-5l0.1-0.2l0.1-0.3l0.1-0.2l0.1-0.3l0.1-0.2l0.1-0.2l0.1-0.2
	l0.1-0.2l0.1-0.2l0.1-0.2l0.1-0.2l0.1-0.1l0.1-0.2l0.1-0.2l0.2-0.1l0.1-0.1l0.1-0.1l0.2-0.1l0.2-0.1l0.1-0.1l0.2-0.1l0.2-0.1
	l0.2-0.1l0.1-0.1l0.3-0.1l0.2-0.1h0.2l0.2-0.1h0.3L802.5-9.4z M503-9.1h4.2c0.9,0,2.9,2.1,2.7,3.1l-3.6,17.2
	c-0.2,0.9-1.4,2.9-2.3,2.9H499h-0.1h-0.1l-0.1-0.1h-0.1h-0.1h-0.1h-0.1v-0.1h-0.1h-0.1l-0.1-0.1h-0.1l-0.1-0.1l-0.1-0.1H498v-0.1
	l-0.1-0.1l-0.1-0.1v-0.1l-0.1-0.1l-0.1-0.1v-0.1v-0.1l-0.1-0.1V13V13l-0.1-0.1v-0.1c0-0.1,0-0.3,0-0.4l4.1-21
	C502.1-8.9,502.6-9.1,503-9.1z M557.6-9.1L557.6-9.1h0.1h0.1h0.1h4c0.9,0,2.9,2.1,2.7,3.1L561,11.1c-0.2,0.9-2.4,3-3.3,3h-3.8
	c-0.8,0-1.3-0.5-1.4-1.2c0-0.1,0-0.3,0-0.4l4-21l0.1-0.1l0.1-0.1l0.1-0.1h0.1l0.1-0.1l0.1-0.1h0.1l0.1-0.1h0.1l0.1-0.1h0.1
	L557.6-9.1L557.6-9.1L557.6-9.1L557.6-9.1z M418.4,58.2V81h391V58.2H418.4z M705.9,60.6L705.9,60.6h0.1h0.1h0.1h0.1h3
	c0.8,0,1.4,0.7,1.2,1.5l-0.8,3.8h-1.8l0.4-2.5c0.1-0.6-0.2-1-0.8-1c-0.6,0-1.1,0.5-1.2,1l-0.3,1.8c-0.1,0.1,0.1,0.6,0.2,0.7
	c0.3,0.1,2.7,4.2,2.7,4.5c0.1,0.1,0.1,0.2,0.1,0.3c-0.1,0.5-0.8,3.9-0.8,3.9c-0.1,0.8-0.9,1.4-1.7,1.4h-2.9c-0.8,0-1.3-0.7-1.2-1.4
	l0.7-3.9h2l-0.5,2.8c-0.1,0.6,0.2,1.1,0.8,1.1c0.6,0,1.1-0.5,1.2-1.1l0.4-2.3c-0.4-0.9-2.8-4.4-2.9-5.2c-0.1-0.1-0.2-0.6-0.1-1
	c0-0.4,0.5-2.9,0.5-2.9h0.1V62V62v-0.1l0.1-0.1v-0.1l0.1-0.1v-0.1l0.1-0.1v-0.1l0.1-0.1l0.1-0.1v-0.1h0.1l0.1-0.1l0.1-0.1l0.1-0.1
	v-0.1h0.1l0.1-0.1l0.1-0.1h0.1l0.1-0.1h0.1l0.1-0.1h0.1L705.9,60.6L705.9,60.6z M721.6,60.6h2.5l0.3,5.8l3.1-5.8h2.5l-5.1,8.9
	l-1.2,6.5h-2.2l1.1-7L721.6,60.6z M744,60.6L744,60.6h0.1h0.1h0.1h0.1h3c0.8,0,1.4,0.7,1.2,1.5l-0.8,3.8H746l0.4-2.5
	c0.1-0.6-0.2-1-0.8-1c-0.6,0-1.1,0.5-1.2,1l-0.3,1.8c-0.1,0.1,0.1,0.6,0.2,0.7c0.2,0.1,2.7,4.2,2.7,4.5c0.1,0.1,0.1,0.2,0.1,0.3
	c-0.1,0.5-0.7,3.9-0.7,3.9c-0.1,0.8-0.9,1.4-1.7,1.4h-2.9c-0.8,0-1.3-0.7-1.2-1.4l0.7-3.9h2l-0.5,2.8c-0.1,0.6,0.3,1.1,0.8,1.1
	c0.6,0,1.1-0.5,1.2-1.1l0.4-2.3c-0.4-0.9-2.8-4.4-2.9-5.2c-0.1-0.1-0.1-0.6-0.1-1c0-0.4,0.5-2.9,0.5-2.9l0.1-0.1V62v-0.1l0.1-0.1
	v-0.1l0.1-0.1v-0.1l0.1-0.1v-0.1l0.1-0.1l0.1-0.1v-0.1h0.1l0.1-0.1l0.1-0.1l0.1-0.1l0.1-0.1l0.1-0.1l0.1-0.1h0.1l0.1-0.1h0.1
	l0.1-0.1h0.1L744,60.6L744,60.6z M760,60.6h4.6l-0.3,1.9h-1.2L760.7,76h-2.3l2.4-13.6h-1.2L760,60.6z M777.9,60.6h4.1l-0.3,1.9
	h-2.1l-1,4.9h2.2l-0.3,1.6h-2.1l-0.9,5.2h2.1l-0.3,1.9h-4.4L777.9,60.6z M794.9,60.6h2.5l0.4,8.9l3.9-8.8l2.5-0.1L801.6,76h-1.9
	l1.2-8.2l-3.4,8.2h-1.4l-0.4-8.4l-1.5,8.4h-2.3L794.9,60.6z M426.9,61.1h4l-0.3,1.9h-2.2l-0.9,4.8h2.1l-0.3,1.6h-2.2l-0.8,5.2h2.1
	l-0.3,1.9h-4.4L426.9,61.1z M445.8,61.1h1.9l1,8.1l1.5-8.1h2.3l-2.9,15.5h-1.9l-0.8-9l-1.8,9h-2.3L445.8,61.1z M466.4,61.1h4.5
	l-0.3,1.9h-1.2L467,76.6h-2.2l2.4-13.6H466L466.4,61.1z M486.3,61.1h4.1l-0.3,1.9H488l-1,4.8h2.1l-0.3,1.6h-2.1l-0.9,5.2h2.1
	l-0.3,1.9h-4.4L486.3,61.1z M505.6,61.1h4.4c0.8,0,1.3,0.7,1.2,1.6l-1,5.5c-0.1,0.6-1.2,1.1-1.7,1.3h0.1h0.1h0.1v0.1h0.1h0.1h0.1
	h0.1l0.1,0.1h0.1h0.1h0.1v0.1h0.1h0.1v0.1h0.1c0.1,0.2,0.1,0.7,0.1,0.8c0,0.1-1.1,6.1-1.1,6.1h-2c0,0,1.1-5.4,1.1-5.6
	c0-0.2,0-0.5-0.1-0.8c0-0.2,0-0.4-0.2-0.6H506l-1.3,7h-2L505.6,61.1z M525.2,61.1h4.6l-0.3,1.9h-1.2l-2.5,13.6h-2.2l2.4-13.6h-1.2
	L525.2,61.1z M548,61.1h2.6l-0.8,15.5h-2.6l0.3-3.6H546l-1.3,3.6h-2.3L548,61.1z M566.3,61.1h2l-2.9,15.5h-1.9L566.3,61.1z
	 M583.9,61.1h1.9l1,8.1l1.5-8.1h2.2l-2.9,15.5h-2l-0.7-9l-1.8,9H581L583.9,61.1z M606.6,61.1h2.5l0.4,9l3.9-8.9h2.5l-2.6,15.4h-1.9
	l1.2-8.2l-3.4,8.2h-1.4l-0.4-8.4l-1.5,8.4h-2.2L606.6,61.1z M631.5,61.1h4l-0.3,1.9h-2.2l-0.9,4.8h2.1l-0.3,1.6h-2.2l-0.9,5.2h2.2
	l-0.3,1.9h-4.3L631.5,61.1z M651.3,61.1h1.9l1,8.1l1.5-8.1h2.2l-2.9,15.5h-1.9l-0.8-9l-1.8,9h-2.3L651.3,61.1z M671.7,61.1h4.6
	l-0.3,1.9h-1.2l-2.4,13.6h-2.2l2.4-13.6h-1.2L671.7,61.1z M507.5,63c-0.1,0-0.2,0.1-0.3,0.1l-0.9,4.7c0,0,0,0,0,0.1
	c0,0.1,0.1,0.3,0.3,0.3h0.8c0.2,0,0.7-0.4,0.8-0.6l0.8-3.8c0-0.2-0.3-0.7-0.5-0.7L507.5,63L507.5,63z M548,67.6l-1.4,3.9h1.1
	L548,67.6z"/>
</svg>
